<?xml version="1.0" encoding="iso-8859-1"?>
<!-- Generator: Adobe Illustrator 19.0.0, SVG Export Plug-In . SVG Version: 6.00 Build 0)  -->
<svg version="1.1" id="Layer_1" xmlns="http://www.w3.org/2000/svg" xmlns:xlink="http://www.w3.org/1999/xlink" x="0px" y="0px"
	 viewBox="0 0 512 512" style="enable-background:new 0 0 512 512;" xml:space="preserve">
<path style="fill:#0F874B;" d="M323.191,389.178v7.598c0,8.68-7.037,15.718-15.718,15.718H204.503
	c-8.68,0-15.718-7.037-15.718-15.718v-7.598c23.281-1.145,46.048-6.522,67.202-15.649l0.012-0.012
	C277.154,382.656,299.909,388.032,323.191,389.178z"/>
<g>
	<path style="fill:#189E5E;" d="M213.142,161.788c-9.724,22.627,23.34,142.34,22.989,168.45
		c-18.84-18.361-79.053-126.948-102.113-136.041c0.351-25.443,5.762-50.408,15.638-73.467
		C173.125,130.057,194.77,143.93,213.142,161.788z"/>
	<path style="fill:#189E5E;" d="M362.332,120.73c9.887,23.059,15.299,48.023,15.638,73.467
		c-23.047,9.093-85.598,113.005-104.438,131.366c-0.351-26.11,35.039-141.137,25.315-163.763
		C317.218,143.942,338.863,130.057,362.332,120.73z"/>
	<path style="fill:#189E5E;" d="M438.066,254.972c25.619,0.339,50.758,5.855,73.934,15.86
		c-18.712,46.714-55.503,86.124-105.701,106.846c-27.22,11.232-55.527,15.79-83.109,14.422
		c-23.281-1.145-46.037-6.522-67.191-15.661c50.326,0.678,58.612-48.701,97.005-87.106
		C372.137,270.188,428.657,278.592,438.066,254.972z"/>
	<path style="fill:#189E5E;" d="M255.977,376.438l0.012,0.012c-21.154,9.128-43.921,14.504-67.202,15.649
		c-27.57,1.367-55.877-3.191-83.085-14.422C55.503,356.955,18.7,317.546,0,270.831c23.176-10.004,48.304-15.521,73.923-15.86
		c9.42,23.62,74.11,26.904,93.253,46.048C205.557,339.413,205.663,377.116,255.977,376.438z"/>
</g>
<path style="fill:#22B573;" d="M451.833,180.628c-25.081-0.339-50.197,4.184-73.864,13.569
	c-23.047,9.093-44.692,22.825-63.533,41.186c-0.351-26.11-5.867-50.957-15.591-73.584c-10.11-23.538-24.766-44.681-42.858-62.294
	c-18.092,17.613-32.736,38.744-42.846,62.282c-9.724,22.627-15.24,47.486-15.591,73.595c-0.012,0.865-0.012,1.73-0.012,2.595l0,0
	l0,0c-0.865,0,0-1.73,0.012-2.595c-6.72-6.545-13.791-12.505-21.154-17.858c-13.289-9.701-27.535-17.473-42.378-23.328
	c-23.655-9.385-48.771-13.908-73.852-13.569c-0.339,25.245,4.243,50.536,13.756,74.343c9.42,23.62,23.679,45.756,42.823,64.9
	c32.444,32.456,73.584,50.957,115.927,55.48c7.737,0.83,15.521,1.192,23.305,1.087l0,0h0.012H256
	c50.326,0.678,100.862-18.162,139.255-56.567c19.132-19.144,33.402-41.28,42.811-64.9
	C447.579,231.164,452.161,205.873,451.833,180.628z"/>
<g>
	<path style="fill:#189E5E;" d="M255.977,376.438c-7.784,0.105-15.568-0.257-23.305-1.087
		c-35.401-35.027-57.338-83.635-57.338-137.373c0-0.865,0-1.73,0.012-2.595c0.082-6.019,0.432-11.98,1.052-17.858
		c7.363,5.353,14.434,11.313,21.154,17.858c-0.012,0.865-0.012,1.73-0.012,2.595C197.54,292.266,219.933,341.329,255.977,376.438z"
		/>
	<path style="fill:#189E5E;" d="M255.977,376.438c7.784,0.105,15.568-0.257,23.305-1.087
		c35.401-35.027,57.338-83.635,57.338-137.373c0-0.865,0-1.73-0.012-2.595c-0.082-6.019-0.432-11.98-1.052-17.858
		c-7.363,5.353-14.434,11.313-21.154,17.858c0.012,0.865,0.012,1.73,0.012,2.595C314.413,292.266,292.02,341.329,255.977,376.438z"
		/>
</g>
<g>
</g>
<g>
</g>
<g>
</g>
<g>
</g>
<g>
</g>
<g>
</g>
<g>
</g>
<g>
</g>
<g>
</g>
<g>
</g>
<g>
</g>
<g>
</g>
<g>
</g>
<g>
</g>
<g>
</g>
</svg>
