<?xml version="1.0" encoding="iso-8859-1"?>
<!-- Generator: Adobe Illustrator 19.0.0, SVG Export Plug-In . SVG Version: 6.00 Build 0)  -->
<svg version="1.1" id="Layer_1" xmlns="http://www.w3.org/2000/svg" xmlns:xlink="http://www.w3.org/1999/xlink" x="0px" y="0px"
	 viewBox="0 0 512 512" style="enable-background:new 0 0 512 512;" xml:space="preserve">
<g>
	<path style="fill:#995C0D;" d="M167.331,26.03h1.914c-1.225,2.52,32.075,15.796,32.075,18.875l-22.984,76.878
		c-15.764,0-39.537-51.468-39.537-67.22c0-7.882,3.186-15.015,8.357-20.174C152.316,29.216,159.449,26.03,167.331,26.03z"/>
	<path style="fill:#995C0D;" d="M373.2,54.562c0,7.87-3.198,27.177-8.357,32.348c-4.304,4.304-1.066,11.837-7.391,12.681
		c-10.905,38.17-62.422-51.702-74.5-57.064l11.369-15.851c0-1.011,32.17,0.306,32.027-0.646h18.32
		C360.432,26.03,373.2,38.798,373.2,54.562z"/>
</g>
<path style="fill:#DD2B44;" d="M224.303,185.004l-47.553,60.234l-54.686,3.962c-7.299,0-4.295-34.056-9.074-38.835
	c-4.779-4.779-7.739-27.149-7.739-34.449c0-14.587,11.829-26.428,26.428-26.428h7.121L224.303,185.004z"/>
<path style="fill:#FCC854;" d="M348.544,84.009c-1.272,0.19-2.556,0.273-3.876,0.273h-18.106h-52.261
	c1.545-19.152,17.583-34.214,37.127-34.214c5.385,0,10.509,1.141,15.134,3.21C338.641,58.64,347.332,70.255,348.544,84.009z"/>
<path style="fill:#22B573;" d="M326.563,30.167v23.111c-4.625-2.069-9.748-3.21-15.134-3.21c-19.544,0-35.582,15.062-37.127,34.214
	h-2.485c-1.546-19.152-17.583-34.214-37.139-34.214c-19.544,0-35.582,15.062-37.127,34.214h-30.22V35.683
	c0-3.079,0.69-5.944,1.914-8.464c4.411-9.178,15.716-13.957,25.857-9.213l5.504,2.568c8.298,3.887,18.177,1.462,23.741-5.801
	l5.457-7.133c7.181-9.356,20.947-10.26,29.281-1.926l8.702,8.69c7.228,7.228,18.795,7.656,26.535,0.987
	c3.816-3.293,8.262-4.767,12.625-4.767c9.19,0,17.951,6.586,19.402,16.596C326.491,28.17,326.563,29.157,326.563,30.167z"/>
<path style="fill:#F7495B;" d="M271.817,84.283h-74.266c1.545-19.152,17.583-34.214,37.127-34.214
	C254.234,50.068,270.272,65.131,271.817,84.283z"/>
<path style="fill:#DD2B44;" d="M399.01,157.229c4.779,4.791,7.739,11.389,7.739,18.688c0,14.599-11.841,83.587-26.44,83.587
	l-43.464,21.399l6.34-105.41l30.014-26.003h7.109C387.609,149.49,394.219,152.45,399.01,157.229z"/>
<path style="fill:#B27214;" d="M373.2,54.562v167.875H138.799V54.562c0,15.752,12.768,28.532,28.532,28.532h177.338
	c1.32,0,2.604-0.083,3.876-0.273c6.325-0.844,11.995-3.78,16.299-8.084C370.003,69.565,373.2,62.432,373.2,54.562z"/>
<path style="fill:#995C0D;" d="M373.2,54.562V203.32l-46.293,19.116V83.094h17.761c1.32,0,2.604-0.083,3.876-0.273
	c6.325-0.844,11.995-3.78,16.299-8.084C370.003,69.565,373.2,62.432,373.2,54.562z"/>
<path style="fill:#F7495B;" d="M406.749,176.893V512H105.25V176.893c0,7.299,2.96,13.909,7.739,18.688
	c4.779,4.779,11.389,7.739,18.688,7.739H380.31C394.909,203.32,406.749,191.491,406.749,176.893z"/>
<g>
	<path style="fill:#DD2B44;" d="M406.749,175.918v335.107h-12.214l-40.879-46.103V202.345h26.654
		C394.909,202.345,406.749,190.517,406.749,175.918z"/>
	<polygon style="fill:#DD2B44;" points="291.245,464.921 157.026,464.921 117.466,511.024 394.534,511.024 354.975,464.921 
		317.992,464.921 	"/>
</g>
<g>
</g>
<g>
</g>
<g>
</g>
<g>
</g>
<g>
</g>
<g>
</g>
<g>
</g>
<g>
</g>
<g>
</g>
<g>
</g>
<g>
</g>
<g>
</g>
<g>
</g>
<g>
</g>
<g>
</g>
</svg>
