<?xml version="1.0" encoding="iso-8859-1"?>
<!-- Generator: Adobe Illustrator 19.0.0, SVG Export Plug-In . SVG Version: 6.00 Build 0)  -->
<svg version="1.1" id="Layer_1" xmlns="http://www.w3.org/2000/svg" xmlns:xlink="http://www.w3.org/1999/xlink" x="0px" y="0px"
	 viewBox="0 0 512 512" style="enable-background:new 0 0 512 512;" xml:space="preserve">
<path style="fill:#22B573;" d="M204.23,130.716c-1.61-0.23-3.258-0.345-4.931-0.345c-19.827,0-35.898,16.071-35.898,35.898v103.835
	c0,25.103,17.412,46.143,40.829,51.7v180.612h202.713V373.682V186.708v-66.187c0-55.967-45.389-101.356-101.356-101.356
	S204.23,64.554,204.23,120.521L204.23,130.716L204.23,130.716z"/>
<path style="fill:#189E5E;" d="M320.896,20.317c0.005-0.001,0.01-0.001,0.015-0.003c-1.479-0.224-2.974-0.405-4.475-0.565
	c-0.442-0.047-0.888-0.084-1.331-0.125c-1.141-0.105-2.283-0.193-3.426-0.261c-0.473-0.028-0.945-0.059-1.421-0.08
	c-1.544-0.07-3.097-0.118-4.659-0.118c-0.005,0-0.009,0-0.014,0c-0.001,0-0.001,0-0.001,0c-0.001,0-0.003,0-0.003,0
	c-0.004,0-0.006,0-0.009,0c-0.385,0-0.775,0.011-1.169,0.029c-55.423,0.634-100.18,45.753-100.18,101.327v9.857
	c-2.855-0.005-4.667-0.008-4.931-0.008c-19.827,0-35.898,16.071-35.898,35.898v103.835c0,25.103,17.412,46.143,40.829,51.7h2.172
	c-0.58,0.175-1.267,0.213-2.172,0v180.612h30.66V323.235l-16.323-3.056c-20.607-7.316-35.365-26.969-35.365-50.075V166.27
	c0-16.38,10.963-30.197,25.959-34.495c5.949,1.691,11.275,4.854,15.522,9.111c5.468,5.468,9.172,12.698,10.207,20.759v84.101
	c0,6.971,5.65,12.622,12.622,12.622l0,0V86.454c0-11.275,3.765-22.306,11.004-30.951c0.317-0.378,0.635-0.752,0.957-1.125
	c19.592-22.702,54.592-21.986,73.897,0.961c14.824,17.62,23.756,40.359,23.756,65.183v66.187v186.974v128.733h49.822V373.682
	V186.708v-66.187C406.943,69.759,369.602,27.701,320.896,20.317z"/>
<path style="fill:#138E50;" d="M405.665,186.708v186.974h2.44c29.344,0,53.131-23.774,53.131-53.118V216.729
	c0-19.827-16.071-35.898-35.885-35.898C418.083,180.832,411.312,182.991,405.665,186.708z"/>
<g>
	<path style="fill:#22B573;" d="M439.607,181.292l15.981-5.142l-5.142,15.983c-1.458,4.53-6.311,7.02-10.84,5.562
		s-7.02-6.311-5.562-10.84C434.922,184.126,437.079,182.123,439.607,181.292z"/>
	<path style="fill:#22B573;" d="M457.374,251.436l21.355-3.603l-13.619,16.837c-2.846,3.52-8.007,4.065-11.526,1.217
		s-4.065-8.007-1.217-11.526C453.671,252.749,455.477,251.758,457.374,251.436z"/>
	<path style="fill:#22B573;" d="M22.361,171.25c0.524,0,1.035,0.013,1.546,0.038h-2.772C21.544,171.263,21.952,171.25,22.361,171.25
		z"/>
</g>
<path style="fill:#B27214;" d="M481.284,512H136.361c-5.291,0-9.581-4.29-9.581-9.581s4.29-9.581,9.581-9.581h344.923
	c5.293,0,9.581,4.29,9.581,9.581S486.577,512,481.284,512z"/>
<g>
	<path style="fill:#138E50;" d="M339.206,24.578L356.09,5.11l-2.84,25.612c-0.488,4.407-4.457,7.583-8.863,7.095
		c-4.407-0.488-7.583-4.457-7.095-8.865C337.478,27.269,338.173,25.767,339.206,24.578z"/>
	<path style="fill:#138E50;" d="M224.089,58.978l-7.891-18.731l18.731,7.891c4.212,1.774,6.188,6.628,4.414,10.84
		s-6.628,6.188-10.84,4.414C226.437,62.522,224.9,60.89,224.089,58.978z"/>
	<path style="fill:#138E50;" d="M175.649,146.944l-25.236-7.665l25.236-7.665c4.234-1.285,8.707,1.104,9.993,5.337
		c1.285,4.234-1.104,8.707-5.337,9.993C178.726,147.424,177.118,147.392,175.649,146.944z"/>
	<path style="fill:#138E50;" d="M173.822,141.997l-8.355-22.336l20.225,12.634c3.792,2.368,4.945,7.362,2.577,11.154
		c-2.368,3.792-7.362,4.945-11.154,2.577C175.544,145.045,174.425,143.608,173.822,141.997z"/>
	<path style="fill:#138E50;" d="M160.853,255.062l-15.55-13.616l20.651-0.841c4.554-0.185,8.397,3.356,8.582,7.911
		c0.185,4.554-3.356,8.397-7.911,8.582C164.431,257.189,162.387,256.399,160.853,255.062z"/>
	<path style="fill:#138E50;" d="M314.956,22.26L317.765,0l12.141,18.869c2.437,3.788,1.343,8.834-2.445,11.271
		c-3.788,2.437-8.834,1.343-11.271-2.445C315.112,26.021,314.726,24.092,314.956,22.26z"/>
	<path style="fill:#138E50;" d="M328.859,113.227l14.456-17.415l-0.041,22.632c-0.008,4.499-3.663,8.14-8.162,8.131
		c-4.499-0.009-8.14-3.663-8.131-8.161C326.985,116.445,327.692,114.633,328.859,113.227z"/>
	<path style="fill:#138E50;" d="M298.882,134.911l0.998-25.047l13.773,20.943c2.443,3.715,1.412,8.707-2.303,11.15
		c-3.715,2.443-8.707,1.412-11.15-2.303C299.239,138.193,298.816,136.535,298.882,134.911z"/>
	<path style="fill:#138E50;" d="M338.528,290.343l15.007-23.347l-0.323,27.752c-0.051,4.405-3.664,7.933-8.067,7.882
		c-4.405-0.051-7.933-3.664-7.882-8.067C337.28,293.019,337.754,291.556,338.528,290.343z"/>
	<path style="fill:#138E50;" d="M316.289,299.58l0.198-22.364l14.25,17.238c2.871,3.474,2.383,8.615-1.09,11.487
		c-3.474,2.871-8.617,2.383-11.487-1.09C316.887,303.311,316.275,301.433,316.289,299.58z"/>
	<path style="fill:#138E50;" d="M242.97,418.103l-1.855-24.635l16.03,18.798c2.89,3.388,2.485,8.477-0.903,11.367
		c-3.388,2.89-8.477,2.485-11.367-0.903C243.721,421.376,243.093,419.751,242.97,418.103z"/>
	<path style="fill:#138E50;" d="M202.042,396.982l-17.136-13.096l21.508-1.598c4.516-0.336,8.449,3.053,8.785,7.57
		c0.336,4.516-3.054,8.449-7.57,8.785C205.549,398.799,203.58,398.154,202.042,396.982z"/>
</g>
<g>
</g>
<g>
</g>
<g>
</g>
<g>
</g>
<g>
</g>
<g>
</g>
<g>
</g>
<g>
</g>
<g>
</g>
<g>
</g>
<g>
</g>
<g>
</g>
<g>
</g>
<g>
</g>
<g>
</g>
</svg>
