<?xml version="1.0" encoding="iso-8859-1"?>
<!-- Generator: Adobe Illustrator 19.0.0, SVG Export Plug-In . SVG Version: 6.00 Build 0)  -->
<svg version="1.1" id="Layer_1" xmlns="http://www.w3.org/2000/svg" xmlns:xlink="http://www.w3.org/1999/xlink" x="0px" y="0px"
	 viewBox="0 0 512 512" style="enable-background:new 0 0 512 512;" xml:space="preserve">
<path style="fill:#138E50;" d="M361.401,336.104v51.607c0,20.012-16.227,36.238-36.238,36.238h-9.686V312.01
	c4.734-3.282,10.463-5.192,16.638-5.192c8.085,0,15.415,3.282,20.709,8.576C358.13,320.7,361.401,328.008,361.401,336.104z"/>
<path style="fill:#22B573;" d="M186.827,266.28v-42.425h139.795v88.154v111.939v79.475H186.827V401.936
	c-20.766-2.584-36.833-20.309-36.833-41.784v-59.966c0-9.388,3.808-17.896,9.971-24.06c6.152-6.164,14.66-9.971,24.06-9.971
	C184.975,266.154,185.901,266.189,186.827,266.28z"/>
<g>
	<path style="fill:#189E5E;" d="M326.623,225.434H213.277v-1.578h-26.45v1.578v21.727v19.12c-0.926-0.091-1.852-0.126-2.802-0.126
		c-9.4,0-17.908,3.808-24.06,9.971c-6.164,6.164-9.971,14.671-9.971,24.06v59.966c0,21.475,16.066,39.2,36.833,41.784v101.487h26.45
		V402.268l-2.816-0.332c-20.766-2.584-36.833-20.309-36.833-41.784v-59.966c0-9.388,3.808-17.896,9.971-24.06l0.103-0.103
		c6.562-6.544,17.209-6.785,23.892-0.365c0.082,0.079,0.165,0.159,0.247,0.239c3.562,3.491,5.437,8.357,5.437,13.345v59.12
		c0,5.052,4.096,9.148,9.148,9.148v-110.35h104.198v-21.727H326.623z"/>
	<rect x="297.899" y="223.856" style="fill:#189E5E;" width="28.725" height="279.568"/>
</g>
<path style="fill:#995C0D;" d="M404.725,512H125.706c-4.738,0-8.576-3.84-8.576-8.576c0-4.736,3.839-8.576,8.576-8.576h279.019
	c4.738,0,8.576,3.84,8.576,8.576C413.302,508.16,409.462,512,404.725,512z"/>
<path style="fill:#F7495B;" d="M330.751,117.222v0.011h-148.04v-0.011C195.015,48.279,223.523,0,256.719,0
	C289.927,0,318.447,48.279,330.751,117.222z"/>
<path style="fill:#DD2B44;" d="M256.719,0c19.486,0.011,36.219,48.287,43.438,117.222v0.011h30.582v-0.011
	C318.436,48.287,289.923,0.011,256.719,0z"/>
<path style="fill:#FCC854;" d="M424.382,115.518l-11.355,52.499c-7.479,34.58-38.068,59.269-73.46,59.269h-12.945H186.827h-12.945
	c-35.381,0-65.981-24.689-73.46-59.269l-11.355-52.499h93.643h148.04C330.751,115.518,424.382,115.518,424.382,115.518z"/>
<path style="fill:#F9BC43;" d="M358.204,115.518l-11.355,52.499c-7.479,34.58-38.068,59.269-73.46,59.269h53.233h12.945
	c35.392,0,65.981-24.689,73.46-59.269l11.355-52.499C424.382,115.518,358.204,115.518,358.204,115.518z"/>
<path style="fill:#F7495B;" d="M417.099,151.809H94.479c-3.788,0-6.861-3.073-6.861-6.861c0-3.788,3.073-6.861,6.861-6.861h322.62
	c3.788,0,6.861,3.073,6.861,6.861C423.96,148.737,420.889,151.809,417.099,151.809z"/>
<g>
</g>
<g>
</g>
<g>
</g>
<g>
</g>
<g>
</g>
<g>
</g>
<g>
</g>
<g>
</g>
<g>
</g>
<g>
</g>
<g>
</g>
<g>
</g>
<g>
</g>
<g>
</g>
<g>
</g>
</svg>
