<?xml version="1.0" encoding="iso-8859-1"?>
<!-- Generator: Adobe Illustrator 19.0.0, SVG Export Plug-In . SVG Version: 6.00 Build 0)  -->
<svg version="1.1" id="Layer_1" xmlns="http://www.w3.org/2000/svg" xmlns:xlink="http://www.w3.org/1999/xlink" x="0px" y="0px"
	 viewBox="0 0 512 512" style="enable-background:new 0 0 512 512;" xml:space="preserve">
<path style="fill:#B27214;" d="M256,140.141c-4.903,0-8.879-3.975-8.879-8.879V107.76c0-4.903,3.975-8.879,8.879-8.879
	c4.903,0,8.879,3.975,8.879,8.879v23.502C264.879,136.165,260.903,140.141,256,140.141z"/>
<path style="fill:#F7495B;" d="M281.846,25.854c7.138,7.138,10.713,16.49,10.713,25.843c0,9.364-3.575,18.716-10.713,25.854
	c-7.138,7.138-16.49,10.702-25.843,10.702c-9.364,0-18.716-3.563-25.854-10.702c-14.277-14.277-14.277-37.42,0-51.697L256.004,0
	L281.846,25.854z"/>
<path style="fill:#FCC854;" d="M353.928,160.749v67.134H158.079V160.75c0-16.289,13.199-29.489,29.489-29.489H324.44
	C340.729,131.261,353.928,144.46,353.928,160.749z"/>
<path style="fill:#F9BC43;" d="M324.44,131.261h-25.415c10.24,0,18.537,13.199,18.537,29.489v67.134h36.367V160.75
	C353.928,144.46,340.729,131.261,324.44,131.261z"/>
<g>
	<polygon style="fill:#CCCCCC;" points="127.372,512 127.371,511.996 127.348,511.996 	"/>
	<path style="fill:#CCCCCC;" d="M445.093,230.405v148.852c0,18.325-5.86,35.277-15.828,49.093
		c-9.944,13.815-23.996,24.481-40.356,30.234v19.829c0,11.613-1.48,22.871-4.262,33.585H127.371
		c-2.794-10.725-4.285-21.971-4.285-33.585v-19.829c-32.72-11.507-56.184-42.676-56.184-79.327V230.405
		c0-1.444,0.024-2.865,0.059-4.297h378.085C445.07,227.54,445.093,228.961,445.093,230.405z"/>
</g>
<g>
	<polygon style="fill:#B3B3B3;" points="127.348,512 127.347,511.996 127.325,511.996 	"/>
	<polygon style="fill:#B3B3B3;" points="384.629,512 384.629,511.996 384.653,511.996 	"/>
	<path style="fill:#B3B3B3;" d="M344.38,511.996h40.25c2.794-10.725,4.285-21.971,4.285-33.585v-19.829
		c32.72-11.507,56.184-42.676,56.184-79.327V230.404c0-1.444-0.024-2.865-0.059-4.297h-40.25c0.036,1.432,0.059,2.853,0.059,4.297
		v148.852c0,36.651-23.463,67.82-56.184,79.327v19.829C348.665,490.025,347.173,501.271,344.38,511.996z"/>
	<path style="fill:#B3B3B3;" d="M264.87,493.424v18.574h-17.757v-18.574c0-4.901,3.978-8.879,8.879-8.879
		S264.87,488.523,264.87,493.424z"/>
	<path style="fill:#B3B3B3;" d="M222.821,493.424v18.574h-17.757v-18.574c0-4.901,3.978-8.879,8.879-8.879
		C218.856,484.545,222.821,488.523,222.821,493.424z"/>
	<path style="fill:#B3B3B3;" d="M180.784,493.424v18.574h-17.757v-18.574c0-4.901,3.978-8.879,8.879-8.879
		C176.807,484.545,180.784,488.523,180.784,493.424z"/>
	<path style="fill:#B3B3B3;" d="M289.162,511.998v-18.574c0-4.901,3.978-8.879,8.879-8.879s8.879,3.978,8.879,8.879v18.574H289.162z
		"/>
	<path style="fill:#B3B3B3;" d="M348.968,493.424v18.574h-17.757v-18.574c0-4.901,3.966-8.879,8.879-8.879
		C344.991,484.545,348.968,488.523,348.968,493.424z"/>
	<path style="fill:#B3B3B3;" d="M240.081,450.487c-9.046,0-17.563-3.527-23.985-9.932c-13.243-13.243-13.243-34.773-0.012-48.006
		l0.384-0.371l39.536-39.536l39.536,39.536l0.372,0.36c6.419,6.402,9.955,14.928,9.955,24.009c0,9.081-3.535,17.607-9.955,24.009
		c-6.397,6.398-14.921,9.927-23.985,9.927c-5.646,0-11.08-1.368-15.926-3.949C251.152,449.117,245.72,450.487,240.081,450.487z"/>
</g>
<path style="fill:#666666;" d="M287.552,400.921c4.321,4.309,6.475,9.968,6.475,15.626s-2.155,11.317-6.475,15.626
	c-8.63,8.63-22.623,8.63-31.253,0l-0.296-0.284l-0.296,0.284c-4.321,4.309-9.968,6.475-15.626,6.475
	c-5.659,0-11.305-2.166-15.626-6.475c-8.63-8.63-8.63-22.623,0-31.253l0.296-0.284l31.253-31.253l31.253,31.253L287.552,400.921z"/>
<path style="fill:#B3B3B3;" d="M351.514,397.701c-30.607,0-55.509-24.907-55.509-55.521c0-30.607,24.901-55.509,55.509-55.509
	s55.509,24.901,55.509,55.509C407.022,372.795,382.122,397.701,351.514,397.701z"/>
<path style="fill:#666666;" d="M351.513,298.509c24.126,0,43.671,19.557,43.671,43.671c0,24.126-19.545,43.683-43.671,43.683
	s-43.671-19.557-43.671-43.683C307.843,318.066,327.387,298.509,351.513,298.509z"/>
<path style="fill:#B3B3B3;" d="M160.494,397.701c-30.607,0-55.509-24.907-55.509-55.521c0-30.607,24.901-55.509,55.509-55.509
	c30.614,0,55.521,24.901,55.521,55.509C216.016,372.795,191.108,397.701,160.494,397.701z"/>
<path style="fill:#666666;" d="M160.494,298.509c24.126,0,43.683,19.557,43.683,43.671c0,24.126-19.557,43.683-43.683,43.683
	c-24.114,0-43.671-19.557-43.671-43.683C116.823,318.066,136.38,298.509,160.494,298.509z"/>
<g>
</g>
<g>
</g>
<g>
</g>
<g>
</g>
<g>
</g>
<g>
</g>
<g>
</g>
<g>
</g>
<g>
</g>
<g>
</g>
<g>
</g>
<g>
</g>
<g>
</g>
<g>
</g>
<g>
</g>
</svg>
