<?xml version="1.0" encoding="iso-8859-1"?>
<!-- Generator: Adobe Illustrator 19.0.0, SVG Export Plug-In . SVG Version: 6.00 Build 0)  -->
<svg version="1.1" id="Layer_1" xmlns="http://www.w3.org/2000/svg" xmlns:xlink="http://www.w3.org/1999/xlink" x="0px" y="0px"
	 viewBox="0 0 512 512" style="enable-background:new 0 0 512 512;" xml:space="preserve">
<path style="fill:#F7495B;" d="M373.471,212.887v265.478c0,18.575-15.059,33.633-33.633,33.633H172.162
	c-18.575,0-33.633-15.059-33.633-33.633V212.888c0-10.523,2.877-20.628,8.064-29.368c5.175-8.728,12.674-16.091,21.918-21.144
	c18.476-10.08,29.97-29.454,29.97-50.512V65.102h115.037v46.762c0,10.523,2.877,20.64,8.052,29.368
	c5.188,8.74,12.686,16.104,21.918,21.144C361.977,172.468,373.471,191.842,373.471,212.887z"/>
<path style="fill:#DD2B44;" d="M343.485,162.377c-9.232-5.04-16.731-12.404-21.918-21.144c-5.175-8.728-8.052-18.845-8.052-29.368
	V65.103h-42.408v46.762c0,10.523,2.877,20.64,8.052,29.368c5.188,8.74,12.686,16.104,21.918,21.144
	c18.489,10.092,29.982,29.466,29.982,50.512v265.478c0,18.575-15.059,33.633-33.633,33.633h42.408
	c18.575,0,33.633-15.059,33.633-33.633V212.889C373.467,191.843,361.974,172.47,343.485,162.377z"/>
<rect x="138.529" y="212.889" style="fill:#22B573;" width="234.942" height="248.415"/>
<rect x="164.344" y="212.889" style="fill:#79D8AA;" width="29.503" height="248.415"/>
<rect x="331.061" y="212.889" style="fill:#189E5E;" width="42.411" height="248.415"/>
<rect x="192.423" y="268.944" transform="matrix(-0.7071 -0.7071 0.7071 -0.7071 201.8864 748.6564)" style="fill:#F7495B;" width="127.144" height="127.144"/>
<path style="fill:#189E5E;" d="M255.996,433.727L154.792,332.523L255.996,231.32L357.2,332.523L255.996,433.727z M177.393,332.523
	l78.603,78.603l78.603-78.603l-78.603-78.603L177.393,332.523z"/>
<path style="fill:#FCC854;" d="M272.474,306.739c-3.384-3.586-7.689-5.898-12.359-6.746v-6.192c0-3.394-2.751-6.146-6.146-6.146
	c-3.395,0-6.146,2.752-6.146,6.146v7.359c-4.59,1.766-8.505,4.988-11.144,9.297c-3.612,5.899-4.328,13.006-1.968,19.5
	c3.871,10.644,8.043,26.291,5.93,40.379c-0.401,2.666,0.985,5.282,3.414,6.451c0.851,0.409,1.76,0.607,2.661,0.607
	c1.673,0,3.318-0.682,4.509-1.967c0.92-0.991,22.557-24.553,27.049-49.124C279.58,319.157,277.466,312.027,272.474,306.739z
	 M266.181,324.092c-1.905,10.423-7.769,21.028-13.22,29.095c-1.153-10.273-3.985-19.976-6.697-27.433
	c-1.074-2.955-0.747-6.191,0.897-8.879c1.657-2.706,4.413-4.481,7.561-4.872c3.313-0.408,6.521,0.747,8.812,3.174
	C265.811,317.589,266.777,320.839,266.181,324.092z"/>
<path style="fill:#22B573;" d="M307.257,0H204.735c-9.659,0-17.488,7.829-17.488,17.488v49.458h137.498V17.488
	C324.744,7.829,316.915,0,307.257,0z"/>
<path style="fill:#189E5E;" d="M307.257,0h-25.98v66.945h43.467V17.488C324.744,7.829,316.915,0,307.257,0z"/>
<g>
</g>
<g>
</g>
<g>
</g>
<g>
</g>
<g>
</g>
<g>
</g>
<g>
</g>
<g>
</g>
<g>
</g>
<g>
</g>
<g>
</g>
<g>
</g>
<g>
</g>
<g>
</g>
<g>
</g>
</svg>
