<?xml version="1.0" encoding="iso-8859-1"?>
<!-- Generator: Adobe Illustrator 19.0.0, SVG Export Plug-In . SVG Version: 6.00 Build 0)  -->
<svg version="1.1" id="Layer_1" xmlns="http://www.w3.org/2000/svg" xmlns:xlink="http://www.w3.org/1999/xlink" x="0px" y="0px"
	 viewBox="0 0 512.001 512.001" style="enable-background:new 0 0 512.001 512.001;" xml:space="preserve">
<path style="fill:#22B573;" d="M53.658,131.363c-4.478-4.252-13.559-13.436-22.748-26.075C4.26,68.636,21.982,16.59,65.32,3.348l0,0
	c-9.649,60.347,5.997,86.35,15.767,107.118"/>
<path style="fill:#F7495B;" d="M174.636,102.787L174.636,102.787C45.721,102.735-26.959,251.261,52.546,352.741
	c10.063,12.846,21.011,25.223,32.84,37.053c111.12,111.121,270.651,144.327,410.706,99.619c18.555-5.924,21.684-30.808,5.109-41.04
	c-85.07-52.516-149.295-135.557-177.378-233.852C304.866,148.168,243.645,102.814,174.636,102.787z"/>
<path style="fill:#DD2B44;" d="M501.201,448.374c-85.07-52.516-149.295-135.557-177.378-233.852
	c-18.957-66.354-80.178-111.708-149.187-111.735l0,0c-6.316-0.003-12.492,0.364-18.527,1.051
	c57.722,14.63,61.849,82.328,81.573,140.562C296.879,419.17,407.564,390.569,501.201,448.374
	C506.867,451.871,501.201,448.374,501.201,448.374z"/>
<path style="fill:#22B573;" d="M223.971,97.146c-33.813,13.474-37.336,51.036-37.336,51.036
	c-90.81-17.237-107.4,61.691-107.4,61.691c-48.598,0-69.457,33.094-78.266,57.858c-10.063-90.81,59.239-181.917,163.03-181.889
	C184.958,85.857,205.241,89.817,223.971,97.146z"/>
<path style="fill:#189E5E;" d="M183.473,87c-6.407-0.761-12.908-1.154-19.474-1.159C60.208,85.813-9.095,176.92,0.969,267.73
	c6.183-17.383,18.32-38.853,41.803-50.118C56.174,151.944,109.342,95.644,183.473,87z"/>
<g>
</g>
<g>
</g>
<g>
</g>
<g>
</g>
<g>
</g>
<g>
</g>
<g>
</g>
<g>
</g>
<g>
</g>
<g>
</g>
<g>
</g>
<g>
</g>
<g>
</g>
<g>
</g>
<g>
</g>
</svg>
