<?xml version="1.0" encoding="iso-8859-1"?>
<!-- Generator: Adobe Illustrator 19.0.0, SVG Export Plug-In . SVG Version: 6.00 Build 0)  -->
<svg version="1.1" id="Layer_1" xmlns="http://www.w3.org/2000/svg" xmlns:xlink="http://www.w3.org/1999/xlink" x="0px" y="0px"
	 viewBox="0 0 512.002 512.002" style="enable-background:new 0 0 512.002 512.002;" xml:space="preserve">
<path style="fill:#E6E6E6;" d="M484.075,174.459H308.051c-15.422,0-27.926-12.502-27.926-27.926l0,0
	c0-15.422,12.502-27.926,27.926-27.926h82.218c15.422,0,27.926-12.502,27.926-27.926l0,0c0-15.422-12.502-27.926-27.926-27.926
	H250.595c-15.422,0-27.926,12.502-27.926,27.926l0,0c0,15.422-12.502,27.926-27.926,27.926H99.76
	c-15.422,0-27.926,12.502-27.926,27.926l0,0c0,15.422,12.502,27.926,27.926,27.926h94.984c15.422,0,27.926,12.502,27.926,27.926l0,0
	c0,15.422,12.502,27.926,27.926,27.926h134.398c12.975,0,25.051,6.625,32.023,17.566l15.767,24.745l13.865-23.584
	c6.821-11.603,19.275-18.727,32.734-18.727h4.694c15.422,0,27.926-12.502,27.926-27.926l0,0
	C512,186.961,499.498,174.459,484.075,174.459z"/>
<path style="fill:#B27214;" d="M500.994,364.029c0,3.825-0.745,7.594-2.178,11.284c-1.805,4.638-4.705,9.162-8.632,13.54
	c-17.501,19.588-55.188,36.198-104.836,47.008c-0.011,0-0.011,0-0.011,0c-9.614,2.099-19.69,3.972-30.15,5.608
	c-31.854,4.987-67.307,7.774-104.689,7.774h-0.903c-15.143-0.023-29.969-0.496-44.356-1.388
	c-92.627-5.755-167.471-28.83-194.428-59.002c-3.927-4.378-6.827-8.903-8.632-13.54c-1.433-3.69-2.178-7.458-2.178-11.284
	c0-31.075,48.858-58.257,121.874-73.152c5.518-1.117,11.16-2.178,16.948-3.159c33.625-5.71,71.549-8.914,111.674-8.914
	c2.065,0,4.119,0.011,6.161,0.023c5.743,0.045,11.442,0.158,17.083,0.339C401.19,283.16,500.994,319.617,500.994,364.029z"/>
<path style="fill:#BC7D2A;" d="M498.816,375.313c-16.226-41.738-121.22-73.942-248.319-73.942S18.405,333.575,2.179,375.313
	c1.805,4.638,4.705,9.162,8.632,13.54c31.233-34.957,126.726-60.401,239.687-60.401s208.454,25.445,239.687,60.401L498.816,375.313z
	"/>
<path style="fill:#995C0D;" d="M250.496,422.166c-124.799,0-228.269-31.05-247.337-71.68C1.09,354.895,0,359.417,0,364.026
	c0,47.066,112.151,85.221,250.496,85.221s250.496-38.154,250.496-85.221c0-4.608-1.09-9.13-3.159-13.54
	C478.765,391.116,375.296,422.166,250.496,422.166z"/>
<path style="fill:#F7495B;" d="M419.097,300.999c50.314,15.583,81.897,38.048,81.897,63.03c0,24.971-31.583,47.436-81.897,63.019
	l0,0c-21.044-35.681-22.751-79.548-4.546-116.758L419.097,300.999z"/>
<g>
	<path style="fill:#995C0D;" d="M249.595,449.243c-15.143-0.023-29.969-0.496-44.356-1.388
		c-40.034-24.091-60.367-59.137-70.669-87.493c-10.979-30.218-12.593-57.467-12.694-69.485c5.518-1.117,11.16-2.178,16.948-3.159
		c-0.113,8.147,0.474,36.412,11.859,67.42C168.014,402.371,201.29,434.01,249.595,449.243z"/>
	<path style="fill:#995C0D;" d="M385.337,435.861c-9.614,2.099-19.69,3.972-30.15,5.608c-35.182-18.471-62.669-49.953-80.328-92.39
		c-13.033-31.312-17.072-59.532-18.201-70.252c5.743,0.045,11.442,0.158,17.083,0.339c1.354,11.114,5.461,36.491,16.937,63.877
		C310.662,390.726,342.504,421.959,385.337,435.861z"/>
</g>
<g>
</g>
<g>
</g>
<g>
</g>
<g>
</g>
<g>
</g>
<g>
</g>
<g>
</g>
<g>
</g>
<g>
</g>
<g>
</g>
<g>
</g>
<g>
</g>
<g>
</g>
<g>
</g>
<g>
</g>
</svg>
