<?xml version="1.0" encoding="iso-8859-1"?>
<!-- Generator: Adobe Illustrator 19.0.0, SVG Export Plug-In . SVG Version: 6.00 Build 0)  -->
<svg version="1.1" id="Layer_1" xmlns="http://www.w3.org/2000/svg" xmlns:xlink="http://www.w3.org/1999/xlink" x="0px" y="0px"
	 viewBox="0 0 512 512" style="enable-background:new 0 0 512 512;" xml:space="preserve">
<rect x="238.058" y="202.141" style="fill:#FCC854;" width="35.906" height="309.858"/>
<rect x="256" y="202.141" style="fill:#F9BC43;" width="17.953" height="309.858"/>
<path style="fill:#CCCCCC;" d="M282.015,161.102v52.166h-8.057h-35.906h-8.057v-52.166c8.271,1.004,16.994,1.456,26.01,1.456
	C265.022,162.557,273.744,162.106,282.015,161.102z"/>
<path style="fill:#999999;" d="M259.387,144.266v69.002h3.504h15.616h3.504v-69.002c-3.597,1.328-7.391,1.925-11.312,1.925
	C266.778,146.191,262.985,145.594,259.387,144.266z"/>
<path style="fill:#CCCCCC;" d="M256.006,0c52.425,0,94.921,42.507,94.921,94.932c0,43.41-29.135,61.295-68.911,66.169
	c-8.271,1.004-16.994,1.456-26.01,1.456c-9.016,0-17.738-0.451-26.01-1.456c-39.787-4.875-68.923-22.76-68.923-66.169
	C161.073,42.507,203.569,0,256.006,0z"/>
<path style="fill:#E6E6E6;" d="M350.927,94.932c0,6.217-0.598,11.905-1.749,17.118c-8.508-43.703-46.998-76.675-93.172-76.675
	c-46.185,0-84.675,32.983-93.183,76.697c-1.151-5.213-1.749-10.912-1.749-17.14C161.073,42.507,203.569,0,256.006,0
	C308.431,0,350.927,42.507,350.927,94.932z"/>
<g>
</g>
<g>
</g>
<g>
</g>
<g>
</g>
<g>
</g>
<g>
</g>
<g>
</g>
<g>
</g>
<g>
</g>
<g>
</g>
<g>
</g>
<g>
</g>
<g>
</g>
<g>
</g>
<g>
</g>
</svg>
