<?xml version="1.0" encoding="iso-8859-1"?>
<!-- Generator: Adobe Illustrator 19.0.0, SVG Export Plug-In . SVG Version: 6.00 Build 0)  -->
<svg version="1.1" id="Layer_1" xmlns="http://www.w3.org/2000/svg" xmlns:xlink="http://www.w3.org/1999/xlink" x="0px" y="0px"
	 viewBox="0 0 512.001 512.001" style="enable-background:new 0 0 512.001 512.001;" xml:space="preserve">
<path style="fill:#F7495B;" d="M512.001,256.001c0-33.851-39.262-62.038-91.249-68.243c32.372-41.147,40.204-88.841,16.268-112.777
	c-23.936-23.936-71.63-16.105-112.777,16.268C318.039,39.262,289.851,0,256.001,0s-62.038,39.262-68.243,91.249
	C146.611,58.877,98.918,51.045,74.981,74.982s-16.105,71.63,16.268,112.777c-51.986,6.204-91.248,34.39-91.248,68.241
	s39.262,62.038,91.249,68.243c-32.372,41.147-40.204,88.841-16.268,112.777c23.936,23.936,71.63,16.104,112.777-16.269
	c6.205,51.987,34.391,91.249,68.243,91.249s62.038-39.262,68.243-91.249c41.147,32.372,88.841,40.204,112.777,16.269
	c23.936-23.937,16.105-71.63-16.268-112.777C472.738,318.038,512.001,289.85,512.001,256.001z"/>
<path style="fill:#DD2B44;" d="M436.534,163.72c-13.134-16.251-35.291-25.677-62.272-25.914c-0.2-26.505-9.412-48.993-25.968-62.347
	c-8.116,4.339-16.202,9.614-24.052,15.789c-1.182-9.905-3.168-19.343-5.832-28.14c-2.042-0.214-4.104-0.331-6.187-0.331
	c-19.446,0-39.34,9.515-56.209,26.072c-16.871-16.564-36.766-26.081-56.215-26.081c-2.09,0-4.158,0.118-6.206,0.334
	c-2.667,8.799-4.651,18.239-5.834,28.146c-7.846-6.174-15.933-11.448-24.045-15.786c-16.545,13.354-25.752,35.832-25.956,62.325
	c-26.993,0.233-49.159,9.665-62.294,25.926c4.338,8.112,9.613,16.197,15.785,24.044c-9.914,1.183-19.36,3.171-28.165,5.84
	c-2.254,21.129,7.117,43.519,25.684,62.39c-18.578,18.876-27.953,41.275-25.69,62.412c8.806,2.67,18.255,4.658,28.172,5.843
	c-6.172,7.845-11.444,15.928-15.782,24.038c13.134,16.251,35.292,25.677,62.272,25.914c0.2,26.505,9.411,48.993,25.968,62.346
	c8.115-4.339,16.202-9.614,24.052-15.789c1.182,9.905,3.168,19.343,5.832,28.14c2.041,0.214,4.102,0.331,6.187,0.331
	c19.447,0,39.34-9.513,56.211-26.074c16.87,16.564,36.765,26.081,56.215,26.081c2.09,0,4.158-0.119,6.205-0.334
	c2.667-8.8,4.652-18.239,5.834-28.146c7.847,6.173,15.933,11.448,24.045,15.786c16.545-13.354,25.753-35.831,25.956-62.325
	c26.991-0.235,49.158-9.667,62.293-25.928c-4.339-8.112-9.613-16.196-15.785-24.043c9.914-1.183,19.36-3.171,28.165-5.84
	c2.254-21.129-7.116-43.519-25.683-62.389c18.581-18.877,27.955-41.275,25.69-62.413c-8.806-2.67-18.256-4.658-28.172-5.843
	C426.924,179.913,432.196,171.83,436.534,163.72z"/>
<path style="fill:#F7495B;" d="M420.757,187.77c-9.022-21.786-41.803-29.462-76.914-19.599c9.868-35.11,2.196-67.891-19.588-76.917
	s-50.392,8.726-68.245,40.527c-17.848-31.803-46.453-49.56-68.239-40.538s-29.462,41.803-19.599,76.914
	c-35.11-9.868-67.891-2.196-76.917,19.588s8.726,50.392,40.527,68.245c-31.803,17.848-49.56,46.453-40.538,68.239
	c9.022,21.786,41.803,29.461,76.914,19.599c-9.868,35.11-2.196,67.891,19.588,76.917s50.392-8.726,68.245-40.527
	c17.848,31.803,46.453,49.56,68.239,40.538c21.786-9.022,29.462-41.803,19.599-76.914c35.11,9.868,67.892,2.196,76.917-19.587
	c9.025-21.785-8.726-50.392-40.527-68.246C412.024,238.161,429.779,209.556,420.757,187.77z"/>
<path style="fill:#DD2B44;" d="M394.992,265.845c-4.491-3.525-9.427-6.834-14.772-9.836c5.346-3,10.285-6.311,14.776-9.835
	c-3.205-14.715-13.538-27.368-28.681-35.868c4.695-16.711,3.059-32.958-5.072-45.626c-5.668,0.683-11.499,1.834-17.399,3.491
	c1.656-5.892,2.807-11.715,3.491-17.374c-7.858-5.002-17.326-7.693-27.483-7.693c-5.94,0-12.04,0.886-18.147,2.6
	c-8.496-15.144-21.146-25.483-35.858-28.694c-3.525,4.491-6.834,9.427-9.835,14.772c-3-5.346-6.311-10.284-9.835-14.776
	c-14.721,3.206-27.379,13.546-35.879,28.697c-6.107-1.714-12.205-2.6-18.147-2.6c-10.151,0-19.611,2.688-27.467,7.684
	c0.684,5.658,1.833,11.481,3.488,17.371c-5.902-1.658-11.734-2.81-17.403-3.494c-8.14,12.671-9.78,28.925-5.084,45.643
	c-15.136,8.496-25.467,21.142-28.676,35.849c4.491,3.525,9.427,6.834,14.772,9.835c-5.346,3-10.284,6.309-14.776,9.835
	c3.205,14.716,13.538,27.369,28.68,35.869c-4.695,16.711-3.058,32.958,5.072,45.626c5.668-0.683,11.5-1.833,17.401-3.491
	c-1.656,5.892-2.807,11.715-3.491,17.376c7.858,5.002,17.325,7.693,27.482,7.693c5.941,0,12.04-0.886,18.147-2.6
	c8.496,15.144,21.146,25.482,35.86,28.694c3.525-4.491,6.834-9.427,9.836-14.772c3,5.346,6.311,10.285,9.836,14.776
	c14.722-3.206,27.378-13.545,35.877-28.699c6.106,1.714,12.205,2.6,18.144,2.6c0.002,0,0.002,0,0.005,0
	c10.149,0,19.61-2.688,27.464-7.684c-0.684-5.658-1.833-11.481-3.488-17.372c5.902,1.658,11.734,2.81,17.402,3.494
	c8.14-12.672,9.78-28.925,5.084-45.643C381.451,293.199,391.782,280.553,394.992,265.845z"/>
<path style="fill:#F7495B;" d="M369.934,256.001c0-15.066-17.474-27.609-40.611-30.371c14.408-18.313,17.892-39.539,7.241-50.191
	c-10.653-10.653-31.879-7.167-50.191,7.241c-2.762-23.136-15.305-40.611-30.371-40.611c-15.066,0-27.609,17.474-30.371,40.611
	c-18.313-14.407-39.539-17.892-50.191-7.241c-10.653,10.653-7.167,31.879,7.241,50.191c-23.136,2.762-40.611,15.305-40.611,30.371
	c0,15.066,17.474,27.609,40.611,30.371c-14.407,18.313-17.892,39.539-7.241,50.192c10.653,10.653,31.879,7.167,50.191-7.241
	c2.762,23.136,15.305,40.611,30.371,40.611c15.065,0,27.609-17.474,30.371-40.611c18.313,14.407,39.539,17.894,50.191,7.241
	c10.653-10.653,7.167-31.879-7.241-50.192C352.46,283.61,369.934,271.066,369.934,256.001z"/>
<circle style="fill:#F9798D;" cx="255.998" cy="255.997" r="46.429"/>
<circle style="fill:#DD2B44;" cx="255.998" cy="255.997" r="24.925"/>
<g>
</g>
<g>
</g>
<g>
</g>
<g>
</g>
<g>
</g>
<g>
</g>
<g>
</g>
<g>
</g>
<g>
</g>
<g>
</g>
<g>
</g>
<g>
</g>
<g>
</g>
<g>
</g>
<g>
</g>
</svg>
