<?xml version="1.0" encoding="iso-8859-1"?>
<!-- Generator: Adobe Illustrator 19.0.0, SVG Export Plug-In . SVG Version: 6.00 Build 0)  -->
<svg version="1.1" id="Layer_1" xmlns="http://www.w3.org/2000/svg" xmlns:xlink="http://www.w3.org/1999/xlink" x="0px" y="0px"
	 viewBox="0 0 512 512" style="enable-background:new 0 0 512 512;" xml:space="preserve">
<path style="fill:#22B573;" d="M105.951,260.465c53.422,52.624,84.155,124.03,84.155,199.02l0,0h131.789l0,0
	c0-74.989,30.733-146.395,84.155-199.02c52.344-51.564,85.706-129.556,85.706-216.846H20.245
	C20.245,130.91,53.607,208.902,105.951,260.465z"/>
<path style="fill:#189E5E;" d="M413.527,43.62c0,87.29-25.933,165.282-66.622,216.846c-41.528,52.624-46.435,124.03-46.435,199.02
	h21.423c0-74.989,30.733-146.395,84.155-199.02c52.344-51.564,85.705-129.556,85.705-216.846
	C491.752,43.62,413.527,43.62,413.527,43.62z"/>
<path style="fill:#F7495B;" d="M491.755,43.615c0,14.254-0.888,28.252-2.611,41.941H22.852c-1.723-13.689-2.611-27.687-2.611-41.941
	H491.755z"/>
<path style="fill:#FCC854;" d="M348.984,512H163.016v-20.553c0-20.997,17.021-38.019,38.019-38.019h109.93
	c20.997,0,38.019,17.021,38.019,38.019V512H348.984z"/>
<path style="fill:#F9BC43;" d="M248.319,453.428h62.646c20.997,0,38.019,17.021,38.019,38.019V512h-62.646v-20.553
	C286.338,470.449,269.317,453.428,248.319,453.428z"/>
<path style="fill:#FCC854;" d="M472.445,0H39.555C21.241,0,6.395,14.846,6.395,33.16v12.479h499.21V33.16
	C505.605,14.846,490.759,0,472.445,0z"/>
<path style="fill:#F9BC43;" d="M472.445,0h-83.198c18.314,0,33.16,14.846,33.16,33.16v12.479h83.198V33.16
	C505.605,14.846,490.759,0,472.445,0z"/>
<g>
</g>
<g>
</g>
<g>
</g>
<g>
</g>
<g>
</g>
<g>
</g>
<g>
</g>
<g>
</g>
<g>
</g>
<g>
</g>
<g>
</g>
<g>
</g>
<g>
</g>
<g>
</g>
<g>
</g>
</svg>
