<?xml version="1.0" encoding="iso-8859-1"?>
<!-- Generator: Adobe Illustrator 19.0.0, SVG Export Plug-In . SVG Version: 6.00 Build 0)  -->
<svg version="1.1" id="Layer_1" xmlns="http://www.w3.org/2000/svg" xmlns:xlink="http://www.w3.org/1999/xlink" x="0px" y="0px"
	 viewBox="0 0 512.001 512.001" style="enable-background:new 0 0 512.001 512.001;" xml:space="preserve">
<path style="fill:#FCC854;" d="M364.856,356.527c19.258,16.386,30.776,37.192,30.776,59.836c0,52.815-62.64,95.637-139.906,95.637
	c-77.277,0-139.906-42.822-139.906-95.637c0-22.645,11.507-43.45,30.765-59.836c16.005-13.627,19.213-36.799,8.726-55.014
	c-4.812-8.356-7.447-17.463-7.447-26.985c0-32.111,30.036-59.433,71.972-69.538h71.781c41.925,10.105,71.961,37.427,71.961,69.538
	c0,9.522-2.636,18.629-7.447,26.985C345.643,319.728,348.851,342.9,364.856,356.527z"/>
<path style="fill:#F9BC43;" d="M372.629,416.362c0-22.645-11.507-43.45-30.765-59.836c-16.005-13.627-19.213-36.799-8.726-55.014
	c4.812-8.356,7.447-17.463,7.447-26.985c0-32.111-30.036-59.433-71.972-69.538h23.552c41.936,10.105,71.972,37.427,71.972,69.538
	c0,9.522-2.636,18.629-7.447,26.985c-10.487,18.214-7.279,41.386,8.726,55.014c19.258,16.386,30.765,37.192,30.765,59.836
	c0,52.815-62.629,95.637-139.906,95.637c-3.967,0-7.893-0.119-11.775-0.34C316.262,507.57,372.629,466.467,372.629,416.362z"/>
<g>
	<rect x="205.811" y="424.351" style="fill:#E6E6E6;" width="99.821" height="26.918"/>
	<path style="fill:#E6E6E6;" d="M291.617,204.99v95.951c-8.961-10.363-22.196,5.305-36.967,5.305
		c-13.627,0-25.953-16.633-34.814-7.638V204.99V94.469c23.935,4.116,47.847,4.105,71.781,0V204.99z"/>
</g>
<g>
	<rect x="219.831" y="119.281" style="fill:#B27214;" width="71.781" height="13.459"/>
	<rect x="219.831" y="161.531" style="fill:#B27214;" width="71.781" height="13.459"/>
	<rect x="219.831" y="246.02" style="fill:#B27214;" width="71.781" height="13.459"/>
	<rect x="219.831" y="203.77" style="fill:#B27214;" width="71.781" height="13.459"/>
</g>
<path style="fill:#4D4D4D;" d="M219.835,298.608c8.86-8.995,21.187-14.581,34.814-14.581c14.771,0,28.006,6.55,36.967,16.913
	c7.402,8.569,11.889,19.74,11.889,31.954c0,26.985-21.871,48.856-48.856,48.856s-48.867-21.871-48.867-48.856
	C205.782,319.537,211.143,307.435,219.835,298.608z"/>
<path style="fill:#FCC854;" d="M300.567,4.484c-29.901-5.978-59.803-5.978-89.704,0c5.978,29.901,5.978,59.803,0,89.704
	c2.097,0.426,4.206,0.83,6.315,1.178c25.707,4.419,51.391,4.408,77.098,0c2.097-0.37,4.206-0.751,6.292-1.178
	C294.589,64.287,294.589,34.386,300.567,4.484z M244.499,68.807c0,4.643-3.769,8.412-8.412,8.412c-4.655,0-8.412-3.769-8.412-8.412
	V32.917c0-4.643,3.757-8.412,8.412-8.412c4.643,0,8.412,3.769,8.412,8.412V68.807z M283.754,68.807c0,4.643-3.757,8.412-8.412,8.412
	c-4.643,0-8.412-3.769-8.412-8.412V32.917c0-4.643,3.769-8.412,8.412-8.412c4.655,0,8.412,3.769,8.412,8.412V68.807z"/>
<g>
</g>
<g>
</g>
<g>
</g>
<g>
</g>
<g>
</g>
<g>
</g>
<g>
</g>
<g>
</g>
<g>
</g>
<g>
</g>
<g>
</g>
<g>
</g>
<g>
</g>
<g>
</g>
<g>
</g>
</svg>
