<?xml version="1.0" encoding="iso-8859-1"?>
<!-- Generator: Adobe Illustrator 19.0.0, SVG Export Plug-In . SVG Version: 6.00 Build 0)  -->
<svg version="1.1" id="Layer_1" xmlns="http://www.w3.org/2000/svg" xmlns:xlink="http://www.w3.org/1999/xlink" x="0px" y="0px"
	 viewBox="0 0 512 512" style="enable-background:new 0 0 512 512;" xml:space="preserve">
<path style="fill:#FCC854;" d="M406.436,33.401v93.221H105.564V33.401C105.564,14.954,120.518,0,138.964,0h234.071
	C391.482,0,406.436,14.954,406.436,33.401z"/>
<g>
	<path style="fill:#F9BC43;" d="M139.34,0v126.621h-33.776V33.401C105.564,14.954,120.518,0,138.964,0H139.34z"/>
	<path style="fill:#F9BC43;" d="M406.436,33.401v93.221h-56.053V0h22.653C391.482,0,406.436,14.954,406.436,33.401z"/>
	<path style="fill:#F9BC43;" d="M139.34,103.035c-5.276,0-9.554-4.278-9.554-9.554V33.138c0-5.276,4.278-9.554,9.554-9.554
		c5.276,0,9.554,4.278,9.554,9.554v60.343C148.894,98.757,144.617,103.035,139.34,103.035z"/>
	<path style="fill:#F9BC43;" d="M279.335,103.035c-5.278,0-9.554-4.278-9.554-9.554V33.138c0-5.276,4.276-9.554,9.554-9.554
		c5.278,0,9.554,4.278,9.554,9.554v60.343C288.888,98.757,284.612,103.035,279.335,103.035z"/>
	<path style="fill:#F9BC43;" d="M186.005,103.035c-5.276,0-9.554-4.278-9.554-9.554V33.138c0-5.276,4.278-9.554,9.554-9.554
		c5.276,0,9.554,4.278,9.554,9.554v60.343C195.559,98.757,191.282,103.035,186.005,103.035z"/>
	<path style="fill:#F9BC43;" d="M372.664,103.035c-5.278,0-9.554-4.278-9.554-9.554V33.138c0-5.276,4.276-9.554,9.554-9.554
		c5.278,0,9.554,4.278,9.554,9.554v60.343C382.218,98.757,377.94,103.035,372.664,103.035z"/>
	<path style="fill:#F9BC43;" d="M325.998,103.035c-5.278,0-9.554-4.278-9.554-9.554V33.138c0-5.276,4.276-9.554,9.554-9.554
		c5.278,0,9.554,4.278,9.554,9.554v60.343C335.552,98.757,331.276,103.035,325.998,103.035z"/>
	<path style="fill:#F9BC43;" d="M232.669,103.035c-5.276,0-9.554-4.278-9.554-9.554V33.138c0-5.276,4.278-9.554,9.554-9.554
		c5.276,0,9.554,4.278,9.554,9.554v60.343C242.223,98.757,237.946,103.035,232.669,103.035z"/>
</g>
<path style="fill:#22B573;" d="M96.914,124.711h8.649h300.872h8.65c31.846,0,57.667,25.808,57.667,57.655v270.962
	c0,31.846-25.821,57.667-57.667,57.667H96.914c-31.846,0-57.668-25.821-57.668-57.667V182.365
	C39.247,150.519,65.068,124.711,96.914,124.711z"/>
<path style="fill:#189E5E;" d="M472.753,453.327V182.365c0-31.846-25.821-57.655-57.667-57.655h-61.336
	c31.846,0,57.667,25.808,57.667,57.655v270.962c0,31.846-25.821,57.667-57.667,57.667h61.336
	C446.932,510.995,472.753,485.174,472.753,453.327z"/>
<path style="fill:#79D8AA;" d="M168.054,454.333V183.37c0-31.846,10.572-57.655,23.611-57.655h61.782
	c-13.039,0-23.611,25.808-23.611,57.655v270.962c0,31.846,10.572,57.667,23.611,57.667h-61.782
	C178.626,512,168.054,486.179,168.054,454.333z"/>
<path style="fill:#FCC854;" d="M97.093,317.853c0,26.789,14.178,51.298,37.693,70.228c9.63,7.771,20.84,14.586,33.273,20.242
	c7.898,3.592,16.293,6.726,25.108,9.312c11.579,3.414,23.872,5.911,36.674,7.35c8.509,0.968,17.248,1.478,26.152,1.478
	c87.769,0,158.901-48.623,158.901-108.609s-71.132-108.622-158.901-108.622c-8.904,0-17.643,0.51-26.152,1.478
	c-12.802,1.439-25.095,3.936-36.674,7.35c-8.815,2.599-17.21,5.72-25.108,9.325c-12.433,5.643-23.643,12.471-33.273,20.242
	C111.271,266.555,97.093,291.064,97.093,317.853z"/>
<path style="fill:#FCDB75;" d="M168.059,227.383v180.939c7.898,3.592,16.293,6.726,25.108,9.312
	c11.579,3.414,23.872,5.911,36.674,7.35V210.709c-12.802,1.439-25.095,3.936-36.674,7.35
	C184.352,220.657,175.957,223.778,168.059,227.383z"/>
<path style="fill:#F7495B;" d="M230.141,274.828c5.229,0.157,9.261,4.718,9.261,9.95v15.524h7.176v-33.358
	c0-5.276,4.278-9.554,9.554-9.554l0,0c5.276,0,9.554,4.278,9.554,9.554v73.588h6.907v-16.866c0-5.232,4.03-9.793,9.26-9.95
	c5.41-0.163,9.848,4.176,9.848,9.55v26.82c0,5.276-4.278,9.554-9.554,9.554h-16.461v22.797h-19.108v-63.027h-16.73
	c-5.276,0-9.554-4.278-9.554-9.554v-25.478C220.294,279.004,224.729,274.666,230.141,274.828z"/>
<path style="fill:#189E5E;" d="M128.794,395.522c-26.604-21.416-41.256-49-41.256-77.67c0-28.669,14.652-56.254,41.253-77.666
	c31.943-25.745,78.308-40.51,127.202-40.51c44.352,0,86.171,11.891,117.755,33.483c32.695,22.35,50.699,52.428,50.699,84.692
	s-18.006,62.34-50.699,84.686c-31.583,21.587-73.402,33.476-117.754,33.476C207.106,436.016,160.741,421.257,128.794,395.522z
	 M140.776,255.068c-22.008,17.717-34.13,40.014-34.13,62.786c0,22.771,12.122,45.068,34.133,62.787
	c28.615,23.049,70.609,36.268,115.214,36.268c82.35,0,149.347-44.436,149.347-99.055c0-54.626-66.997-99.068-149.347-99.068
	C211.382,218.785,169.388,232.009,140.776,255.068z"/>
<g>
</g>
<g>
</g>
<g>
</g>
<g>
</g>
<g>
</g>
<g>
</g>
<g>
</g>
<g>
</g>
<g>
</g>
<g>
</g>
<g>
</g>
<g>
</g>
<g>
</g>
<g>
</g>
<g>
</g>
</svg>
