<?xml version="1.0" encoding="iso-8859-1"?>
<!-- Generator: Adobe Illustrator 19.0.0, SVG Export Plug-In . SVG Version: 6.00 Build 0)  -->
<svg version="1.1" id="Layer_1" xmlns="http://www.w3.org/2000/svg" xmlns:xlink="http://www.w3.org/1999/xlink" x="0px" y="0px"
	 viewBox="0 0 512.002 512.002" style="enable-background:new 0 0 512.002 512.002;" xml:space="preserve">
<g>
	<path style="fill:#999999;" d="M497.78,208.264v104.568c0,30.802-20.285,56.846-48.222,65.549h-0.013
		c-5.929-66.377-7.033-132.741-3.3-199.105h22.533C484.805,179.276,497.78,192.265,497.78,208.264z"/>
	<path style="fill:#999999;" d="M65.743,179.276c3.734,66.377,2.629,132.741-3.3,199.105H62.43
		c-27.937-8.69-48.209-34.746-48.209-65.549V208.264c0-15.999,12.976-28.988,28.988-28.988L65.743,179.276L65.743,179.276z"/>
</g>
<path style="fill:#CCCCCC;" d="M401.736,501.305c-97.161,14.263-194.321,14.263-291.483,0
	c-35.049-5.146-59.651-37.311-55.217-72.458c10.691-84.723,13.52-169.445,8.491-254.169c-5.456-91.9,65.456-170.817,157.46-174.061
	c22.857-0.806,45.712-0.823,68.569-0.05c92.576,3.129,164.394,81.651,158.906,174.116c-5.029,84.721-2.199,169.441,8.491,254.162
	C461.388,463.993,436.785,496.159,401.736,501.305z"/>
<g>
	<path style="fill:#B3B3B3;" d="M415.65,428.847c-8.493-84.723-10.741-169.445-6.746-254.169
		c4.334-91.9-52.003-170.817-125.097-174.06c-9.059-0.402-18.119-0.607-27.178-0.617c11.457,0.008,22.916,0.212,34.373,0.617
		c92.004,3.245,162.915,82.161,157.46,174.06c-5.03,84.723-2.199,169.445,8.49,254.169c4.434,35.146-20.168,67.312-55.217,72.458
		c-48.581,7.131-97.161,10.697-145.741,10.697c38.596,0,77.192-3.565,115.787-10.697
		C399.626,496.159,419.173,463.993,415.65,428.847z"/>
	<path style="fill:#B3B3B3;" d="M141.739,296.378c-29.447,0-53.404-23.958-53.404-53.408s23.957-53.408,53.404-53.408
		c29.446,0,53.403,23.96,53.403,53.408S171.186,296.378,141.739,296.378z"/>
</g>
<circle style="fill:#4D4D4D;" cx="141.735" cy="242.963" r="40.258"/>
<path style="fill:#B3B3B3;" d="M366.344,296.378c-29.447,0-53.404-23.958-53.404-53.408s23.957-53.408,53.404-53.408
	c29.446,0,53.403,23.96,53.403,53.408S395.79,296.378,366.344,296.378z"/>
<circle style="fill:#4D4D4D;" cx="366.344" cy="242.963" r="40.258"/>
<path style="fill:#B3B3B3;" d="M254.041,326.02c-18.606,0-36.792-4.058-51.206-11.427h-0.001
	c-8.906-4.553-9.667-16.987-1.384-22.592l0,0c10.427-7.057,25.823-23.131,42.24-44.103l0,0c5.264-6.723,15.439-6.723,20.702,0l0,0
	c16.418,20.971,31.814,37.046,42.24,44.103l0,0c8.282,5.606,7.52,18.04-1.384,22.592h-0.001
	C290.833,321.961,272.647,326.02,254.041,326.02z"/>
<g>
	<path style="fill:#4D4D4D;" d="M254.041,256.001c14.841,18.957,31.967,37.915,45.222,46.886c-26.045,13.315-64.4,13.315-90.445,0
		C222.074,293.916,239.2,274.958,254.041,256.001z"/>
	<path style="fill:#4D4D4D;" d="M385.076,442.852H126.914c-10.968,0-19.858-8.891-19.858-19.858l0,0
		c0-10.968,8.891-19.858,19.858-19.858h258.163c10.968,0,19.858,8.891,19.858,19.858l0,0
		C404.935,433.961,396.044,442.852,385.076,442.852z"/>
</g>
<g>
	<path style="fill:#B3B3B3;" d="M377.172,368.853c-20.187,0-38.313-12.015-46.176-30.609c-2.121-5.015,0.226-10.801,5.242-12.922
		c5.012-2.121,10.799,0.225,12.922,5.24c4.77,11.281,15.765,18.571,28.013,18.571c16.761,0,30.396-13.638,30.396-30.402v-19.916
		c0-5.445,4.413-9.86,9.86-9.86c5.447,0,9.86,4.415,9.86,9.86v19.916C427.288,346.368,404.807,368.853,377.172,368.853z"/>
	<path style="fill:#B3B3B3;" d="M134.818,368.853c-27.635,0-50.118-22.485-50.118-50.121v-19.916c0-5.445,4.413-9.86,9.86-9.86
		c5.447,0,9.86,4.415,9.86,9.86v19.916c0,16.763,13.636,30.402,30.398,30.402c12.245,0,23.242-7.29,28.011-18.571
		c2.123-5.014,7.913-7.359,12.922-5.24c5.015,2.121,7.363,7.906,5.242,12.922C173.13,356.838,155.005,368.853,134.818,368.853z"/>
</g>
<path style="fill:#999999;" d="M303.835,190.323c-2.523,0-5.047-0.962-6.973-2.888c-3.851-3.851-3.851-10.094,0-13.943
	c35.159-35.161,91.115-38.52,130.154-7.82c4.281,3.367,5.022,9.564,1.656,13.846c-3.366,4.282-9.567,5.019-13.845,1.655
	c-31.201-24.536-75.92-21.84-104.02,6.263C308.882,189.361,306.358,190.323,303.835,190.323z"/>
<path style="fill:#B3B3B3;" d="M385.076,450.74H126.914c-15.3,0-27.746-12.447-27.746-27.746s12.447-27.746,27.746-27.746h258.161
	c15.3,0,27.746,12.447,27.746,27.746S400.376,450.74,385.076,450.74z M126.914,411.024c-6.601,0-11.97,5.369-11.97,11.97
	c0,6.601,5.37,11.97,11.97,11.97h258.161c6.601,0,11.97-5.369,11.97-11.97c0-6.601-5.37-11.97-11.97-11.97H126.914z"/>
<g>
	<path style="fill:#999999;" d="M204.248,190.323c-2.523,0-5.047-0.962-6.973-2.888c-28.101-28.101-72.819-30.797-104.021-6.263
		c-4.281,3.367-10.48,2.625-13.845-1.655c-3.367-4.281-2.624-10.479,1.656-13.846c39.039-30.701,94.995-27.338,130.155,7.82
		c3.851,3.851,3.851,10.094,0,13.943C209.295,189.361,206.771,190.323,204.248,190.323z"/>
	<circle style="fill:#999999;" cx="103.176" cy="133.768" r="8.874"/>
	<circle style="fill:#999999;" cx="107.448" cy="101.224" r="8.874"/>
	<circle style="fill:#999999;" cx="390.771" cy="77.881" r="8.874"/>
	<circle style="fill:#999999;" cx="412.818" cy="104.99" r="8.874"/>
	<circle style="fill:#999999;" cx="381.095" cy="111.379" r="8.874"/>
	<circle style="fill:#999999;" cx="415.013" cy="385.972" r="8.874"/>
</g>
<g>
	<circle style="fill:#E6E6E6;" cx="169.487" cy="104.109" r="29.978"/>
	<circle style="fill:#E6E6E6;" cx="195.386" cy="51.325" r="19.007"/>
</g>
<g>
</g>
<g>
</g>
<g>
</g>
<g>
</g>
<g>
</g>
<g>
</g>
<g>
</g>
<g>
</g>
<g>
</g>
<g>
</g>
<g>
</g>
<g>
</g>
<g>
</g>
<g>
</g>
<g>
</g>
</svg>
