<?xml version="1.0" encoding="iso-8859-1"?>
<!-- Generator: Adobe Illustrator 19.0.0, SVG Export Plug-In . SVG Version: 6.00 Build 0)  -->
<svg version="1.1" id="Layer_1" xmlns="http://www.w3.org/2000/svg" xmlns:xlink="http://www.w3.org/1999/xlink" x="0px" y="0px"
	 viewBox="0 0 512 512" style="enable-background:new 0 0 512 512;" xml:space="preserve">
<path style="fill:#F7495B;" d="M425.687,34.169L354.104,61.02l-17.953,71.535h-37.606l22.492-89.715
	c1.449-5.809,5.677-10.527,11.294-12.647L412.872,0l7.234,19.294L425.687,34.169z"/>
<path style="fill:#DD2B44;" d="M425.687,34.169L354.104,61.02l-17.953,71.535H322.51l18.887-75.344
	c1.449-5.809,5.677-10.527,11.294-12.647l67.415-25.27L425.687,34.169z"/>
<path style="fill:#FCC854;" d="M139.436,184.101c-34.593,44.892-56.295,104.488-56.295,155.039C83.141,434.608,160.532,512,256,512
	s172.859-77.392,172.859-172.859c0-50.551-21.702-110.147-56.295-155.039L139.436,184.101L139.436,184.101z"/>
<g>
	<path style="fill:#F9BC43;" d="M389.088,339.141c0-50.551-16.709-110.147-43.343-155.039h26.819
		c34.593,44.892,56.295,104.488,56.295,155.039C428.859,434.608,351.468,512,256,512C329.503,512,389.088,434.608,389.088,339.141z"
		/>
	<circle style="fill:#F9BC43;" cx="255.996" cy="348.49" r="90.614"/>
</g>
<path style="fill:#FCC854;" d="M256,414.305c-2.298,0-4.598-0.877-6.351-2.631l-56.836-56.836c-3.508-3.508-3.508-9.195,0-12.702
	l56.836-56.836c1.684-1.685,3.969-2.631,6.351-2.631s4.667,0.946,6.351,2.631l56.836,56.836c1.685,1.684,2.631,3.969,2.631,6.351
	s-0.946,4.667-2.631,6.351l-56.836,56.836C260.598,413.427,258.298,414.305,256,414.305z M211.867,348.486L256,392.619
	l44.134-44.133L256,304.352L211.867,348.486z"/>
<path style="fill:#CCCCCC;" d="M149.254,189.491h213.492c9.834,0,17.805-7.972,17.805-17.805l0,0
	c0-23.262-18.857-42.119-42.119-42.119H173.568c-23.262,0-42.119,18.857-42.119,42.119l0,0
	C131.449,181.519,139.42,189.491,149.254,189.491z"/>
<path style="fill:#999999;" d="M338.432,129.567h-57.487c23.262,0,42.119,18.857,42.119,42.119l0,0
	c0,9.834-7.971,17.805-17.805,17.805h57.487c9.834,0,17.805-7.972,17.805-17.805l0,0
	C380.551,148.424,361.694,129.567,338.432,129.567z"/>
<g>
</g>
<g>
</g>
<g>
</g>
<g>
</g>
<g>
</g>
<g>
</g>
<g>
</g>
<g>
</g>
<g>
</g>
<g>
</g>
<g>
</g>
<g>
</g>
<g>
</g>
<g>
</g>
<g>
</g>
</svg>
