<?xml version="1.0" encoding="iso-8859-1"?>
<!-- Generator: Adobe Illustrator 19.0.0, SVG Export Plug-In . SVG Version: 6.00 Build 0)  -->
<svg version="1.1" id="Layer_1" xmlns="http://www.w3.org/2000/svg" xmlns:xlink="http://www.w3.org/1999/xlink" x="0px" y="0px"
	 viewBox="0 0 512 512" style="enable-background:new 0 0 512 512;" xml:space="preserve">
<path style="fill:#F7495B;" d="M142.206,261.655c18.921-105.986,62.756-180.209,113.791-180.209
	c51.048,0,94.882,74.223,113.803,180.209"/>
<path style="fill:#DD2B44;" d="M369.8,261.66h-65.178c-8.08-105.965-26.799-180.186-48.608-180.209
	C307.052,81.474,350.88,155.683,369.8,261.66z"/>
<g>
	<path style="fill:#FCC854;" d="M166.515,242.115c-0.573,0-1.154-0.07-1.736-0.217c-3.772-0.956-6.056-4.788-5.1-8.561l5.652-22.313
		c0.956-3.772,4.784-6.055,8.561-5.1c3.772,0.956,6.056,4.788,5.1,8.561l-5.652,22.313
		C172.531,239.989,169.663,242.115,166.515,242.115z"/>
	<path style="fill:#FCC854;" d="M210.682,242.115c-0.353,0-0.712-0.027-1.072-0.082c-3.847-0.587-6.49-4.182-5.901-8.029
		l3.408-22.313c0.587-3.847,4.175-6.49,8.029-5.901c3.847,0.587,6.49,4.182,5.901,8.029l-3.408,22.313
		C217.107,239.618,214.104,242.115,210.682,242.115z"/>
	<path style="fill:#FCC854;" d="M256.003,242.113c-3.891,0-7.046-3.154-7.046-7.046v-22.313c0-3.892,3.156-7.046,7.046-7.046
		c3.891,0,7.046,3.154,7.046,7.046v22.313C263.049,238.959,259.894,242.113,256.003,242.113z"/>
	<path style="fill:#FCC854;" d="M301.324,242.115c-3.422,0-6.424-2.497-6.957-5.983l-3.408-22.313
		c-0.587-3.847,2.055-7.442,5.901-8.029c3.846-0.588,7.441,2.055,8.029,5.901l3.408,22.313c0.587,3.847-2.055,7.442-5.901,8.029
		C302.035,242.088,301.677,242.115,301.324,242.115z"/>
	<path style="fill:#FCC854;" d="M345.49,242.115c-3.149,0-6.018-2.126-6.826-5.318l-5.651-22.313
		c-0.955-3.772,1.328-7.605,5.1-8.561c3.771-0.955,7.605,1.328,8.561,5.1l5.651,22.313c0.955,3.772-1.328,7.605-5.1,8.561
		C346.645,242.045,346.063,242.115,345.49,242.115z"/>
	<path style="fill:#FCC854;" d="M493.937,258.725H18.063c-10.187,0-17.773,9.402-15.619,19.359l13.267,61.348
		c11.5,53.174,58.534,91.123,112.936,91.123h254.708c54.403,0,101.436-37.949,112.936-91.123l13.267-61.348
		C511.71,268.127,504.123,258.725,493.937,258.725z"/>
</g>
<path style="fill:#F9BC43;" d="M413.339,258.725l-17.454,80.706c-11.5,53.174-58.534,91.123-112.936,91.123h100.405
	c54.403,0,101.436-37.949,112.936-91.123l13.267-61.348c2.153-9.956-5.433-19.359-15.619-19.359H413.339L413.339,258.725z"/>
<path style="fill:#F7495B;" d="M503.192,303.699H8.808c-4.864,0-8.808-3.944-8.808-8.808s3.944-8.808,8.808-8.808h494.384
	c4.864,0,8.808,3.944,8.808,8.808S508.056,303.699,503.192,303.699z"/>
<g>
	<path style="fill:#22B573;" d="M499.172,326.098l-2.877,13.329c-3.277,15.126-9.419,29.019-17.792,41.162l-0.117-0.082
		l-31.415-54.409L499.172,326.098L499.172,326.098z"/>
	<polygon style="fill:#22B573;" points="404.258,326.098 435.673,380.508 372.844,380.508 	"/>
	<polygon style="fill:#22B573;" points="361.546,326.098 330.131,380.508 298.716,326.098 	"/>
	<polygon style="fill:#22B573;" points="256.004,326.098 287.407,380.508 224.589,380.508 	"/>
	<polygon style="fill:#22B573;" points="213.28,326.098 181.865,380.508 150.462,326.098 	"/>
	<polygon style="fill:#22B573;" points="107.738,326.098 139.153,380.508 76.323,380.508 	"/>
	<path style="fill:#22B573;" d="M65.014,326.098l-31.403,54.409l-0.117,0.082c-8.362-12.143-14.515-26.036-17.78-41.162
		l-2.877-13.329H65.014z"/>
</g>
<g>
</g>
<g>
</g>
<g>
</g>
<g>
</g>
<g>
</g>
<g>
</g>
<g>
</g>
<g>
</g>
<g>
</g>
<g>
</g>
<g>
</g>
<g>
</g>
<g>
</g>
<g>
</g>
<g>
</g>
</svg>
