<?xml version="1.0" encoding="iso-8859-1"?>
<!-- Generator: Adobe Illustrator 19.0.0, SVG Export Plug-In . SVG Version: 6.00 Build 0)  -->
<svg version="1.1" id="Layer_1" xmlns="http://www.w3.org/2000/svg" xmlns:xlink="http://www.w3.org/1999/xlink" x="0px" y="0px"
	 viewBox="0 0 512 512" style="enable-background:new 0 0 512 512;" xml:space="preserve">
<path style="fill:#F7495B;" d="M368.817,164.504H143.788C162.494,82.658,205.83,25.354,256.291,25.354
	C306.763,25.354,350.1,82.658,368.817,164.504z"/>
<path style="fill:#DD2B44;" d="M256.291,25.354c30.121,0.008,55.983,57.31,67.153,139.151h45.362
	C350.09,82.664,306.758,25.363,256.291,25.354z"/>
<g>
	<path style="fill:#DBA161;" d="M138.49,294.392v72.348c-24.004,0-43.449-19.456-43.449-43.449c0-11.1,4.156-21.226,10.999-28.899
		H138.49z"/>
	<path style="fill:#DBA161;" d="M406.565,294.392c6.844,7.673,10.999,17.798,10.999,28.899c0,23.993-19.445,43.449-43.449,43.449
		v-72.348H406.565z"/>
</g>
<path style="fill:#F4C184;" d="M136.81,294.392v72.762c0,19.792,4.816,38.453,13.34,54.896c2.734-1.287,7.127,16.666,7.127,16.666
	h199.089c0,0,3.817-17.723,6.09-16.655c8.524-16.443,13.34-35.115,13.34-54.908v-72.762L136.81,294.392L136.81,294.392z"/>
<path style="fill:#DBA161;" d="M314.055,471.783c-17.115,9.476-36.818,14.864-57.764,14.864s-40.637-5.388-57.753-14.864
	c-36.624-36.624,49.923-55.785,57.764-81.726C264.132,415.998,374.888,423.887,314.055,471.783z"/>
<path style="fill:#995C0D;" d="M393.594,402.874c-0.325,38.464-31.609,69.536-70.141,69.536c-3.181,0-6.329-0.213-9.398-0.627
	c-27.476-3.674-49.923-23.276-57.753-49.217c-7.841,25.942-30.288,45.543-57.764,49.217c-3.08,0.414-6.217,0.627-9.398,0.627
	c-38.532,0-69.816-31.072-70.141-69.536c0.291,10.731,8.322,19.523,18.706,21.013c1.03,0.157,2.083,0.235,3.147,0.235
	c3.327,0,6.474-0.739,9.297-2.072c7.426-3.495,12.568-11.044,12.568-19.792c0-0.538-0.011-1.075-0.056-1.613v-0.011
	c-0.056-0.762-0.146-1.512-0.28-2.24c-0.157-1.568-0.235-3.159-0.235-4.76c0-26.378,21.383-47.75,47.75-47.75
	c18.09,0,33.827,10.047,41.926,24.878c0.022,0.022,0.034,0.034,0.034,0.056c1.445,2.879,2.699,5.869,3.752,8.95
	c0,0.011,0,0.022,0.011,0.034c0.235,0.717,0.459,1.434,0.683,2.162c0.213-0.728,0.437-1.445,0.672-2.162
	c0.011-0.011,0.011-0.022,0.011-0.034c1.053-3.08,2.307-6.071,3.752-8.95c0-0.022,0.011-0.034,0.034-0.056
	c8.098-14.83,23.836-24.878,41.926-24.878c26.367,0,47.75,21.372,47.75,47.75c0,1.602-0.078,3.192-0.235,4.76
	c-0.134,0.728-0.224,1.479-0.28,2.24v0.011c-0.045,0.538-0.056,1.075-0.056,1.613c0,8.748,5.141,16.309,12.579,19.803
	c2.811,1.322,5.959,2.061,9.286,2.061c1.075,0,2.128-0.078,3.147-0.235C385.271,422.397,393.302,413.604,393.594,402.874z"/>
<path style="fill:#B27214;" d="M374.888,423.887c-12.792,13.822-31.105,22.469-51.435,22.469c-3.181,0-6.329-0.213-9.398-0.627
	c-21.839-2.92-40.501-15.903-51.171-34.134c-2.944-5.028-10.224-5.029-13.169-0.001c-10.676,18.232-29.338,31.215-51.178,34.136
	c-3.08,0.414-6.217,0.627-9.398,0.627c-20.33,0-38.644-8.647-51.435-22.469c1.03,0.157,2.083,0.235,3.147,0.235
	c3.327,0,6.474-0.739,9.297-2.072c7.426-3.495,12.568-11.044,12.568-19.792c0-0.538-0.011-1.075-0.056-1.613v-0.011
	c-0.056-0.762-0.146-1.512-0.28-2.24c-0.157-1.568-0.235-3.159-0.235-4.76c0-26.378,21.383-47.75,47.75-47.75
	c18.09,0,33.827,10.047,41.926,24.878c0.022,0.022,0.034,0.034,0.034,0.056c1.445,2.879,2.699,5.869,3.752,8.95
	c0,0.011,0,0.022,0.011,0.034c0.235,0.717,0.459,1.434,0.683,2.162c0.213-0.728,0.437-1.445,0.672-2.162
	c0.011-0.011,0.011-0.022,0.011-0.034c1.053-3.08,2.307-6.071,3.752-8.95c0-0.022,0.011-0.034,0.034-0.056
	c8.098-14.83,23.836-24.878,41.926-24.878c26.367,0,47.75,21.372,47.75,47.75c0,1.602-0.078,3.192-0.235,4.76
	c-0.134,0.728-0.224,1.479-0.28,2.24v0.011c-0.045,0.538-0.056,1.075-0.056,1.613c0,8.748,5.141,16.309,12.579,19.803
	c2.811,1.322,5.959,2.061,9.286,2.061C372.816,424.122,373.869,424.044,374.888,423.887z"/>
<path style="fill:#DBA161;" d="M308.574,294.392v-6.639h-87.368v6.639H136.81l-14.173,35.283h100.554
	c11.688,0,21.163-9.475,21.163-21.163l0,0c0-3.216,2.608-5.823,5.823-5.823h15.65c3.216,0,5.823,2.608,5.823,5.823l0,0
	c0,11.688,9.475,21.163,21.163,21.163h94.166l-11.186-35.283H308.574z"/>
<g>
	<path style="fill:#666666;" d="M182.997,327.886c0,0,0.102-0.203,0.3-0.525c0.202-0.301,0.487-0.815,0.87-1.328
		c0.761-1.066,1.874-2.4,3.258-3.64c1.384-1.244,3.038-2.41,4.86-3.282c1.82-0.891,3.813-1.47,5.845-1.763
		c2.034-0.273,4.109-0.252,6.1,0.114c0.995,0.178,1.968,0.431,2.901,0.747c0.932,0.307,1.829,0.715,2.66,1.113
		c0.834,0.422,1.607,0.868,2.301,1.324c0.693,0.459,1.305,0.907,1.815,1.325c0.507,0.395,0.92,0.814,1.195,1.053
		c0.278,0.259,0.43,0.429,0.43,0.429s-0.102,0.205-0.3,0.529c-0.202,0.304-0.487,0.819-0.87,1.335
		c-0.38,0.54-0.849,1.135-1.395,1.762c-0.546,0.625-1.172,1.26-1.862,1.891c-0.694,0.606-1.449,1.239-2.265,1.784
		c-0.814,0.554-1.685,1.059-2.595,1.495c-1.821,0.886-3.814,1.462-5.847,1.742c-2.035,0.261-4.111,0.235-6.102-0.136
		c-1.989-0.352-3.895-1.033-5.561-1.863c-1.666-0.826-3.095-1.812-4.113-2.637c-0.506-0.392-0.92-0.81-1.194-1.047
		C183.149,328.055,182.997,327.886,182.997,327.886z"/>
	<path style="fill:#666666;" d="M329.607,327.886c0,0-0.152,0.169-0.43,0.426c-0.276,0.236-0.688,0.655-1.195,1.047
		c-1.018,0.823-2.449,1.811-4.114,2.637c-1.667,0.829-3.573,1.51-5.564,1.863c-1.993,0.371-4.068,0.397-6.106,0.136
		c-2.034-0.28-4.028-0.856-5.849-1.742c-0.912-0.438-1.782-0.942-2.596-1.496c-0.817-0.544-1.572-1.178-2.266-1.784
		c-0.691-0.631-1.317-1.267-1.863-1.891c-0.546-0.627-1.015-1.223-1.395-1.762c-0.383-0.516-0.669-1.031-0.87-1.335
		c-0.198-0.324-0.3-0.529-0.3-0.529s0.152-0.17,0.431-0.429c0.276-0.239,0.689-0.659,1.196-1.053
		c0.511-0.419,1.121-0.867,1.816-1.325c0.693-0.456,1.466-0.902,2.301-1.324c0.831-0.398,1.728-0.806,2.66-1.113
		c0.933-0.316,1.906-0.569,2.902-0.747c1.993-0.366,4.067-0.388,6.102-0.114c2.032,0.292,4.026,0.873,5.847,1.763
		c1.824,0.871,3.478,2.037,4.862,3.282c1.386,1.24,2.499,2.574,3.261,3.64c0.383,0.513,0.67,1.027,0.871,1.328
		C329.505,327.683,329.607,327.886,329.607,327.886z"/>
</g>
<path style="fill:#F7495B;" d="M368.817,163.384H143.788H1.143l7.258,33.57l6.217,28.753c8.882,41.063,45.196,70.365,87.211,70.365
	h2.531h32.449h101.571h35.843h101.571h32.449h2.531c42.004,0,78.329-29.302,87.2-70.365l6.194-28.63l7.292-33.693H368.817z"/>
<path style="fill:#DD2B44;" d="M462.74,163.384l-7.258,33.57l-6.217,28.753c-2.714,12.546-7.993,23.99-15.213,33.836
	c-8.343,11.378-21.708,17.975-35.816,18.005c-38.454,0.081-124.011,0.132-124.011,0.132h-35.843c0,0-85.557-0.05-124.011-0.132
	c-14.109-0.029-27.474-6.627-35.816-18.005c-7.219-9.846-12.499-21.29-15.213-33.836l-6.217-28.753l-7.258-33.57H1.143l7.258,33.57
	l6.217,28.753c3.886,17.965,13.022,33.679,25.59,45.673c5.387,5.14,11.403,9.597,17.905,13.255
	c13.007,7.317,27.96,11.436,43.715,11.436l0,0h2.531l0,0h32.449l0,0h13.741h87.83h35.843h87.83h13.743l0,0h32.449l0,0h2.531l0,0
	c0.094,0,0.186-0.006,0.28-0.006c41.896-0.13,78.069-29.387,86.931-70.359l6.217-28.753l7.258-33.57H462.74z"/>
<polygon style="fill:#FCC854;" points="511.462,163.384 504.17,197.077 503.599,196.954 8.401,196.954 1.143,163.384 "/>
<g>
	<polygon style="fill:#F9BC43;" points="49.867,163.384 57.125,196.954 8.401,196.954 1.143,163.384 	"/>
	<polygon style="fill:#F9BC43;" points="511.462,163.384 504.17,197.077 503.599,196.954 455.48,196.954 462.738,163.384 	"/>
</g>
<path style="fill:#22B573;" d="M503.599,205.354H8.401c-4.639,0-8.401-3.761-8.401-8.401c0-4.639,3.761-8.401,8.401-8.401h495.198
	c4.641,0,8.401,3.761,8.401,8.401C512,201.593,508.24,205.354,503.599,205.354z"/>
<g>
</g>
<g>
</g>
<g>
</g>
<g>
</g>
<g>
</g>
<g>
</g>
<g>
</g>
<g>
</g>
<g>
</g>
<g>
</g>
<g>
</g>
<g>
</g>
<g>
</g>
<g>
</g>
<g>
</g>
</svg>
