<?xml version="1.0" encoding="iso-8859-1"?>
<!-- Generator: Adobe Illustrator 19.0.0, SVG Export Plug-In . SVG Version: 6.00 Build 0)  -->
<svg version="1.1" id="Layer_1" xmlns="http://www.w3.org/2000/svg" xmlns:xlink="http://www.w3.org/1999/xlink" x="0px" y="0px"
	 viewBox="0 0 512.001 512.001" style="enable-background:new 0 0 512.001 512.001;" xml:space="preserve">
<path style="fill:#B27214;" d="M419.583,148.73l20.794-42.081c9.692-19.616,1.649-43.376-17.967-53.068l0,0
	c-19.617-9.692-43.377-1.648-53.068,17.97l-38.131,77.18"/>
<path style="fill:#995C0D;" d="M422.408,53.583L422.408,53.583c-9.555-4.722-20.088-5.224-29.504-2.241
	c1.875,0.598,3.729,1.343,5.547,2.241l0,0c19.616,9.692,27.661,33.452,17.967,53.068l-20.794,42.081h23.956l20.794-42.081
	C450.069,87.035,442.024,63.275,422.408,53.583z"/>
<path style="fill:#22B573;" d="M322.71,151.681c0-30.219-24.497-54.716-54.716-54.716c-8.99,0-17.466,2.182-24.948,6.024
	c-11.478-25.544-37.123-43.343-66.943-43.343c-29.939,0-55.672,17.94-67.082,43.649c-7.627-4.035-16.317-6.33-25.546-6.33
	c-30.219,0-54.716,24.497-54.716,54.716"/>
<path style="fill:#189E5E;" d="M262.887,156.195c0-17.919-14.526-32.445-32.445-32.445c-5.331,0-10.356,1.294-14.794,3.572
	c-6.806-15.146-22.013-25.701-39.695-25.701c-17.753,0-33.011,10.638-39.777,25.882c-4.522-2.393-9.675-3.753-15.149-3.753
	c-17.919,0-32.445,14.526-32.445,32.445h174.304V156.195z"/>
<path style="fill:#B3B3B3;" d="M497.122,146.886H14.876c-8.549,0-15.366,7.196-14.849,15.729
	c3.003,49.605,20.11,95.4,47.361,133.436c30.948,43.195,48.232,94.674,48.232,147.812v1.213c0,9.638,7.814,17.452,17.452,17.452
	h26.26c7.62,0,14.359-4.944,16.648-12.212l18.916-60.085c25.492,8.492,52.757,13.102,81.102,13.102s55.611-4.61,81.102-13.102
	l18.916,60.084c2.288,7.268,9.028,12.212,16.648,12.212h26.26c9.638,0,17.452-7.814,17.452-17.452v-1.213
	c0-53.138,17.284-104.617,48.232-147.812c27.252-38.035,44.36-83.83,47.361-133.436
	C512.488,154.082,505.672,146.886,497.122,146.886z"/>
<g>
	<path style="fill:#999999;" d="M497.123,146.886h-40.916c7.098,0,12.759,7.196,12.33,15.729
		c-2.493,49.605-16.698,95.4-39.325,133.436c-25.697,43.195-40.048,94.674-40.048,147.812v1.213c0,9.638-6.488,17.452-14.491,17.452
		h24.253c9.638,0,17.452-7.814,17.452-17.452v-1.213c0-53.138,17.284-104.617,48.232-147.812
		c27.252-38.035,44.36-83.83,47.363-133.436C512.488,154.082,505.672,146.886,497.123,146.886z"/>
	<polygon style="fill:#999999;" points="337.103,390.233 369.854,370.079 343.255,409.775 	"/>
	<polygon style="fill:#999999;" points="174.897,390.232 154.439,371.718 169.758,406.557 	"/>
</g>
<g>
	<circle style="fill:#808080;" cx="445.736" cy="201.147" r="9.215"/>
	<circle style="fill:#808080;" cx="459.029" cy="245.918" r="9.215"/>
	<circle style="fill:#808080;" cx="113.977" cy="298.477" r="9.215"/>
	<circle style="fill:#808080;" cx="83.004" cy="305.456" r="9.215"/>
	<circle style="fill:#808080;" cx="102.919" cy="339.476" r="9.215"/>
	<circle style="fill:#808080;" cx="418.043" cy="256.791" r="9.215"/>
</g>
<g>
</g>
<g>
</g>
<g>
</g>
<g>
</g>
<g>
</g>
<g>
</g>
<g>
</g>
<g>
</g>
<g>
</g>
<g>
</g>
<g>
</g>
<g>
</g>
<g>
</g>
<g>
</g>
<g>
</g>
</svg>
