<?xml version="1.0" encoding="iso-8859-1"?>
<!-- Generator: Adobe Illustrator 19.0.0, SVG Export Plug-In . SVG Version: 6.00 Build 0)  -->
<svg version="1.1" id="Layer_1" xmlns="http://www.w3.org/2000/svg" xmlns:xlink="http://www.w3.org/1999/xlink" x="0px" y="0px"
	 viewBox="0 0 512.001 512.001" style="enable-background:new 0 0 512.001 512.001;" xml:space="preserve">
<path style="fill:#FCC854;" d="M0.74,252.398c-0.48-2.231-0.73-4.533-0.74-6.904C0.36,247.765,0.61,250.066,0.74,252.398z"/>
<path style="fill:#B27214;" d="M478.147,279.206c-18.705,0-33.862-15.158-33.862-33.862c0-0.838,0.027-1.666,0.089-2.496v-0.027
	c0.089-1.177,0.232-2.334,0.436-3.475c0.24-2.424,0.365-4.883,0.365-7.37c0-40.849-33.114-73.964-73.964-73.964
	c-28.017,0-52.389,15.577-64.936,38.541c-0.027,0.027-0.045,0.053-0.053,0.089c-2.236,4.447-4.18,9.081-5.802,13.857
	c0,0.018-0.009,0.036-0.018,0.053c-0.374,1.108-0.718,2.227-1.057,3.351c-0.339-1.123-0.682-2.243-1.057-3.351
	c-0.009-0.018-0.018-0.036-0.018-0.053c-1.622-4.776-3.564-9.41-5.802-13.857c-0.009-0.036-0.027-0.062-0.053-0.089
	c-12.547-22.964-36.919-38.541-64.936-38.541c-40.849,0-73.964,33.114-73.964,73.964c0,2.487,0.125,4.946,0.365,7.37
	c0.205,1.141,0.347,2.299,0.436,3.475v0.027c0.062,0.829,0.089,1.657,0.089,2.496c0,18.705-15.158,33.862-33.862,33.862
	c-18.384,0-33.346-14.641-33.854-32.91c0.508,59.563,48.959,107.693,108.638,107.693c49.071,0,90.531-32.533,104.018-77.199
	c13.486,44.666,54.947,77.199,104.018,77.199c59.679,0,108.129-48.129,108.638-107.693
	C511.493,264.564,496.53,279.206,478.147,279.206z"/>
<g>
	<path style="fill:#995C0D;" d="M502.444,268.928c-8.303,18.433-21.602,34.124-38.168,45.363
		c-14.897,10.106-34.285,11.501-50.068,2.843c-1.446-0.792-2.877-1.676-4.286-2.657c5.207,4.004,13.273,9.531,23.371,14.307
		c-9.51,2.721-19.547,4.195-29.932,4.195c-0.025,0-0.049,0-0.074,0c-5.058-0.004-9.956-1.777-13.943-4.889
		c-7.662-5.983-15.918-14.943-20.698-27.791c0,0,5.863,17.224,14.023,30.69c-39.752-7.668-71.789-36.984-83.324-75.208
		c-11.541,38.221-43.576,67.536-83.323,75.206c8.159-13.467,14.022-30.688,14.022-30.688c-4.78,12.847-13.036,21.808-20.697,27.791
		c-3.987,3.113-8.885,4.885-13.943,4.89c-0.028,0-0.056,0-0.085,0c-10.382,0-20.416-1.473-29.925-4.194
		c10.098-4.776,18.165-10.303,23.374-14.308c-1.411,0.982-2.844,1.865-4.292,2.66c-15.784,8.656-35.168,7.261-50.066-2.844
		c-16.574-11.241-29.879-26.938-38.184-45.375c-5.704-5.884-9.296-13.829-9.536-22.624c0.5,59.568,48.951,107.698,108.629,107.698
		c49.071,0,90.537-32.531,104.026-77.199c13.478,44.668,54.945,77.199,104.016,77.199c59.678,0,108.128-48.13,108.639-107.698
		C511.75,255.089,508.158,263.044,502.444,268.928z"/>
	<path style="fill:#995C0D;" d="M154.319,242.822v0.03c0.06,0.821,0.09,1.651,0.09,2.492v0.15
		c4.146-26.555,22.42-48.436,46.899-57.701c-4.274,14.177,0.053,29.454,0.053,29.454c0-8.092,2.35-14.407,5.643-19.283
		c7.498-11.105,21.173-16.137,34.339-13.641c1.367,0.259,2.721,0.556,4.061,0.89c-31.31,8.56-28.031,31.034-28.031,31.034
		c5.233-6.369,11.188-10.726,17.323-13.638c20.984-9.961,46.351-1.647,57.574,18.69c0.05,0.09,0.099,0.18,0.149,0.271
		c0.03,0.03,0.05,0.05,0.06,0.09c2.231,4.443,4.173,9.086,5.794,13.859c0,0.02,0.01,0.03,0.02,0.05
		c0.37,1.111,0.72,2.231,1.061,3.352c0.34-1.121,0.68-2.241,1.051-3.352c0.01-0.02,0.02-0.03,0.02-0.05
		c1.621-4.773,3.562-9.416,5.804-13.859c0.01-0.04,0.03-0.06,0.05-0.09c0.049-0.091,0.099-0.181,0.149-0.271
		c11.224-20.337,36.592-28.651,57.576-18.689c6.134,2.912,12.089,7.269,17.321,13.637c0,0,3.279-22.471-28.027-31.033
		c1.338-0.333,2.69-0.629,4.056-0.889c13.166-2.499,26.846,2.536,34.343,13.645c3.29,4.875,5.639,11.188,5.639,19.277
		c0,0,4.327-15.278,0.052-29.456c24.475,9.265,42.753,31.148,46.899,57.703v-0.15c0-0.841,0.03-1.671,0.09-2.492v-0.03
		c0.09-1.181,0.23-2.331,0.44-3.472c0.24-2.432,0.36-4.883,0.36-7.375c0-40.846-33.111-73.967-73.957-73.967
		c-28.018,0-52.393,15.58-64.941,38.544c-0.02,0.03-0.04,0.05-0.05,0.09c-2.241,4.443-4.183,9.086-5.804,13.859
		c0,0.02-0.01,0.03-0.02,0.05c-0.37,1.111-0.71,2.231-1.051,3.352c-0.34-1.121-0.69-2.241-1.061-3.352
		c-0.01-0.02-0.02-0.03-0.02-0.05c-1.621-4.773-3.562-9.416-5.794-13.859c-0.01-0.04-0.03-0.06-0.06-0.09
		c-12.548-22.964-36.913-38.544-64.931-38.544c-40.856,0-73.967,33.121-73.967,73.967c0,2.492,0.12,4.943,0.36,7.375
		C154.089,240.49,154.229,241.641,154.319,242.822z"/>
	<path style="fill:#995C0D;" d="M188.769,314.477c2.201-1.532,4.35-3.3,6.412-5.342
		C194.569,309.705,192.339,311.731,188.769,314.477z"/>
	<path style="fill:#995C0D;" d="M195.181,309.135c0.114-0.106,0.175-0.165,0.175-0.165
		C195.298,309.027,195.238,309.077,195.181,309.135z"/>
	<path style="fill:#995C0D;" d="M409.923,314.477c-3.57-2.746-5.8-4.772-6.412-5.342
		C405.573,311.177,407.721,312.945,409.923,314.477z"/>
	<path style="fill:#995C0D;" d="M403.511,309.135c-0.058-0.057-0.118-0.107-0.175-0.165
		C403.335,308.969,403.396,309.028,403.511,309.135z"/>
</g>
<g>
</g>
<g>
</g>
<g>
</g>
<g>
</g>
<g>
</g>
<g>
</g>
<g>
</g>
<g>
</g>
<g>
</g>
<g>
</g>
<g>
</g>
<g>
</g>
<g>
</g>
<g>
</g>
<g>
</g>
</svg>
