<?xml version="1.0" encoding="iso-8859-1"?>
<!-- Generator: Adobe Illustrator 19.0.0, SVG Export Plug-In . SVG Version: 6.00 Build 0)  -->
<svg version="1.1" id="Layer_1" xmlns="http://www.w3.org/2000/svg" xmlns:xlink="http://www.w3.org/1999/xlink" x="0px" y="0px"
	 viewBox="0 0 512 512" style="enable-background:new 0 0 512 512;" xml:space="preserve">
<g>
	<path style="fill:#FCC854;" d="M168.44,76.709l-7.942,77.581l-0.482,2.307c-2.663-0.539-0.62,44.758-3.443,44.758
		c-20.818,0-32.042,2.089-35.99,21.748c-7.471-6.301-35.37-12.131-45.906-12.131c-11.121,0-21.576-19.671-21.576-19.671l-1.09-1.423
		L0,152.235L168.44,76.709z"/>
	<path style="fill:#FCC854;" d="M512,142.779l-68.159,39.353l-40.845,23.584c-32.674,17.387-59.023,4.958-73.025,4.958
		c-5.887,0-4.631-20.841-9.726-18.695l31.899-35.244V50.485L512,142.779z"/>
</g>
<path style="fill:#22B573;" d="M443.841,182.132l-40.845,23.584c-7.827-10.363-20.267-17.066-34.269-17.066
	c-5.887,0-11.488,1.182-16.583,3.328v-35.244c-7.104,1.503-13.565,4.774-18.89,9.319c-4.304-19.2-21.427-33.546-41.924-33.546
	c-1.148,0-2.284,0.046-3.409,0.138c-12.968,1.01-24.307,7.781-31.48,17.766c-7.804-10.845-20.52-17.903-34.9-17.903
	c-4.832,0-9.468,0.792-13.795,2.272v0.011c-14.047,4.74-24.835,16.584-28.117,31.262c-5.509-4.694-12.222-8.034-19.613-9.457
	c-2.663-0.539-5.428-0.815-8.252-0.815c-20.818,0-38.171,14.805-42.119,34.464c-7.471-6.301-17.123-10.099-27.658-10.099
	c-11.121,0-21.266,4.223-28.886,11.155c-8.653,7.861-14.082,19.2-14.082,31.801h371.826h63.017
	C473.864,203.88,461.24,187.629,443.841,182.132z"/>
<path style="fill:#189E5E;" d="M348.701,219.545v3.558H110.507c7.265-13.439,21.472-22.563,37.815-22.563
	c2.823,0,5.589,0.275,8.252,0.815c7.391,1.423,14.105,4.763,19.613,9.457c3.282-14.678,14.07-26.522,28.117-31.262v-0.011
	c4.327-1.48,8.963-2.272,13.795-2.272c14.38,0,27.096,7.058,34.9,17.903c7.173-9.985,18.512-16.756,31.48-17.766
	c1.125-0.092,2.261-0.138,3.409-0.138c20.497,0,37.62,14.346,41.924,33.546c0.057-0.046,0.103-0.092,0.161-0.138
	C337.362,204.43,348.701,209.87,348.701,219.545z"/>
<path style="fill:#FCC854;" d="M246.4,65.416l41.522,68.377c-12.968,1.01-24.307,7.781-31.48,17.766
	c-7.804-10.845-20.52-17.903-34.9-17.903c-4.832,0-9.468,0.792-13.795,2.272L246.4,65.416z"/>
<path style="fill:#F7495B;" d="M473.864,221.955h22.127c0,132.301-107.248,239.56-239.548,239.56S16.893,354.256,16.893,221.955
	H39.02h371.826H473.864z"/>
<g>
	<path style="fill:#DD2B44;" d="M495.99,221.955c0,132.301-107.248,239.56-239.548,239.56c62.903,0,113.881-107.259,113.881-239.56
		L495.99,221.955L495.99,221.955z"/>
	<path style="fill:#DD2B44;" d="M492.506,266.928H19.631c-4.754,0-8.607-3.854-8.607-8.607c0-4.754,3.854-8.607,8.607-8.607h472.877
		c4.754,0,8.607,3.854,8.607,8.607C501.115,263.074,497.26,266.928,492.506,266.928z"/>
</g>
<g>
	<circle style="fill:#D6992D;" cx="380.239" cy="117.152" r="7.173"/>
	<circle style="fill:#D6992D;" cx="398.314" cy="154.737" r="7.173"/>
	<circle style="fill:#D6992D;" cx="239.285" cy="121.111" r="7.173"/>
	<circle style="fill:#D6992D;" cx="124.738" cy="133.471" r="7.173"/>
	<circle style="fill:#D6992D;" cx="78.407" cy="162.036" r="7.173"/>
	<circle style="fill:#D6992D;" cx="431.596" cy="139.531" r="7.173"/>
</g>
<g>
</g>
<g>
</g>
<g>
</g>
<g>
</g>
<g>
</g>
<g>
</g>
<g>
</g>
<g>
</g>
<g>
</g>
<g>
</g>
<g>
</g>
<g>
</g>
<g>
</g>
<g>
</g>
<g>
</g>
</svg>
