<?xml version="1.0" encoding="iso-8859-1"?>
<!-- Generator: Adobe Illustrator 19.0.0, SVG Export Plug-In . SVG Version: 6.00 Build 0)  -->
<svg version="1.1" id="Layer_1" xmlns="http://www.w3.org/2000/svg" xmlns:xlink="http://www.w3.org/1999/xlink" x="0px" y="0px"
	 viewBox="0 0 512 512" style="enable-background:new 0 0 512 512;" xml:space="preserve">
<g>
	<path style="fill:#F7495B;" d="M272.607,99.512l59.178-96.547C332.914,1.124,334.919,0,337.081,0h27.955
		c3.431,0,6.212,2.781,6.212,6.212v130.47L272.607,99.512z"/>
	<path style="fill:#F7495B;" d="M98.523,265.366c0.009-0.015,0.018-0.033,0.027-0.048c0.179-0.288,0.336-0.588,0.481-0.894
		c0.041-0.086,0.079-0.173,0.116-0.261c0.123-0.284,0.233-0.575,0.326-0.872c0.015-0.048,0.034-0.095,0.048-0.145
		c0.103-0.351,0.182-0.711,0.241-1.077c0.011-0.067,0.018-0.135,0.026-0.202c0.043-0.313,0.069-0.628,0.078-0.947
		c0.001-0.048,0.012-0.095,0.012-0.143c0-0.046,0.001-0.142,0.001-0.264c0-0.002,0-0.004,0-0.006
		c-0.006-3.106-0.606-30.003-19.227-48.855c-11.728-11.873-27.77-17.893-47.682-17.893c-4.868,0-8.814,3.946-8.814,8.814
		s3.946,8.814,8.814,8.814c14.968,0,26.759,4.225,35.044,12.557c6.063,6.096,9.544,13.63,11.543,20.276
		c-3.631-1.58-7.698-3.077-12.04-4.226c-22.489-5.954-42.053,0.337-55.09,17.718c-2.922,3.895-2.132,9.42,1.762,12.34
		c1.587,1.189,3.442,1.764,5.283,1.764c2.68,0,5.326-1.218,7.057-3.526c8.73-11.636,20.528-15.352,36.068-11.361
		c2.823,0.725,5.512,1.657,8.008,2.662c-3.186,1.776-6.558,3.924-9.926,6.516c-12.979,9.986-28.45,28.556-28.45,60.32
		c0,4.868,3.946,8.814,8.814,8.814s8.814-3.946,8.814-8.814c0-46.529,41.312-56.731,43.164-57.163
		c0.262-0.06,0.517-0.135,0.769-0.216c0.025-0.008,0.049-0.013,0.074-0.021c0.36-0.12,0.703-0.267,1.038-0.429
		c0.028-0.014,0.058-0.021,0.086-0.035c0.041-0.021,0.078-0.048,0.12-0.071c0.289-0.149,0.568-0.313,0.836-0.49
		c0.048-0.032,0.099-0.061,0.147-0.095c0.304-0.212,0.593-0.44,0.866-0.685c0.046-0.041,0.088-0.087,0.134-0.129
		c0.221-0.207,0.429-0.425,0.626-0.653c0.061-0.07,0.122-0.14,0.181-0.212C98.121,265.951,98.334,265.667,98.523,265.366z"/>
</g>
<path style="fill:#FCC854;" d="M501.338,135.461v64.847c0,8.995-5.989,16.89-14.652,19.315l-61.139,17.113l-5.148,74.416
	l-5.148,74.428l-5.159,74.416l-2.767,40c-0.468,6.759-6.087,12.004-12.862,12.004H344.69c-7.121,0-12.892-5.773-12.892-12.892
	v-68.046H183.424v68.046c0,7.121-5.773,12.892-12.892,12.892h-53.15c-6.749,0-12.356-5.206-12.857-11.937l-2.979-40.067
	l-5.547-74.416l-5.535-74.428l-4.102-55.189h170.153c9.15,0,16.568-7.418,16.568-16.568V99.034h146.158
	c4.184,0,8.348,0.572,12.376,1.699l55.068,15.413C495.349,118.57,501.338,126.465,501.338,135.461z"/>
<polygon style="fill:#22B573;" points="415.252,385.58 410.092,459.996 331.798,459.996 331.798,431.061 183.424,431.061 
	183.424,459.996 101.546,459.996 95.999,385.58 "/>
<path style="fill:#F7495B;" d="M425.547,236.697l-5.148,74.416H90.463l-4.102-55.189h170.153c9.15,0,16.568-7.418,16.568-16.568
	v-2.658L425.547,236.697L425.547,236.697z"/>
<circle style="fill:#FFFFFF;" cx="409.288" cy="156.824" r="29.81"/>
<circle style="fill:#333333;" cx="420.242" cy="158.539" r="10.577"/>
<g>
</g>
<g>
</g>
<g>
</g>
<g>
</g>
<g>
</g>
<g>
</g>
<g>
</g>
<g>
</g>
<g>
</g>
<g>
</g>
<g>
</g>
<g>
</g>
<g>
</g>
<g>
</g>
<g>
</g>
</svg>
