<?xml version="1.0" encoding="iso-8859-1"?>
<!-- Generator: Adobe Illustrator 19.0.0, SVG Export Plug-In . SVG Version: 6.00 Build 0)  -->
<svg version="1.1" id="Layer_1" xmlns="http://www.w3.org/2000/svg" xmlns:xlink="http://www.w3.org/1999/xlink" x="0px" y="0px"
	 viewBox="0 0 512.001 512.001" style="enable-background:new 0 0 512.001 512.001;" xml:space="preserve">
<path style="fill:#F7495B;" d="M397.126,19.594c-42.061,36.44-89.201,69.854-141.128,99.092
	c-51.926-29.239-99.065-62.651-141.124-99.09C45.658,73.398,0,165.62,0,270.372l0.006,0.006
	c63.533,84.989,149.777,162.223,255.992,222.031c106.215-59.807,192.459-137.042,255.992-222.031l0.004-0.006
	C511.992,165.617,466.338,73.395,397.126,19.594z"/>
<path style="fill:#22B573;" d="M424.581,44.207c-48.654,46.179-105.049,88.198-168.58,123.972
	c-49.86-28.072-95.31-59.988-136.086-94.745C108.732,63.897,97.9,54.147,87.42,44.207c1.332-1.37,2.676-2.727,4.046-4.071
	c0.741-0.741,1.495-1.47,2.249-2.199c0.314-0.302,0.628-0.603,0.942-0.892c0.716-0.691,1.432-1.37,2.161-2.036
	c0.377-0.364,0.754-0.716,1.131-1.056c0.942-0.867,1.885-1.734,2.84-2.576c1.081-0.98,2.186-1.948,3.292-2.915
	c0.088-0.075,0.176-0.163,0.276-0.226c1.043-0.917,2.098-1.809,3.154-2.702c0.101-0.088,0.201-0.163,0.302-0.251
	c1.156-0.955,2.312-1.897,3.468-2.84c1.194-0.955,2.387-1.91,3.594-2.84c1.307,1.131,2.614,2.262,3.933,3.38
	c1.332,1.131,2.664,2.274,4.008,3.418c2.639,2.224,5.29,4.436,7.967,6.635c1.345,1.106,2.689,2.212,4.046,3.305
	c1.357,1.118,2.714,2.212,4.084,3.305c2.727,2.186,5.479,4.36,8.243,6.534c33.5,26.199,69.815,50.526,108.843,72.504
	c51.921-29.24,99.067-62.652,141.124-99.092C406.75,27.08,415.923,35.298,424.581,44.207z"/>
<path style="fill:#FCC854;" d="M511.987,270.376c-63.532,84.994-149.77,162.222-255.987,222.035
	c-53.102-29.906-101.229-64.173-144.002-101.568c-28.373-24.83-54.409-51.029-77.982-78.259c-1.495-1.734-2.978-3.456-4.461-5.19
	c-1.47-1.747-2.94-3.481-4.398-5.227c-1.458-1.734-2.903-3.493-4.335-5.24c-1.445-1.747-2.878-3.506-4.285-5.265
	c-1.056-1.294-2.098-2.601-3.129-3.908l-4.549-5.768c-0.93-1.206-1.872-2.413-2.802-3.631l-2.01-2.626
	c-1.357-1.784-2.714-3.569-4.046-5.353c0-1.634,0.013-3.267,0.038-4.901c0.013-1.634,0.05-3.255,0.101-4.888
	c0.038-1.533,0.088-3.053,0.151-4.586c0-0.176,0.013-0.352,0.025-0.528c0.05-1.37,0.113-2.752,0.188-4.122
	c0.013-0.201,0.025-0.402,0.038-0.603c0.088-1.571,0.176-3.129,0.289-4.687c0.088-1.332,0.188-2.651,0.289-3.983
	c0-0.038,0.013-0.088,0.013-0.126c0.075-0.867,0.138-1.734,0.226-2.601c0.188-2.249,0.402-4.486,0.653-6.71
	c0.101-0.942,0.201-1.897,0.314-2.84c0.013-0.176,0.025-0.364,0.063-0.54c0.188-1.684,0.402-3.355,0.628-5.014
	c0.038-0.39,0.088-0.779,0.151-1.156c0.126-0.905,0.251-1.822,0.377-2.727c10.806,14.224,22.254,28.21,34.329,41.944
	c58.493,66.522,131.7,126.737,218.127,175.404c104.257-58.707,189.276-134.213,252.456-217.348
	C510.781,236.624,511.987,253.337,511.987,270.376z"/>
<path style="fill:#DD2B44;" d="M364.842,46.176c11.072-8.661,21.837-17.527,32.286-26.58
	c69.215,53.801,114.874,146.023,114.874,250.775l-0.006,0.006c-10.695,14.306-22.048,28.384-34.015,42.205
	C476.037,201.589,431.611,104.146,364.842,46.176z"/>
<path style="fill:#F9BC43;" d="M508.456,220.365c-10.806,14.224-22.254,28.21-34.329,41.944c2.249,16.373,3.556,33.161,3.858,50.275
	c1.495-1.734,2.978-3.456,4.461-5.19c1.47-1.747,2.94-3.481,4.398-5.227c1.458-1.734,2.903-3.493,4.335-5.24
	c1.445-1.747,2.878-3.506,4.285-5.265c1.056-1.294,2.098-2.601,3.129-3.908l4.549-5.768c0.93-1.206,1.872-2.413,2.802-3.631
	l2.011-2.626c1.357-1.784,2.714-3.569,4.046-5.353c0-1.634-0.013-3.267-0.038-4.901c-0.013-1.634-0.05-3.254-0.1-4.888
	c-0.038-1.533-0.088-3.053-0.151-4.586c0-0.176-0.013-0.352-0.025-0.528c-0.05-1.37-0.113-2.752-0.188-4.122
	c-0.013-0.201-0.025-0.402-0.038-0.603c-0.088-1.571-0.176-3.129-0.289-4.687c-0.088-1.332-0.188-2.664-0.289-3.983
	c0-0.038-0.013-0.088-0.013-0.126c-0.075-0.867-0.138-1.734-0.226-2.601c-0.188-2.249-0.402-4.486-0.653-6.71
	c-0.1-0.942-0.201-1.897-0.314-2.84c-0.013-0.176-0.025-0.364-0.063-0.54c-0.188-1.684-0.402-3.355-0.628-5.014
	c-0.038-0.39-0.088-0.779-0.151-1.156C508.708,222.187,508.582,221.269,508.456,220.365z"/>
<path style="fill:#189E5E;" d="M364.844,46.18c9.562,8.306,18.66,17.416,27.242,27.255c11.183-9.537,22.015-19.288,32.495-29.228
	c-1.332-1.37-2.676-2.727-4.046-4.071c-0.741-0.741-1.495-1.47-2.249-2.199c-0.314-0.302-0.628-0.603-0.942-0.892
	c-0.716-0.691-1.432-1.37-2.161-2.036c-0.377-0.364-0.754-0.716-1.131-1.056c-0.942-0.867-1.885-1.734-2.84-2.576
	c-1.081-0.98-2.186-1.948-3.292-2.915c-0.088-0.075-0.176-0.163-0.276-0.226c-1.043-0.917-2.098-1.809-3.154-2.702
	c-0.1-0.088-0.201-0.163-0.302-0.251c-1.156-0.955-2.312-1.897-3.468-2.84c-1.194-0.968-2.387-1.91-3.594-2.852
	c-1.307,1.131-2.614,2.262-3.933,3.393c-1.332,1.131-2.664,2.274-4.008,3.418c-2.639,2.224-5.29,4.436-7.967,6.635
	c-1.345,1.106-2.689,2.212-4.046,3.305c-1.357,1.106-2.714,2.199-4.084,3.305C370.36,41.832,367.608,44.006,364.844,46.18z"/>
<g>
	<path style="fill:#FCC854;" d="M97.475,166.77H86.482v-10.995c0-3.817-3.094-6.911-6.911-6.911c-3.817,0-6.911,3.094-6.911,6.911
		v10.995H61.665c-3.817,0-6.911,3.094-6.911,6.911s3.094,6.911,6.911,6.911h10.995v10.995c0,3.817,3.094,6.911,6.911,6.911
		c3.817,0,6.911-3.094,6.911-6.911v-10.995h10.994c3.817,0,6.911-3.094,6.911-6.911S101.293,166.77,97.475,166.77z"/>
	<path style="fill:#FCC854;" d="M160.058,225.246h-10.995v-10.995c0-3.817-3.094-6.911-6.911-6.911s-6.911,3.094-6.911,6.911v10.995
		h-10.992c-3.817,0-6.911,3.094-6.911,6.911s3.094,6.911,6.911,6.911h10.994v10.994c0,3.817,3.094,6.911,6.911,6.911
		c3.817,0,6.911-3.094,6.911-6.911v-10.994h10.995c3.817,0,6.911-3.094,6.911-6.911S163.876,225.246,160.058,225.246z"/>
	<path style="fill:#FCC854;" d="M228.865,282.158H217.87v-10.995c0-3.817-3.094-6.911-6.911-6.911s-6.911,3.094-6.911,6.911v10.995
		h-10.995c-3.817,0-6.911,3.094-6.911,6.911c0,3.817,3.094,6.911,6.911,6.911h10.995v10.994c0,3.817,3.094,6.911,6.911,6.911
		s6.911-3.094,6.911-6.911v-10.994h10.995c3.817,0,6.911-3.094,6.911-6.911C235.776,285.252,232.683,282.158,228.865,282.158z"/>
	<path style="fill:#FCC854;" d="M450.328,166.77h-10.995v-10.995c0-3.817-3.094-6.911-6.911-6.911c-3.817,0-6.911,3.094-6.911,6.911
		v10.995h-10.994c-3.817,0-6.911,3.094-6.911,6.911s3.094,6.911,6.911,6.911h10.994v10.995c0,3.817,3.094,6.911,6.911,6.911
		c3.817,0,6.911-3.094,6.911-6.911v-10.995h10.995c3.817,0,6.911-3.094,6.911-6.911S454.144,166.77,450.328,166.77z"/>
	<path style="fill:#FCC854;" d="M387.744,225.246H376.75v-10.995c0-3.817-3.094-6.911-6.911-6.911c-3.817,0-6.911,3.094-6.911,6.911
		v10.995h-10.995c-3.817,0-6.911,3.094-6.911,6.911s3.094,6.911,6.911,6.911h10.995v10.994c0,3.817,3.094,6.911,6.911,6.911
		c3.817,0,6.911-3.094,6.911-6.911v-10.994h10.994c3.817,0,6.911-3.094,6.911-6.911S391.561,225.246,387.744,225.246z"/>
	<path style="fill:#FCC854;" d="M318.938,282.158h-10.995v-10.995c0-3.817-3.094-6.911-6.911-6.911
		c-3.817,0-6.911,3.094-6.911,6.911v10.995h-10.995c-3.817,0-6.911,3.094-6.911,6.911c0,3.817,3.094,6.911,6.911,6.911h10.995
		v10.994c0,3.817,3.094,6.911,6.911,6.911c3.817,0,6.911-3.094,6.911-6.911v-10.994h10.995c3.817,0,6.911-3.094,6.911-6.911
		C325.849,285.252,322.755,282.158,318.938,282.158z"/>
	<path style="fill:#FCC854;" d="M273.902,373.2h-10.995v-10.995c0-3.817-3.094-6.911-6.911-6.911c-3.817,0-6.911,3.094-6.911,6.911
		V373.2H238.09c-3.817,0-6.911,3.094-6.911,6.911c0,3.817,3.094,6.911,6.911,6.911h10.995v10.994c0,3.817,3.094,6.911,6.911,6.911
		c3.817,0,6.911-3.094,6.911-6.911v-10.994h10.995c3.817,0,6.911-3.094,6.911-6.911C280.813,376.294,277.719,373.2,273.902,373.2z"
		/>
	<path style="fill:#FCC854;" d="M273.902,204.821h-10.995v-10.995c0-3.817-3.094-6.911-6.911-6.911
		c-3.817,0-6.911,3.094-6.911,6.911v10.995H238.09c-3.817,0-6.911,3.094-6.911,6.911s3.094,6.911,6.911,6.911h10.995v10.994
		c0,3.817,3.094,6.911,6.911,6.911c3.817,0,6.911-3.094,6.911-6.911v-10.994h10.995c3.817,0,6.911-3.094,6.911-6.911
		S277.719,204.821,273.902,204.821z"/>
</g>
<g>
</g>
<g>
</g>
<g>
</g>
<g>
</g>
<g>
</g>
<g>
</g>
<g>
</g>
<g>
</g>
<g>
</g>
<g>
</g>
<g>
</g>
<g>
</g>
<g>
</g>
<g>
</g>
<g>
</g>
</svg>
