<?xml version="1.0" encoding="iso-8859-1"?>
<!-- Generator: Adobe Illustrator 19.0.0, SVG Export Plug-In . SVG Version: 6.00 Build 0)  -->
<svg version="1.1" id="Layer_1" xmlns="http://www.w3.org/2000/svg" xmlns:xlink="http://www.w3.org/1999/xlink" x="0px" y="0px"
	 viewBox="0 0 512 512" style="enable-background:new 0 0 512 512;" xml:space="preserve">
<path style="fill:#F7495B;" d="M234.543,90.866c-3.153,21.55-25.839,54.647-47.39,51.494c-21.55-3.153-33.804-41.363-30.651-62.912
	s23.178-36.463,44.729-33.311C222.782,49.291,237.696,69.316,234.543,90.866z"/>
<path style="fill:#DD2B44;" d="M218.963,90.866c3.051-20.854-10.817-40.279-31.245-44.369c4.334-0.875,8.888-1.037,13.514-0.36
	c21.55,3.153,36.463,23.178,33.311,44.729c-3.153,21.55-25.839,54.647-47.39,51.494c-1.611-0.236-3.162-0.688-4.666-1.294
	C200.229,134.644,216.343,108.776,218.963,90.866z"/>
<path style="fill:#F7495B;" d="M90.326,105.212c15.634,15.163,29.208,52.924,14.044,68.558s-53.321,3.22-68.955-11.943
	c-15.634-15.163-16.015-40.129-0.852-55.763S74.692,90.049,90.326,105.212z"/>
<g>
	<path style="fill:#DD2B44;" d="M86.992,173.77c15.163-15.634,1.59-53.395-14.044-68.558c-5.399-5.236-11.91-8.617-18.748-10.158
		c12.542-2.814,26.209,0.541,36.125,10.158c15.634,15.163,29.208,52.924,14.044,68.558c-6.744,6.953-18.037,8.35-29.873,6.433
		C79.42,179.181,83.738,177.126,86.992,173.77z"/>
	<circle style="fill:#DD2B44;" cx="52.33" cy="136.086" r="8.988"/>
	<circle style="fill:#DD2B44;" cx="188.53" cy="112.212" r="8.988"/>
	<circle style="fill:#DD2B44;" cx="180.393" cy="75.827" r="8.988"/>
</g>
<path style="fill:#22B573;" d="M209.13,159.874c18.583,27.066,27.387,86.91,0.321,105.493s-79.753-11.131-98.336-38.197
	s-11.707-64.072,15.359-82.656S190.546,132.809,209.13,159.874z"/>
<g>
	<path style="fill:#189E5E;" d="M190.275,265.367c27.066-18.583,18.261-78.427-0.321-105.493
		c-9.566-13.933-24.018-22.5-39.481-25.013c22.03-3.609,45.183,5.392,58.656,25.013c18.583,27.066,27.387,86.91,0.321,105.493
		c-8.386,5.757-19.233,6.876-30.761,4.875C182.89,269.343,186.796,267.757,190.275,265.367z"/>
	<circle style="fill:#189E5E;" cx="146.704" cy="199.209" r="8.988"/>
	<circle style="fill:#189E5E;" cx="193.864" cy="212.392" r="8.988"/>
</g>
<path style="fill:#22B573;" d="M365.513,23.159c16.678,24.292,24.581,78.001,0.289,94.68c-24.292,16.678-71.577-9.99-88.256-34.282
	c-16.678-24.292-10.507-57.503,13.785-74.182C315.623-7.304,348.836-1.132,365.513,23.159z"/>
<g>
	<path style="fill:#189E5E;" d="M346.028,117.838c24.292-16.679,16.39-70.388-0.289-94.68c-8.311-12.104-20.73-19.706-34.103-22.227
		c20.137-3.788,41.535,4.251,53.878,22.228c16.679,24.292,24.581,78.001,0.289,94.68c-7.874,5.406-18.168,6.238-29.047,4.093
		C340.094,121.092,343.22,119.766,346.028,117.838z"/>
	<circle style="fill:#189E5E;" cx="336.684" cy="33.893" r="8.988"/>
</g>
<path style="fill:#22B573;" d="M340.355,138.74c-25.394,36.986-37.426,118.763-0.44,144.157
	c36.986,25.394,108.982-15.211,134.376-52.197c25.394-36.986,15.997-87.554-20.987-112.948S365.749,101.754,340.355,138.74z"/>
<g>
	<path style="fill:#189E5E;" d="M448.724,230.701c25.394-36.986,15.997-87.554-20.987-112.948
		c-10.262-7.046-21.571-11.403-33.097-13.247c19.815-3.136,40.818,0.994,58.664,13.247c36.986,25.394,46.382,75.963,20.987,112.948
		c-22.076,32.152-79.363,67.029-118.258,58.916C391.211,283.651,431.14,256.312,448.724,230.701z"/>
	<circle style="fill:#189E5E;" cx="381.95" cy="169.619" r="8.988"/>
	<circle style="fill:#189E5E;" cx="406.471" cy="220.529" r="8.988"/>
</g>
<path style="fill:#22B573;" d="M159.591,349.889c0,57.684,46.763,153.123,104.447,153.123s104.447-95.437,104.447-153.123
	s-46.763-104.447-104.447-104.447S159.591,292.203,159.591,349.889z"/>
<path style="fill:#189E5E;" d="M340.921,349.889c0-53.013-39.495-96.795-90.665-103.541c4.51-0.594,9.11-0.906,13.782-0.906
	c57.684,0,104.447,46.763,104.447,104.447c0,57.686-46.763,153.123-104.447,153.123c-4.673,0-9.272-0.635-13.782-1.817
	C301.426,487.788,340.921,402.901,340.921,349.889z"/>
<path style="fill:#995C0D;" d="M131.19,512h280.772c4.964,0,8.988-4.024,8.988-8.988s-4.024-8.988-8.988-8.988H131.19
	c-4.964,0-8.988,4.024-8.988,8.988S126.226,512,131.19,512z"/>
<g>
	<circle style="fill:#189E5E;" cx="288.842" cy="399.268" r="8.988"/>
	<circle style="fill:#189E5E;" cx="239.813" cy="361.564" r="8.988"/>
	<circle style="fill:#189E5E;" cx="228.259" cy="425.814" r="8.988"/>
	<circle style="fill:#189E5E;" cx="326.569" cy="320.074" r="8.988"/>
</g>
<g>
</g>
<g>
</g>
<g>
</g>
<g>
</g>
<g>
</g>
<g>
</g>
<g>
</g>
<g>
</g>
<g>
</g>
<g>
</g>
<g>
</g>
<g>
</g>
<g>
</g>
<g>
</g>
<g>
</g>
</svg>
