<?xml version="1.0" encoding="iso-8859-1"?>
<!-- Generator: Adobe Illustrator 19.0.0, SVG Export Plug-In . SVG Version: 6.00 Build 0)  -->
<svg version="1.1" id="Layer_1" xmlns="http://www.w3.org/2000/svg" xmlns:xlink="http://www.w3.org/1999/xlink" x="0px" y="0px"
	 viewBox="0 0 511.996 511.996" style="enable-background:new 0 0 511.996 511.996;" xml:space="preserve">
<path style="fill:#E6E6E6;" d="M175.422,180.53c-2.403,2.403-16.863-7.242-19.573-5.192c-1.116-4.987-3.256-9.986-6.023-14.836
	c-13.06-23-40.114-42.847-40.114-42.847c21.383-4.145,42.494,0.41,60.404,13.652c3.439,2.528,6.752,5.386,9.929,8.562l1.275,0.182
	C209.319,147.202,183.37,172.582,175.422,180.53z"/>
<path style="fill:#CCCCCC;" d="M181.32,140.051l-1.275-0.182c-3.177-3.177-6.49-6.035-9.929-8.562
	c-3.735,9.826-9.53,18.651-16.829,25.949c-1.116,1.116-2.277,2.198-3.461,3.245c2.767,4.851,4.907,9.849,6.023,14.836
	c2.71-2.05,17.171,7.595,19.573,5.192C183.37,172.582,209.319,147.202,181.32,140.051z"/>
<path style="fill:#B27214;" d="M179.51,288.745l-0.205,0.615c-8.54-2.824-23.308-6.763-32.087-3.655
	c-35.423,13.356-29.137,83.052-24.196,115.195c1.309,8.551-5.283,16.271-13.937,16.271H19.1c-10.737,0-19.334-8.847-19.095-19.573
	c1.97-90.043,14.996-138.024,49.177-171.682c10.999-10.817,35.172-21.873,41.731-38.087l1.07,0.091
	C143.848,187.919,208.18,214.381,179.51,288.745z"/>
<path style="fill:#808080;" d="M213.836,256.305c0,18.641,11.312,34.613,27.455,41.435c0,0-16.175-35.149-2.701-53.485
	C252.064,225.92,213.836,256.305,213.836,256.305z"/>
<g>
	<path style="fill:#B3B3B3;" d="M485.436,123.074V94.825h-12.525c0,0-6.832,18.787-25.05,18.787v18.218L485.436,123.074z"/>
	<polygon style="fill:#B3B3B3;" points="466.615,198.099 466.615,235.4 348.972,235.4 348.972,173.96 	"/>
</g>
<rect x="348.967" y="123.072" style="fill:#CCCCCC;" width="163.029" height="74.603"/>
<rect x="348.967" y="139.446" style="fill:#F2F2F2;" width="163.029" height="17.078"/>
<path style="fill:#B3B3B3;" d="M182.937,112.895c0,8.301-1.366,16.282-3.894,23.74c-3.678,10.885-9.838,20.643-17.785,28.591
	c-2.403,2.403-4.976,4.646-7.686,6.695c-12.422,9.405-27.885,14.984-44.657,14.984c0,0-9.063,0.512-17.171-1.514
	c-0.228,0.82-0.512,1.64-0.831,2.437l1.07,0.091c49.508,6.923,87.526,49.394,87.526,100.826l-0.205,0.615
	c0.416,0.138,0.806,0.271,1.191,0.403c0,0.788,0.019,1.572,0.072,2.34c1.186,19.798,17.439,35.023,37.183,35.022
	c0.289,0,0.58-0.003,0.87-0.009l28.535-0.626c25.843-0.565,46.983-21.245,48.125-47.08c0.001-0.025,0.002-0.051,0.003-0.079
	c0.079-1.909-0.001-3.768-0.238-5.525c-0.37-3.006-1.147-5.881-2.265-8.575c4.247-6.858,11.82-11.441,20.473-11.441h36.857v-17.25
	v-37.301v-1.56v-74.603v-10.179H182.937V112.895z M283.905,278.9c-0.001,0.021-0.002,0.042-0.002,0.063
	c-0.907,19.837-17.148,35.708-36.996,36.142l-28.539,0.626c-13.989,0.307-25.598-10.363-26.437-24.358
	c-0.066-0.964-0.072-1.933-0.018-2.904c0.959-18.49,16.216-32.974,34.736-32.974h0.519l35.162,0.524
	c10.893,0.159,20.1,8.416,21.419,19.205c0.003,0.026,0.007,0.052,0.01,0.077C283.91,276.42,283.959,277.631,283.905,278.9z"/>
<rect x="348.967" y="208.116" style="fill:#F2F2F2;" width="117.643" height="7.613"/>
<rect x="203.052" y="134.481" style="fill:#E6E6E6;" width="110.584" height="94.422"/>
<path style="fill:#995C0D;" d="M20.499,397.598c1.97-90.043,14.996-138.024,49.177-171.682c10.045-9.879,31.07-19.959,39.639-33.983
	c-5.582-1.818-11.371-3.179-17.332-4.013l-1.07-0.091c-6.559,16.214-30.732,27.27-41.731,38.087
	c-34.182,33.658-47.208,81.64-49.177,171.682c-0.239,10.726,8.358,19.573,19.095,19.573h20.494
	C28.857,417.171,20.26,408.324,20.499,397.598z"/>
<g>
	<path style="fill:#808080;" d="M313.64,153.225v17.079h-61.418c-4.714,0-8.54-3.814-8.54-8.54c0-4.714,3.826-8.54,8.54-8.54H313.64
		z"/>
	<path style="fill:#808080;" d="M313.64,193.077v17.079h-61.418c-4.714,0-8.54-3.814-8.54-8.54c0-4.714,3.826-8.54,8.54-8.54H313.64
		z"/>
</g>
<circle style="fill:#FCC854;" cx="63.678" cy="354.02" r="20.494"/>
<g>
</g>
<g>
</g>
<g>
</g>
<g>
</g>
<g>
</g>
<g>
</g>
<g>
</g>
<g>
</g>
<g>
</g>
<g>
</g>
<g>
</g>
<g>
</g>
<g>
</g>
<g>
</g>
<g>
</g>
</svg>
