<?xml version="1.0" encoding="iso-8859-1"?>
<!-- Generator: Adobe Illustrator 19.0.0, SVG Export Plug-In . SVG Version: 6.00 Build 0)  -->
<svg version="1.1" id="Layer_1" xmlns="http://www.w3.org/2000/svg" xmlns:xlink="http://www.w3.org/1999/xlink" x="0px" y="0px"
	 viewBox="0 0 512 512" style="enable-background:new 0 0 512 512;" xml:space="preserve">
<path style="fill:#F7495B;" d="M414.847,0c-3.299,0-5.972,2.674-5.972,5.972v27.879h-23.356V5.972c0-3.298-2.673-5.972-5.972-5.972
	c-3.299,0-5.972,2.674-5.972,5.972v27.879H350.22V5.972c0-3.298-2.673-5.972-5.972-5.972c-3.299,0-5.972,2.674-5.972,5.972v27.879
	h-23.356V5.972c0-3.298-2.673-5.972-5.972-5.972c-3.299,0-5.972,2.674-5.972,5.972v27.879h-23.356V5.972
	c0-3.298-2.673-5.972-5.972-5.972c-3.299,0-5.972,2.674-5.972,5.972v27.879h-23.356V5.972c0-3.298-2.674-5.972-5.972-5.972
	c-3.298,0-5.972,2.674-5.972,5.972v27.879h-23.356V5.972c0-3.298-2.674-5.972-5.972-5.972c-3.298,0-5.972,2.674-5.972,5.972v27.879
	h-23.356V5.972c0-3.298-2.674-5.972-5.972-5.972c-3.298,0-5.972,2.674-5.972,5.972v27.879h-23.356V5.972
	c0-3.298-2.674-5.972-5.972-5.972s-5.972,2.674-5.972,5.972v27.879h-23.357V5.972c0-3.298-2.674-5.972-5.972-5.972
	c-3.298,0-5.972,2.674-5.972,5.972v27.879h-0.004v444.301h0.004v27.876c0,3.298,2.674,5.972,5.972,5.972
	c3.298,0,5.972-2.674,5.972-5.972v-27.876h23.356v27.876c0,3.298,2.674,5.972,5.972,5.972c3.298,0,5.972-2.674,5.972-5.972v-27.876
	h23.356v27.876c0,3.298,2.674,5.972,5.972,5.972c3.298,0,5.972-2.674,5.972-5.972v-27.876h23.356v27.876
	c0,3.298,2.674,5.972,5.972,5.972c3.298,0,5.972-2.674,5.972-5.972v-27.876h23.356v27.876c0,3.298,2.674,5.972,5.972,5.972
	c3.298,0,5.972-2.674,5.972-5.972v-27.876h23.356v27.876c0,3.298,2.673,5.972,5.972,5.972c3.299,0,5.972-2.674,5.972-5.972v-27.876
	h23.356v27.876c0,3.298,2.673,5.972,5.972,5.972c3.299,0,5.972-2.674,5.972-5.972v-27.876h23.356v27.876
	c0,3.298,2.673,5.972,5.972,5.972c3.299,0,5.972-2.674,5.972-5.972v-27.876h23.356v27.876c0,3.298,2.673,5.972,5.972,5.972
	c3.299,0,5.972-2.674,5.972-5.972v-27.876h23.356v27.876c0,3.298,2.673,5.972,5.972,5.972c3.299,0,5.972-2.674,5.972-5.972v-27.876
	v-5.834V39.684v-5.833V5.972C420.818,2.674,418.146,0,414.847,0z"/>
<path style="fill:#FCC854;" d="M420.823,96.625v318.75l-41.217,23.887l-41.205-23.887l-41.205,23.887l-41.205-23.887l-41.205,23.887
	l-41.205-23.887l-41.205,23.887L91.18,415.375V96.625l41.205-23.887l41.217,23.887l41.205-23.887l41.205,23.887l41.205-23.887
	l41.205,23.887l41.193-23.887L420.823,96.625z M323.065,256l-67.063-92.718L188.927,256l67.075,92.718L323.065,256z"/>
<g>
	<path style="fill:#F7495B;" d="M256.003,362.982L178.607,256l77.396-106.982L333.384,256L256.003,362.982z M199.245,256
		l56.756,78.454L312.746,256l-56.745-78.454L199.245,256z"/>
	<path style="fill:#F7495B;" d="M332.929,172.63h14.844v14.842c0,2.968,2.407,5.375,5.375,5.375c2.968,0,5.375-2.407,5.375-5.375
		V172.63h14.843c2.968,0,5.375-2.407,5.375-5.375c0-2.968-2.407-5.375-5.375-5.375h-14.844v-14.843c0-2.968-2.407-5.375-5.375-5.375
		s-5.375,2.407-5.375,5.375v14.843h-14.844c-2.968,0-5.375,2.407-5.375,5.375C327.555,170.224,329.96,172.63,332.929,172.63z"/>
	<path style="fill:#F7495B;" d="M373.364,347.913h-14.842v-14.842c0-2.968-2.407-5.375-5.375-5.375s-5.375,2.407-5.375,5.375v14.842
		h-14.844c-2.968,0-5.375,2.407-5.375,5.375c0,2.968,2.407,5.375,5.375,5.375h14.844v14.844c0,2.968,2.407,5.375,5.375,5.375
		s5.375-2.407,5.375-5.375v-14.844h14.843c2.968,0,5.375-2.407,5.375-5.375C378.74,350.32,376.333,347.913,373.364,347.913z"/>
</g>
<path style="fill:#FCC854;" d="M276.756,249.824h-14.843V234.98c0-2.968-2.407-5.375-5.375-5.375c-2.968,0-5.375,2.407-5.375,5.375
	v14.843H236.32c-2.968,0-5.375,2.407-5.375,5.375s2.407,5.375,5.375,5.375h14.843v14.842c0,2.968,2.407,5.375,5.375,5.375
	c2.968,0,5.375-2.407,5.375-5.375v-14.842h14.843c2.968,0,5.375-2.407,5.375-5.375S279.724,249.824,276.756,249.824z"/>
<g>
	<path style="fill:#F7495B;" d="M173.318,161.881h-14.842v-14.843c0-2.968-2.407-5.375-5.375-5.375
		c-2.968,0-5.375,2.407-5.375,5.375v14.843h-14.843c-2.968,0-5.375,2.407-5.375,5.375c0,2.968,2.407,5.375,5.375,5.375h14.843
		v14.842c0,2.968,2.407,5.375,5.375,5.375c2.968,0,5.375-2.407,5.375-5.375V172.63h14.842c2.968,0,5.375-2.407,5.375-5.375
		C178.692,164.288,176.286,161.881,173.318,161.881z"/>
	<path style="fill:#F7495B;" d="M173.318,347.913h-14.842v-14.842c0-2.968-2.407-5.375-5.375-5.375
		c-2.968,0-5.375,2.407-5.375,5.375v14.842h-14.843c-2.968,0-5.375,2.407-5.375,5.375c0,2.968,2.407,5.375,5.375,5.375h14.843
		v14.844c0,2.968,2.407,5.375,5.375,5.375c2.968,0,5.375-2.407,5.375-5.375v-14.844h14.842c2.968,0,5.375-2.407,5.375-5.375
		C178.692,350.32,176.286,347.913,173.318,347.913z"/>
</g>
<g>
</g>
<g>
</g>
<g>
</g>
<g>
</g>
<g>
</g>
<g>
</g>
<g>
</g>
<g>
</g>
<g>
</g>
<g>
</g>
<g>
</g>
<g>
</g>
<g>
</g>
<g>
</g>
<g>
</g>
</svg>
