<?xml version="1.0" encoding="iso-8859-1"?>
<!-- Generator: Adobe Illustrator 19.0.0, SVG Export Plug-In . SVG Version: 6.00 Build 0)  -->
<svg version="1.1" id="Layer_1" xmlns="http://www.w3.org/2000/svg" xmlns:xlink="http://www.w3.org/1999/xlink" x="0px" y="0px"
	 viewBox="0 0 512 512" style="enable-background:new 0 0 512 512;" xml:space="preserve">
<g>
	<path style="fill:#4D4D4D;" d="M124.241,369.147c-6.427,1.923-13.24,2.955-20.289,2.955c-39.1,0-70.799-31.699-70.799-70.799
		c0-18.025,6.743-34.467,17.826-46.969c-11.083-12.49-17.826-28.932-17.826-46.957c0-34.01,23.983-62.414,55.952-69.228
		c-1.947,10.273,50.792,5.301,50.792,16.137l11.728,42.219l23.884,68.449C175.509,293.043,147.315,346.073,124.241,369.147z"/>
	<path style="fill:#4D4D4D;" d="M478.846,207.378c0,18.025-6.743,34.467-17.826,46.957c11.083,12.502,17.826,28.943,17.826,46.969
		c0,39.1-31.699,70.799-70.799,70.799c-7.06,0-13.874-1.032-20.3-2.955c-35.709-48.976-47.309-83.57-47.309-111.658l8.472-117.867
		c0-1.02,35.451-23.684,35.428-24.692c5.066-1.149,29.191,19.208,33.131,15.268c3.26-3.26,27.731,21.861,29.068,17.745
		C465.981,160.561,478.846,182.468,478.846,207.378z"/>
</g>
<path style="fill:#CCCCCC;" d="M425.838,169.85v133.694c0,32.931-21.074,60.924-50.475,71.256h0.023v17.814
	c0,7.295-0.657,14.437-1.912,21.368c-1.091,6.04-2.627,11.915-4.597,17.591c-5.969,17.298-15.797,32.79-28.463,45.456
	C318.813,498.631,288.966,512,256,512c-52.293,0-96.729-33.623-112.877-80.427c-1.97-5.676-3.507-11.552-4.597-17.591
	c-1.255-6.931-1.912-14.073-1.912-21.368V374.8c-29.377-10.344-50.464-38.326-50.464-71.256V169.85C86.15,76.041,162.192,0,256,0
	C349.797,0,425.838,76.041,425.838,169.85z"/>
<g>
	<path style="fill:#999999;" d="M351.299,392.619v-17.814h-0.006c23.467-10.338,40.295-38.329,40.295-71.259V169.85
		c0-93.803-60.704-169.845-135.587-169.845c93.803,0,169.845,76.042,169.845,169.845v133.696c0,32.93-21.079,60.921-50.475,71.259
		h0.007v17.814c0,65.931-53.447,119.379-119.377,119.381C308.632,511.998,351.299,458.549,351.299,392.619z"/>
	<path style="fill:#999999;" d="M247.228,377.321c-6.369,0-12.368-2.478-16.891-6.979c-4.543-4.543-7.031-10.555-7.027-16.947
		c0.004-6.387,2.496-12.388,7.017-16.897L256,310.824l25.7,25.7c4.499,4.497,6.985,10.501,6.985,16.885
		c0,6.393-2.486,12.398-7,16.912c-4.528,4.516-10.53,6.997-16.911,6.997c-3.054,0-6.021-0.568-8.777-1.654
		C253.237,376.752,250.275,377.321,247.228,377.321z"/>
</g>
<path style="fill:#4D4D4D;" d="M273.392,344.801c2.381,2.381,3.565,5.488,3.565,8.608c0,3.12-1.184,6.239-3.565,8.62
	c-4.761,4.75-12.478,4.75-17.228,0L256,361.864l-0.164,0.164c-2.381,2.369-5.5,3.565-8.608,3.565c-3.12,0-6.239-1.196-8.62-3.565
	c-4.761-4.761-4.761-12.478,0-17.228l0.164-0.164L256,327.409l17.228,17.228L273.392,344.801z"/>
<path style="fill:#999999;" d="M351.333,43.333c-0.258,0.704,62.442,51.051,68.599,61.911
	c-12.032,3.319-60.354,36.066-48.322,39.385c-2.545,4.48-63.528,4.006-63.433,9.026c-18.787,13.193-45.89,23.127-84.907,23.127
	c-49.865,0-82.21,12.021-102.85,25.718c-27.431,18.189-34.268,39.369-34.268,39.369v-57.946c0-10.836,1.009-21.426,2.955-31.699
	c6.45-34.197,23.162-64.771,46.793-88.402c30.351-30.351,72.136-49.267,118.354-49.736c0.575-0.012,1.161-0.012,1.747-0.012
	C291.335,14.073,324.16,24.862,351.333,43.333z"/>
<path style="fill:#666666;" d="M351.333,29.26c-0.258,0.704,62.442,51.051,68.599,61.911c-12.032,3.319-60.354,36.066-48.322,39.385
	c-2.545,4.48-63.528,4.006-63.433,9.025c-18.787,13.193-45.89,23.127-84.907,23.127c-49.865,0-82.21,12.021-102.85,25.718
	c-27.431,18.189-34.268,39.369-34.268,39.369V169.85c0-10.836,1.009-21.426,2.955-31.699c6.45-34.197,23.162-64.771,46.793-88.402
	c30.35-30.351,72.135-49.267,118.353-49.736C254.827,0,255.414,0,256,0C291.335,0,324.16,10.789,351.333,29.26z"/>
<path style="fill:#FCC854;" d="M378.06,55.26c23.396,0,42.36,18.975,42.36,42.36c0,23.396-18.963,42.36-42.36,42.36
	c-23.396,0-42.36-18.963-42.36-42.36C335.7,74.235,354.664,55.26,378.06,55.26z"/>
<g>
	<path style="fill:#F7495B;" d="M425.803,166.824c-6.814,1.536-14.096,0.539-20.324-2.991
		c-3.319,12.021-14.331,20.863-27.419,20.863s-24.1-8.843-27.419-20.863c-10.86,6.157-24.898,4.609-34.151-4.644
		c-5.418-5.418-8.198-12.502-8.315-19.608c-0.094-5.019,1.138-10.05,3.682-14.53c-12.032-3.319-20.875-14.343-20.875-27.431
		s8.843-24.1,20.875-27.419c-6.157-10.86-4.621-24.898,4.632-34.151c9.253-9.253,23.291-10.789,34.151-4.632
		c0.199-0.727,0.434-1.454,0.692-2.158c3.976-10.918,14.437-18.705,26.727-18.705c13.088,0,24.1,8.831,27.419,20.863
		c10.86-6.157,24.898-4.621,34.151,4.632c9.253,9.253,10.789,23.291,4.632,34.151c12.032,3.319,20.875,14.331,20.875,27.419
		s-8.843,24.112-20.875,27.431c3.987,7.013,4.75,15.363,2.275,22.892c-1.337,4.116-3.647,7.986-6.908,11.247
		C435.689,163.13,430.869,165.675,425.803,166.824z M420.42,97.62c0-23.385-18.963-42.36-42.36-42.36
		c-23.396,0-42.36,18.975-42.36,42.36c0,23.396,18.963,42.36,42.36,42.36C401.456,139.98,420.42,121.016,420.42,97.62z"/>
	<path style="fill:#F7495B;" d="M284.334,409.642c7.752,7.752,7.752,20.312,0,28.064l-0.27,0.27L256,466.04l-28.076-28.064
		l-0.258-0.27c-3.87-3.882-5.817-8.948-5.817-14.038c0-5.066,1.947-10.156,5.817-14.026c7.752-7.752,20.312-7.752,28.064,0
		L256,409.9l0.258-0.258c3.87-3.87,8.96-5.817,14.038-5.817C275.374,403.825,280.464,405.772,284.334,409.642z"/>
</g>
<path style="fill:#F9BC43;" d="M378.06,148.775c-28.207,0-51.155-22.948-51.155-51.155s22.948-51.155,51.155-51.155
	s51.155,22.948,51.155,51.155S406.267,148.775,378.06,148.775z M378.06,64.056c-18.507,0-33.564,15.057-33.564,33.564
	s15.057,33.564,33.564,33.564s33.564-15.057,33.564-33.564S396.567,64.056,378.06,64.056z"/>
<path style="fill:#F7495B;" d="M170.342,346.419c-0.047,0-0.082,0-0.129,0l0,0c-4.855,0-8.796-3.94-8.796-8.796l0,0
	c0-4.855,3.94-8.796,8.796-8.796l0,0c0.012,0,0.023,0,0.047,0l0,0c0.059,0,0.117,0,0.176,0l0,0c4.855-0.012,8.807,3.905,8.831,8.76
	l0,0c0.012,4.855-3.905,8.807-8.772,8.831l0,0c-0.012,0-0.012,0-0.023,0l0,0C170.424,346.419,170.377,346.419,170.342,346.419z
	 M137.177,338.878c-4.374-2.111-6.216-7.377-4.093-11.751l0,0c2.111-4.374,7.365-6.204,11.739-4.093l0,0
	c4.374,2.123,6.204,7.377,4.093,11.751l0,0c-1.513,3.143-4.656,4.972-7.916,4.972l0,0
	C139.71,339.758,138.408,339.477,137.177,338.878z M191.745,334.703c-2.134-4.363-0.317-9.628,4.046-11.763l0,0
	c4.374-2.123,9.628-0.317,11.763,4.046l0,0c2.134,4.374,0.317,9.64-4.046,11.763l0,0l0,0l0,0c-1.243,0.61-2.557,0.903-3.847,0.903
	l0,0C196.401,339.641,193.27,337.835,191.745,334.703z M110.708,317.757L110.708,317.757L110.708,317.757
	c-3.037-3.788-2.416-9.335,1.372-12.361l0,0c3.8-3.037,9.335-2.416,12.373,1.372h-0.012c3.037,3.8,2.428,9.335-1.372,12.361l0,0
	c-1.618,1.302-3.565,1.935-5.488,1.935l0,0C115,321.064,112.443,319.927,110.708,317.757z M217.534,318.965
	c-3.8-3.026-4.445-8.561-1.419-12.361l0,0c3.014-3.8,8.549-4.445,12.361-1.419l0,0c3.8,3.014,4.433,8.549,1.419,12.361l0,0
	c-1.736,2.181-4.304,3.319-6.896,3.319l0,0C221.075,320.865,219.152,320.243,217.534,318.965z M95.955,287.254L95.955,287.254
	L95.955,287.254c-1.079-4.738,1.876-9.452,6.614-10.531l0,0c4.738-1.091,9.452,1.865,10.531,6.603l0,0
	c1.091,4.738-1.876,9.452-6.603,10.543l0,0c-0.668,0.141-1.325,0.223-1.982,0.223l0,0
	C100.517,294.091,96.893,291.323,95.955,287.254z M234.023,293.634c-4.738-1.067-7.717-5.782-6.65-10.52l0,0
	c1.067-4.738,5.77-7.717,10.508-6.65l0,0c4.738,1.067,7.717,5.77,6.649,10.52l0,0l0,0l0,0c-0.915,4.081-4.55,6.861-8.573,6.861l0,0
	C235.324,293.845,234.668,293.774,234.023,293.634z M102.557,263.904c-4.738-1.079-7.705-5.793-6.626-10.52l0,0
	c1.067-4.738,5.782-7.705,10.52-6.638l0,0c4.738,1.079,7.705,5.793,6.626,10.531l0,0c-0.926,4.081-4.55,6.849-8.561,6.849l0,0
	C103.871,264.127,103.214,264.057,102.557,263.904z M227.303,257.067L227.303,257.067c-1.102-4.738,1.853-9.464,6.591-10.555l0,0
	c4.726-1.091,9.452,1.865,10.543,6.591l0,0c0,0,0,0,0,0.012l0,0c1.091,4.726-1.853,9.452-6.591,10.543l0,0
	c-0.668,0.152-1.325,0.223-1.982,0.223l0,0C231.853,263.881,228.241,261.137,227.303,257.067z M112.021,235.207
	c-3.8-3.026-4.421-8.561-1.396-12.361l0,0c3.026-3.8,8.561-4.421,12.361-1.396l0,0c3.8,3.026,4.421,8.561,1.396,12.361l0,0
	c-1.736,2.181-4.304,3.319-6.884,3.319l0,0C115.575,237.13,113.64,236.497,112.021,235.207z M215.915,233.647
	c-3.049-3.788-2.439-9.323,1.349-12.373l0,0c3.788-3.037,9.323-2.428,12.361,1.36l0,0l0,0l0,0c3.049,3.788,2.439,9.323-1.349,12.361
	l0,0c-1.618,1.302-3.565,1.935-5.5,1.935l0,0C220.196,236.931,217.651,235.805,215.915,233.647z M132.978,213.441
	c-2.123-4.374-0.305-9.64,4.069-11.763l0,0l0,0l0,0c4.374-2.111,9.64-0.293,11.751,4.081l0,0c2.123,4.363,0.305,9.628-4.069,11.751
	l0,0c-1.231,0.598-2.545,0.88-3.835,0.88l0,0C137.634,218.39,134.503,216.572,132.978,213.441z M195.498,217.416
	c-4.374-2.111-6.216-7.365-4.116-11.739l0,0c2.111-4.374,7.365-6.227,11.739-4.116l0,0c4.386,2.099,6.227,7.365,4.116,11.739l0,0
	c-1.513,3.155-4.656,4.984-7.928,4.984l0,0C198.031,218.284,196.729,218.003,195.498,217.416z M161.289,202.886
	c-0.012-4.855,3.929-8.796,8.784-8.807l0,0c4.855-0.012,8.796,3.917,8.807,8.784l0,0c0.012,4.855-3.917,8.796-8.772,8.807l0,0
	c-0.012,0-0.012,0-0.023,0l0,0C165.241,211.67,161.3,207.741,161.289,202.886z"/>
<path style="fill:#999999;" d="M170.213,321.207c-28.098,0-50.957-22.859-50.957-50.957s22.859-50.957,50.957-50.957
	s50.957,22.859,50.957,50.957S198.311,321.207,170.213,321.207z"/>
<circle style="fill:#4D4D4D;" cx="170.213" cy="270.249" r="39.23"/>
<path style="fill:#999999;" d="M341.782,321.207c-28.098,0-50.957-22.859-50.957-50.957s22.859-50.957,50.957-50.957
	c28.098,0,50.956,22.859,50.956,50.957S369.88,321.207,341.782,321.207z"/>
<circle style="fill:#4D4D4D;" cx="341.787" cy="270.249" r="39.23"/>
<path style="fill:#F7495B;" d="M341.904,346.419c-0.035,0-0.082,0-0.118,0l0,0c-4.866,0-8.796-3.94-8.796-8.796l0,0
	c0-4.855,3.93-8.796,8.796-8.796l0,0c0.013,0,0.025,0,0.035,0l0,0c0.059,0,0.118,0,0.176,0h0.012
	c4.855-0.012,8.807,3.905,8.819,8.76l0,0c0.025,4.867-3.904,8.819-8.76,8.831l0,0c-0.012,0-0.023,0-0.035,0l0,0
	C341.998,346.419,341.951,346.419,341.904,346.419z M308.739,338.878c-4.373-2.111-6.204-7.377-4.093-11.751l0,0
	c2.112-4.374,7.377-6.204,11.752-4.093l0,0c4.373,2.123,6.204,7.377,4.093,11.751l0,0c-1.526,3.143-4.657,4.972-7.929,4.972l0,0
	C311.284,339.758,309.97,339.477,308.739,338.878z M363.319,334.703c-2.134-4.363-0.317-9.628,4.046-11.763l0,0
	c4.363-2.123,9.628-0.317,11.763,4.058l0,0c2.123,4.363,0.317,9.628-4.058,11.751l0,0c0,0,0,0,0.012,0l0,0
	c-1.244,0.61-2.568,0.891-3.858,0.891l0,0C367.963,339.641,364.843,337.835,363.319,334.703z M282.268,317.757
	c-3.026-3.8-2.416-9.323,1.385-12.361l0,0c3.787-3.037,9.323-2.416,12.361,1.372l0,0c3.037,3.8,2.416,9.335-1.372,12.361l0,0
	c-1.631,1.302-3.565,1.935-5.49,1.935l0,0C286.573,321.064,284.017,319.927,282.268,317.757z M389.096,318.953
	c-3.8-3.014-4.433-8.549-1.419-12.349l0,0c3.025-3.8,8.561-4.445,12.36-1.419l0,0c3.811,3.014,4.445,8.549,1.42,12.349l0,0
	c-1.736,2.193-4.305,3.331-6.897,3.331l0,0C392.649,320.865,390.714,320.243,389.096,318.953z M267.528,287.254
	c-1.092-4.738,1.876-9.452,6.603-10.543l0,0c4.738-1.079,9.452,1.876,10.543,6.614l0,0c1.079,4.738-1.878,9.452-6.616,10.543l0,0
	c-0.657,0.152-1.325,0.223-1.97,0.223l0,0C272.078,294.091,268.455,291.323,267.528,287.254z M405.585,293.634
	c-4.738-1.067-7.717-5.782-6.65-10.52l0,0c1.067-4.738,5.77-7.717,10.52-6.65l0,0c4.738,1.067,7.717,5.77,6.65,10.52l0,0
	c-0.926,4.081-4.55,6.861-8.573,6.861l0,0C406.886,293.845,406.24,293.774,405.585,293.634z M274.119,263.904
	c-4.738-1.067-7.705-5.782-6.626-10.52l0,0c1.079-4.738,5.782-7.705,10.52-6.638l0,0c4.738,1.079,7.705,5.793,6.638,10.531l0,0
	c-0.926,4.081-4.562,6.849-8.573,6.849l0,0C275.431,264.127,274.776,264.057,274.119,263.904z M398.864,257.067
	c-1.091-4.738,1.866-9.452,6.591-10.555l0,0c4.738-1.091,9.454,1.865,10.555,6.591l0,0l0,0l0,0
	c1.092,4.738-1.865,9.464-6.591,10.555l0,0c-0.667,0.152-1.337,0.223-1.992,0.223l0,0
	C403.427,263.881,399.803,261.137,398.864,257.067z M283.583,235.207c-3.799-3.026-4.421-8.561-1.394-12.361l0,0
	c3.026-3.8,8.561-4.421,12.361-1.396l0,0c3.799,3.026,4.432,8.561,1.394,12.361l0,0c-1.735,2.181-4.292,3.319-6.884,3.319l0,0
	C287.148,237.13,285.2,236.497,283.583,235.207z M387.476,233.647L387.476,233.647c-3.037-3.788-2.438-9.323,1.349-12.373l0,0
	c3.788-3.037,9.323-2.439,12.372,1.36l0,0c3.037,3.788,2.428,9.323-1.36,12.361l0,0c-1.618,1.302-3.565,1.935-5.488,1.935l0,0
	C391.77,236.931,389.213,235.805,387.476,233.647z M304.54,213.441c-2.123-4.374-0.293-9.64,4.081-11.763l0,0c0,0,0,0-0.013,0l0,0
	c4.374-2.111,9.641-0.293,11.763,4.081l0,0c2.124,4.363,0.293,9.628-4.069,11.751l0,0c-1.244,0.598-2.545,0.88-3.836,0.88l0,0
	C309.195,218.39,306.064,216.572,304.54,213.441z M367.071,217.416c-4.386-2.111-6.228-7.365-4.116-11.739l0,0
	c2.099-4.374,7.353-6.227,11.739-4.116l0,0c4.373,2.099,6.216,7.353,4.116,11.739l0,0c-1.513,3.143-4.666,4.984-7.94,4.984l0,0
	C369.592,218.284,368.291,218.003,367.071,217.416z M332.862,202.886c-0.012-4.855,3.917-8.796,8.771-8.807l0,0
	c4.856-0.012,8.809,3.917,8.82,8.772l0,0c0,4.867-3.93,8.807-8.784,8.819l0,0c-0.012,0-0.012,0-0.023,0l0,0
	C336.801,211.67,332.862,207.741,332.862,202.886z"/>
<g>
	<path style="fill:#4D4D4D;" d="M374.894,403.227c-0.563,6.532-1.665,12.912-3.237,19.092
		c-37.61,9.804-76.639,14.706-115.669,14.706s-78.035-4.902-115.633-14.695c-1.595-6.192-2.697-12.572-3.26-19.104
		C214.121,424.853,297.867,424.853,374.894,403.227z"/>
	<path style="fill:#4D4D4D;" d="M329.876,444.159c-4.859,0-8.796-3.938-8.796-8.796v-29.904c0-4.858,3.937-8.796,8.796-8.796
		c4.859,0,8.796,3.938,8.796,8.796v29.904C338.672,440.221,334.735,444.159,329.876,444.159z"/>
	<path style="fill:#4D4D4D;" d="M182.118,444.159c-4.858,0-8.796-3.938-8.796-8.796v-29.904c0-4.858,3.938-8.796,8.796-8.796
		c4.858,0,8.796,3.938,8.796,8.796v29.904C190.913,440.221,186.975,444.159,182.118,444.159z"/>
</g>
<g>
</g>
<g>
</g>
<g>
</g>
<g>
</g>
<g>
</g>
<g>
</g>
<g>
</g>
<g>
</g>
<g>
</g>
<g>
</g>
<g>
</g>
<g>
</g>
<g>
</g>
<g>
</g>
<g>
</g>
</svg>
