<?xml version="1.0" encoding="iso-8859-1"?>
<!-- Generator: Adobe Illustrator 19.0.0, SVG Export Plug-In . SVG Version: 6.00 Build 0)  -->
<svg version="1.1" id="Layer_1" xmlns="http://www.w3.org/2000/svg" xmlns:xlink="http://www.w3.org/1999/xlink" x="0px" y="0px"
	 viewBox="0 0 512 512" style="enable-background:new 0 0 512 512;" xml:space="preserve">
<path style="fill:#CCCCCC;" d="M425.842,169.85v133.694c0,32.931-21.074,60.924-50.475,71.256h0.023v17.814
	c0,7.295-0.657,14.437-1.912,21.368c-1.091,6.04-2.627,11.915-4.597,17.591c-5.969,17.298-15.797,32.79-28.463,45.456
	C318.817,498.631,288.97,512,256.004,512c-52.293,0-96.729-33.623-112.877-80.427c-1.97-5.676-3.507-11.552-4.597-17.591
	c-1.255-6.931-1.912-14.073-1.912-21.368V374.8c-29.377-10.344-50.464-38.326-50.464-71.256V169.85
	C86.154,76.041,162.196,0,256.004,0C349.801,0,425.842,76.041,425.842,169.85z"/>
<g>
	<path style="fill:#999999;" d="M351.298,392.617v-17.814h-0.006c23.467-10.338,40.295-38.329,40.295-71.259V169.848
		c0-93.803-60.704-169.845-135.587-169.845c93.803,0,169.845,76.042,169.845,169.845v133.696c0,32.93-21.079,60.921-50.475,71.259
		h0.007v17.814c0,65.931-53.447,119.379-119.377,119.381C308.633,511.996,351.298,458.548,351.298,392.617z"/>
	<path style="fill:#999999;" d="M170.221,321.207c-28.098,0-50.957-22.859-50.957-50.957s22.859-50.957,50.957-50.957
		s50.957,22.859,50.957,50.957S198.319,321.207,170.221,321.207z"/>
</g>
<circle style="fill:#4D4D4D;" cx="170.224" cy="270.249" r="39.23"/>
<path style="fill:#999999;" d="M341.789,321.207c-28.098,0-50.957-22.859-50.957-50.957s22.859-50.957,50.957-50.957
	c28.098,0,50.957,22.859,50.957,50.957S369.887,321.207,341.789,321.207z"/>
<circle style="fill:#4D4D4D;" cx="341.786" cy="270.249" r="39.23"/>
<path style="fill:#999999;" d="M270.304,368.623c-5.052,0-9.923-1.179-14.298-3.405c-4.374,2.226-9.247,3.405-14.299,3.405
	c-8.434,0-16.365-3.285-22.329-9.248c-5.963-5.965-9.248-13.894-9.248-22.328c0-8.434,3.285-16.365,9.248-22.329l36.627-36.627
	l36.627,36.627c5.963,5.963,9.248,13.894,9.248,22.328s-3.285,16.363-9.248,22.328C286.668,365.338,278.738,368.623,270.304,368.623
	z"/>
<path style="fill:#4D4D4D;" d="M255.741,351.082l0.264-0.264l0.264,0.264c7.752,7.752,20.319,7.752,28.071,0l0,0
	c7.752-7.752,7.752-20.319,0-28.071l-0.264-0.264l-28.071-28.071l-28.071,28.071l-0.264,0.264c-7.752,7.752-7.752,20.319,0,28.071
	l0,0C235.421,358.834,247.99,358.834,255.741,351.082z"/>
<g>
	<path style="fill:#999999;" d="M373.479,413.981c-1.091,6.04-2.627,11.915-4.597,17.591H143.127
		c-1.97-5.676-3.507-11.552-4.597-17.591H373.479z"/>
	<path style="fill:#999999;" d="M255.994,450.452c-4.858,0-8.796-3.938-8.796-8.796v-37.765c0-4.858,3.938-8.796,8.796-8.796
		c4.858,0,8.796,3.938,8.796,8.796v37.765C264.789,446.514,260.851,450.452,255.994,450.452z"/>
	<path style="fill:#999999;" d="M218.23,450.452c-4.858,0-8.796-3.938-8.796-8.796v-37.765c0-4.858,3.938-8.796,8.796-8.796
		c4.858,0,8.796,3.938,8.796,8.796v37.765C227.025,446.514,223.087,450.452,218.23,450.452z"/>
	<path style="fill:#999999;" d="M180.465,450.452c-4.858,0-8.796-3.938-8.796-8.796v-37.765c0-4.858,3.938-8.796,8.796-8.796
		c4.858,0,8.796,3.938,8.796,8.796v37.765C189.26,446.514,185.322,450.452,180.465,450.452z"/>
	<path style="fill:#999999;" d="M293.759,450.452c-4.858,0-8.796-3.938-8.796-8.796v-37.765c0-4.858,3.938-8.796,8.796-8.796
		c4.858,0,8.796,3.938,8.796,8.796v37.765C302.554,446.514,298.616,450.452,293.759,450.452z"/>
	<path style="fill:#999999;" d="M331.523,450.452c-4.858,0-8.796-3.938-8.796-8.796v-37.765c0-4.858,3.938-8.796,8.796-8.796
		c4.858,0,8.796,3.938,8.796,8.796v37.765C340.319,446.514,336.381,450.452,331.523,450.452z"/>
</g>
<g>
	<circle style="fill:#E6E6E6;" cx="187.687" cy="122.33" r="40.753"/>
	<circle style="fill:#E6E6E6;" cx="205.278" cy="58.122" r="15.539"/>
</g>
<g>
</g>
<g>
</g>
<g>
</g>
<g>
</g>
<g>
</g>
<g>
</g>
<g>
</g>
<g>
</g>
<g>
</g>
<g>
</g>
<g>
</g>
<g>
</g>
<g>
</g>
<g>
</g>
<g>
</g>
</svg>
