<?xml version="1.0" encoding="iso-8859-1"?>
<!-- Generator: Adobe Illustrator 19.0.0, SVG Export Plug-In . SVG Version: 6.00 Build 0)  -->
<svg version="1.1" id="Layer_1" xmlns="http://www.w3.org/2000/svg" xmlns:xlink="http://www.w3.org/1999/xlink" x="0px" y="0px"
	 viewBox="0 0 512 512" style="enable-background:new 0 0 512 512;" xml:space="preserve">
<polygon style="fill:#FCDB75;" points="194.483,445.331 105.527,463.109 94.946,373.013 12.529,335.109 56.926,256.001 
	12.529,176.891 94.946,138.987 105.527,48.891 194.483,66.669 256.001,0 317.517,66.669 406.473,48.891 417.054,138.987 
	499.471,176.891 455.074,256.001 499.471,335.109 417.054,373.013 406.473,463.109 317.517,445.331 256.001,512 "/>
<polygon style="fill:#FCC854;" points="256.001,25.31 311.436,85.388 391.596,69.368 401.132,150.556 475.399,184.713 
	435.393,256.001 475.399,327.287 401.132,361.445 391.596,442.633 311.436,426.613 256.001,486.69 200.564,426.613 120.404,442.633 
	110.868,361.445 36.601,327.287 76.607,256.001 36.601,184.713 110.868,150.556 120.404,69.368 200.564,85.388 "/>
<polygon style="fill:#F9BC43;" points="216.784,376.697 160.075,388.029 153.33,330.594 100.791,306.431 129.092,256.001 
	100.791,205.569 153.33,181.406 160.075,123.971 216.784,135.303 256.001,92.803 295.216,135.303 351.925,123.971 358.67,181.406 
	411.209,205.569 382.908,256.001 411.209,306.431 358.67,330.594 351.925,388.029 295.216,376.697 256.001,419.197 "/>
<circle style="fill:#F7495B;" cx="256.002" cy="256.002" r="141.108"/>
<path style="fill:#DD2B44;" d="M256.001,114.887c61.594,0,111.525,63.178,111.525,141.113s-49.931,141.114-111.525,141.114
	c77.934,0,141.113-63.178,141.113-141.114C397.113,178.065,333.935,114.887,256.001,114.887z"/>
<g>
</g>
<g>
</g>
<g>
</g>
<g>
</g>
<g>
</g>
<g>
</g>
<g>
</g>
<g>
</g>
<g>
</g>
<g>
</g>
<g>
</g>
<g>
</g>
<g>
</g>
<g>
</g>
<g>
</g>
</svg>
