<?xml version="1.0" encoding="iso-8859-1"?>
<!-- Generator: Adobe Illustrator 19.0.0, SVG Export Plug-In . SVG Version: 6.00 Build 0)  -->
<svg version="1.1" id="Layer_1" xmlns="http://www.w3.org/2000/svg" xmlns:xlink="http://www.w3.org/1999/xlink" x="0px" y="0px"
	 viewBox="0 0 512 512" style="enable-background:new 0 0 512 512;" xml:space="preserve">
<g>
	<path style="fill:#22B573;" d="M465.864,181.687l3.248,63.755l-0.068,0.17c-7.31,15.058-5.59,25.782-13.874,25.782
		c-6.529,0-0.826,14.832-6.79,16.597l-32.44,9.053c-9.46-9.89-65.139-44.673-76.195-52.809l3.772-31.685
		c0.158-1.845-34.15-15.282-13.971-15.974c10.564-0.362,43.748-5.813,59.719-14.685l0.419-0.204L465.864,181.687L465.864,181.687z"
		/>
	<path style="fill:#22B573;" d="M251.479,104.737l57.803,43.318c24.428,19.23,24.311,47.369,16.129,58.459
		c-6.643-0.566-62.627,35.457-69.405,35.457c-6.79,0-61.093-23.036-67.735-22.471c-7.571-10.252,29.588-65.845,17.457-70.406
		L251.479,104.737z"/>
	<path style="fill:#22B573;" d="M46.657,181.687h76.18c-4.459,8.928,34.341,6.623,34.341,17.283c0,1.878-4.685,44.929-4.526,46.773
		c-11.045,8.136-57.913,44.427-67.373,54.318l-21.648,18.106c-5.964-1.765-6.295-39.23-12.825-39.23
		c-8.114,0-0.212-36.155-7.397-33.496L46.657,181.687z"/>
</g>
<g>
	<path style="fill:#F7495B;" d="M512,307.794c0,20.867-9.607,39.482-24.635,51.658c-80.477,15.296-92.547-54.111-60.621-115.425
		c5.964-1.765,12.255-2.705,18.785-2.705c8.283,0,16.205,1.516,23.515,4.289C494.143,255.095,512,279.368,512,307.794z"/>
	<path style="fill:#F7495B;" d="M396.134,211.335c0,1.878-0.079,3.734-0.238,5.579c-31.219,53.358-119.759,0.162-119.759-45.004
		c8.182-11.09,19.735-19.543,33.145-23.854h0.011c6.416-2.071,13.263-3.191,20.369-3.191c26.14,0,48.75,15.084,59.602,37.027
		C393.667,190.762,396.134,200.766,396.134,211.335z"/>
	<path style="fill:#F7495B;" d="M205.728,149.096c12.131,4.56,22.564,12.561,30.135,22.813
		c5.055,57.237-87.697,63.272-119.759,45.016c-0.158-1.845-0.238-3.712-0.238-5.59c0-10.66,2.512-20.72,6.971-29.648
		c10.886-21.84,33.451-36.823,59.5-36.823C190.576,144.864,198.452,146.358,205.728,149.096z"/>
	<path style="fill:#F7495B;" d="M66.482,241.323c6.529,0,12.821,0.939,18.785,2.705c20.61,38.682,21.417,106.624-60.621,115.425
		C9.607,347.276,0,328.661,0,307.794c0-28.596,18.061-52.982,43.409-62.352C50.595,242.783,58.369,241.323,66.482,241.323z"/>
</g>
<path style="fill:#FCC854;" d="M492.208,407.263H19.803c0-16.375,1.663-32.364,4.843-47.811
	c9.087-44.246,30.554-83.977,60.621-115.425h0.011c9.46-9.89,19.781-18.966,30.825-27.102
	c34.084-25.099,75.162-41.247,119.759-45.016c6.643-0.566,13.353-0.849,20.143-0.849c6.778,0,13.489,0.283,20.131,0.849
	c44.597,3.757,85.675,19.916,119.759,45.004v0.011c11.056,8.136,21.376,17.212,30.837,27.102h0.011
	c30.067,31.448,51.534,71.179,60.621,115.425C490.545,374.899,492.208,390.889,492.208,407.263z"/>
<g>
	<path style="fill:#F9BC43;" d="M394.682,244.027h-0.011c-9.46-9.89-19.781-18.966-30.825-27.102
		c-34.084-25.099-75.162-41.247-119.759-45.016c-1.365-0.117-2.735-0.213-4.106-0.306c5.299-0.358,10.641-0.543,16.026-0.543
		c6.79,0,13.5,0.283,20.143,0.849c44.597,3.768,85.675,19.916,119.759,45.016c11.045,8.136,21.365,17.212,30.825,27.102h0.011
		c30.067,31.448,51.534,71.179,60.621,115.425c3.18,15.447,4.843,31.436,4.843,47.811h-32.062c0-16.374-1.663-32.364-4.843-47.811
		C446.216,315.206,424.749,275.475,394.682,244.027z"/>
	<path style="fill:#F9BC43;" d="M115.769,369.921c-10.626,0-19.269-8.644-19.269-19.27c0-10.625,8.644-19.269,19.269-19.269
		c2.812,0,5.092,2.28,5.092,5.092c0,2.812-2.28,5.092-5.092,5.092c-5.01,0-9.085,4.076-9.085,9.085c0,5.01,4.076,9.086,9.085,9.086
		c5.009,0,9.085-4.076,9.085-9.086c0-2.812,2.28-5.092,5.092-5.092c2.812,0,5.092,2.28,5.092,5.092
		C135.039,361.277,126.395,369.921,115.769,369.921z"/>
	<path style="fill:#F9BC43;" d="M271.563,349.044c-10.626,0-19.269-8.644-19.269-19.27c0-10.625,8.644-19.269,19.269-19.269
		c2.812,0,5.092,2.28,5.092,5.092c0,2.812-2.28,5.092-5.092,5.092c-5.01,0-9.085,4.076-9.085,9.085c0,5.01,4.076,9.086,9.085,9.086
		c5.009,0,9.085-4.076,9.085-9.086c0-2.812,2.28-5.092,5.092-5.092c2.812,0,5.092,2.28,5.092,5.092
		C290.832,340.399,282.189,349.044,271.563,349.044z"/>
	<path style="fill:#F9BC43;" d="M394.631,374.409c-10.626,0-19.269-8.644-19.269-19.27c0-10.625,8.644-19.269,19.269-19.269
		c2.812,0,5.092,2.28,5.092,5.092s-2.28,5.092-5.092,5.092c-5.01,0-9.085,4.076-9.085,9.085c0,5.01,4.076,9.086,9.085,9.086
		s9.085-4.076,9.085-9.086c0-2.812,2.28-5.092,5.092-5.092s5.092,2.28,5.092,5.092C413.9,365.765,405.257,374.409,394.631,374.409z"
		/>
	<path style="fill:#F9BC43;" d="M350.5,294.635c-10.626,0-19.269-8.644-19.269-19.27c0-10.625,8.644-19.269,19.269-19.269
		c2.812,0,5.092,2.28,5.092,5.092s-2.28,5.092-5.092,5.092c-5.01,0-9.085,4.076-9.085,9.085c0,5.01,4.076,9.086,9.085,9.086
		s9.085-4.076,9.085-9.086c0-2.812,2.28-5.092,5.092-5.092s5.092,2.28,5.092,5.092C369.769,285.99,361.126,294.635,350.5,294.635z"
		/>
	<path style="fill:#F9BC43;" d="M192.641,304.987c-10.626,0-19.269-8.644-19.269-19.27c0-10.625,8.644-19.269,19.269-19.269
		c2.812,0,5.092,2.28,5.092,5.092s-2.28,5.092-5.092,5.092c-5.01,0-9.085,4.076-9.085,9.085c0,5.01,4.076,9.086,9.085,9.086
		s9.085-4.076,9.085-9.086c0-2.812,2.28-5.092,5.092-5.092c2.812,0,5.092,2.28,5.092,5.092
		C211.91,296.342,203.267,304.987,192.641,304.987z"/>
</g>
<g>
</g>
<g>
</g>
<g>
</g>
<g>
</g>
<g>
</g>
<g>
</g>
<g>
</g>
<g>
</g>
<g>
</g>
<g>
</g>
<g>
</g>
<g>
</g>
<g>
</g>
<g>
</g>
<g>
</g>
</svg>
