<?xml version="1.0" encoding="iso-8859-1"?>
<!-- Generator: Adobe Illustrator 19.0.0, SVG Export Plug-In . SVG Version: 6.00 Build 0)  -->
<svg version="1.1" id="Layer_1" xmlns="http://www.w3.org/2000/svg" xmlns:xlink="http://www.w3.org/1999/xlink" x="0px" y="0px"
	 viewBox="0 0 512 512" style="enable-background:new 0 0 512 512;" xml:space="preserve">
<path style="fill:#E6E6E6;" d="M287.618,439.689v0.012l-0.023,0.36H52.755c-15.861,0-29.003-12.306-30.026-28.144L0,62.062h312.159
	l-11.422,175.776C300.737,237.838,299.9,277.275,287.618,439.689z"/>
<polygon style="fill:#F2F2F2;" points="268.945,102.558 265.319,158.369 159.501,187.321 46.84,158.369 46.829,158.369 
	43.203,102.558 "/>
<path style="fill:#F7495B;" d="M265.319,158.369l-5.159,79.469c0,0-3.73,124.822-81.677,161.727h-59.878
	c-13.688,0-26.354-4.613-36.475-12.41c-13.224-10.156-22.101-25.738-23.252-43.575l-12.05-185.211H265.319z"/>
<path style="fill:#F9798D;" d="M118.605,158.369v241.196c-13.688,0-26.354-4.613-36.475-12.41V158.369H118.605z"/>
<path style="fill:#FCC854;" d="M97.681,237.841c0,111.682,90.536,202.219,202.219,202.219S502.12,349.525,502.12,237.841H97.681z"/>
<path style="fill:#FCDB75;" d="M465.125,237.838c0,42.913-16.361,81.991-43.18,111.366c-3.381,3.718-6.949,7.286-10.679,10.679
	c-27.632,25.25-63.875,41.228-103.813,43.017c-2.51,0.116-5.02,0.174-7.553,0.174c-2.533,0-5.043-0.058-7.553-0.174
	c-39.938-1.789-76.181-17.767-103.813-43.017c-3.73-3.393-7.297-6.96-10.679-10.679c-26.819-29.375-43.18-68.453-43.18-111.366
	H465.125z"/>
<polygon style="fill:#FCC854;" points="427.395,354.654 416.716,365.332 411.266,359.883 307.453,256.07 307.453,410.616 
	292.347,410.616 292.347,256.07 188.534,359.883 183.061,365.356 172.383,354.677 177.856,349.204 289.222,237.838 310.579,237.838 
	"/>
<path style="fill:#22B573;" d="M299.9,449.938c-4.236,0-8.567-0.131-12.874-0.389c-41.458-2.48-80.932-16.956-114.177-41.87
	c-0.102-0.071-0.203-0.144-0.303-0.218c-25.737-19.357-47.061-44.708-61.665-73.312c-15.315-29.998-23.081-62.402-23.081-96.309
	h19.754c0,30.755,7.039,60.136,20.921,87.327c13.193,25.843,32.438,48.761,55.666,66.297c0.098,0.069,0.194,0.138,0.289,0.21
	c30.195,22.709,66.081,35.903,103.777,38.158c3.917,0.235,7.849,0.354,11.693,0.354c106.059,0,192.346-86.285,192.346-192.346H512
	C512,354.791,416.852,449.938,299.9,449.938z"/>
<g>
</g>
<g>
</g>
<g>
</g>
<g>
</g>
<g>
</g>
<g>
</g>
<g>
</g>
<g>
</g>
<g>
</g>
<g>
</g>
<g>
</g>
<g>
</g>
<g>
</g>
<g>
</g>
<g>
</g>
</svg>
