<?xml version="1.0" encoding="iso-8859-1"?>
<!-- Generator: Adobe Illustrator 19.0.0, SVG Export Plug-In . SVG Version: 6.00 Build 0)  -->
<svg version="1.1" id="Layer_1" xmlns="http://www.w3.org/2000/svg" xmlns:xlink="http://www.w3.org/1999/xlink" x="0px" y="0px"
	 viewBox="0 0 512 512" style="enable-background:new 0 0 512 512;" xml:space="preserve">
<path style="fill:#F9BC43;" d="M283.393,143.261c6.752,6.908,10.918,16.366,10.918,26.794c0,6.584-1.664,12.786-4.586,18.197
	c-2.933,5.412-7.124,10.033-12.175,13.48c17.06,6.608,30.337,20.831,35.652,38.502l20.722,7.705
	c20.449,7.604,34.015,27.121,34.015,48.937v195.248c0,10.977-8.898,19.875-19.875,19.875H163.936
	c-10.977,0-19.875-8.898-19.875-19.875V296.877c0-21.818,13.565-41.334,34.015-48.937l20.722-7.705
	c2.658-8.835,7.303-16.809,13.421-23.393c6.118-6.597,13.708-11.804,22.232-15.109c-10.116-6.896-16.761-18.508-16.761-31.678
	c0-10.427,4.166-19.885,10.918-26.794"/>
<path style="fill:#FCC854;" d="M312.256,247.939l-14.959-7.705c-3.837-17.671-13.422-31.894-25.739-38.502
	c3.647-3.448,6.672-8.069,8.79-13.48c2.109-5.412,3.31-11.613,3.31-18.197c0-4.279-0.514-8.391-1.448-12.235h-52.418
	c-0.935,3.844-1.448,7.955-1.448,12.235c0,13.17,4.797,24.782,12.1,31.678c-6.153,3.305-11.634,8.512-16.05,15.109
	c-4.417,6.584-7.77,14.558-9.689,23.393l-14.959,7.705c-14.763,7.604-24.555,27.121-24.555,48.937v184.721
	c0,10.137,8.218,18.355,18.355,18.355h124.913c10.137,0,18.355-8.218,18.355-18.355v-184.72
	C336.811,275.06,327.019,255.542,312.256,247.939z"/>
<path style="fill:#22B573;" d="M312.434,316.578c-9.007-22.337-30.872-38.109-56.434-38.109s-47.428,15.772-56.434,38.109h-22.457
	v157.784h157.784V316.578L312.434,316.578L312.434,316.578z"/>
<path style="fill:#F7495B;" d="M342.075,481.546h-172.15V309.395h24.98c11.378-23.304,34.855-38.109,61.095-38.109
	c26.242,0,49.718,14.805,61.094,38.109h24.98v172.151H342.075z M184.291,467.179h143.418V323.762h-20.123l-1.813-4.498
	c-8.233-20.418-27.77-33.611-49.771-33.611c-22.001,0-41.539,13.194-49.772,33.612l-1.813,4.496h-20.123v143.416H184.291z"/>
<path style="fill:#FFFFFF;" d="M279.465,344.915c-3.967,0-7.183,3.216-7.183,7.183v15.564h-9.098v-31.127
	c0-3.967-3.217-7.183-7.183-7.183c-3.967,0-7.183,3.216-7.183,7.183v67.043h-8.859v-16.761c0-3.967-3.217-7.183-7.183-7.183
	s-7.183,3.216-7.183,7.183v23.944c0,3.967,3.217,7.183,7.183,7.183h16.043v13.17c0,3.967,3.217,7.183,7.183,7.183
	c3.967,0,7.183-3.216,7.183-7.183v-49.086h16.281c3.967,0,7.183-3.216,7.183-7.183v-22.747
	C286.648,348.13,283.433,344.915,279.465,344.915z"/>
<g>
	<path style="fill:#F7495B;" d="M361.765,73.95H150.239l7.162,33.116c4.718,21.82,24.018,37.391,46.342,37.391H308.26
		c22.324,0,41.624-15.573,46.342-37.391L361.765,73.95z"/>
	<path style="fill:#F7495B;" d="M209.307,73.947C217.072,30.457,235.058,0,256,0c20.947,0,38.934,30.457,46.699,73.947"/>
</g>
<g>
	<path style="fill:#DD2B44;" d="M321.879,107.066l7.162-33.116h32.723l-7.162,33.116c-4.719,21.82-24.018,37.391-46.342,37.391
		h-32.723C297.86,144.459,317.161,128.886,321.879,107.066z"/>
	<path style="fill:#DD2B44;" d="M256.002,0L256.002,0c20.942,0,38.929,30.457,46.694,73.947h-22.348
		C276.3,30.457,266.922,0.001,256.002,0z"/>
</g>
<g>
</g>
<g>
</g>
<g>
</g>
<g>
</g>
<g>
</g>
<g>
</g>
<g>
</g>
<g>
</g>
<g>
</g>
<g>
</g>
<g>
</g>
<g>
</g>
<g>
</g>
<g>
</g>
<g>
</g>
</svg>
