<?xml version="1.0" encoding="iso-8859-1"?>
<!-- Generator: Adobe Illustrator 19.0.0, SVG Export Plug-In . SVG Version: 6.00 Build 0)  -->
<svg version="1.1" id="Layer_1" xmlns="http://www.w3.org/2000/svg" xmlns:xlink="http://www.w3.org/1999/xlink" x="0px" y="0px"
	 viewBox="0 0 512 512" style="enable-background:new 0 0 512 512;" xml:space="preserve">
<g>
	<path style="fill:#F9BC43;" d="M397.575,82.631c5.895,4.803,11.597,9.944,17.089,15.436c87.421,87.435,87.409,229.169-0.013,316.59
		s-229.156,87.435-316.59,0c-5.479-5.479-10.594-11.153-15.397-17.036v-0.013"/>
	<path style="fill:#F9BC43;" d="M429.347,114.402c5.895,4.803,11.597,9.944,17.089,15.436
		c87.421,87.435,87.409,229.169-0.013,316.59s-229.156,87.435-316.59,0c-5.479-5.479-10.594-11.153-15.397-17.036v-0.013"/>
</g>
<g>
	<path style="fill:#E8AA3D;" d="M382.041,67.097c5.895,4.803,11.596,9.944,17.089,15.436c87.421,87.435,87.409,229.169-0.013,316.59
		s-229.156,87.435-316.59,0c-5.479-5.479-10.594-11.153-15.397-17.036v-0.013"/>
	<path style="fill:#E8AA3D;" d="M411.341,96.397c5.895,4.803,11.596,9.944,17.089,15.436c87.421,87.435,87.409,229.169-0.013,316.59
		s-229.156,87.435-316.59,0c-5.479-5.479-10.594-11.153-15.397-17.036v-0.013"/>
</g>
<path style="fill:#F9BC43;" d="M417.358,417.371c-87.423,87.41-229.159,87.435-316.594,0c-3.015-3.015-5.909-6.078-8.704-9.217
	c-2.197-2.454-4.334-4.944-6.397-7.471c87.935,72.016,217.854,66.974,299.918-15.089s87.105-211.982,15.101-299.918
	c2.515,2.051,4.993,4.175,7.435,6.36c3.15,2.808,6.238,5.726,9.254,8.741C504.793,188.212,504.781,329.948,417.358,417.371z"/>
<path style="fill:#E8AA3D;" d="M408.117,92.036c-2.808-3.15-5.726-6.238-8.753-9.266c-2.307-2.307-4.651-4.554-7.032-6.727
	c2.893,3.15,5.677,6.36,8.35,9.632c72.004,87.935,66.962,217.854-15.101,299.918s-211.982,87.105-299.918,15.089
	c-3.272-2.674-6.483-5.457-9.632-8.363c2.173,2.381,4.419,4.737,6.727,7.044c3.04,3.04,6.141,5.97,9.303,8.79
	c87.911,78.535,222.909,75.593,307.291-8.79C483.746,314.969,486.676,179.947,408.117,92.036z"/>
<path style="fill:#FCC854;" d="M2.575,257.831c6.934,45.5,27.932,89.278,62.97,124.316c87.435,87.423,229.171,87.423,316.594,0
	c87.423-87.435,87.435-229.159,0-316.594C337.311,20.712,278.174-1.116,219.429,0.044l-2.246,2.246L0.049,219.437
	C-0.207,232.267,0.635,245.11,2.575,257.831z"/>
<path style="fill:#F9BC43;" d="M2.575,257.831c54.937-1.697,109.373-23.525,151.32-65.46C196.49,149.777,218.33,94.303,219.429,38.5
	c-0.342-12.989-1.111-25.039-2.246-36.209L0.049,219.437C-0.207,232.267,0.635,245.11,2.575,257.831z"/>
<path style="fill:#FCDB75;" d="M0.043,219.437c55.797-1.095,111.264-22.934,153.856-65.525s64.43-98.058,65.535-153.865
	C163.608,1.133,1.12,163.621,0.043,219.437z"/>
<g>
	<circle style="fill:#E8AA3D;" cx="336.004" cy="311.32" r="9.156"/>
	<circle style="fill:#E8AA3D;" cx="392.736" cy="184.306" r="9.156"/>
	<circle style="fill:#E8AA3D;" cx="269.677" cy="104.355" r="9.156"/>
	<circle style="fill:#E8AA3D;" cx="245.627" cy="236.801" r="9.156"/>
</g>
<g>
	<circle style="fill:#FCC854;" cx="168.154" cy="69.203" r="9.156"/>
	<circle style="fill:#FCC854;" cx="113.486" cy="122.594" r="9.156"/>
</g>
<circle style="fill:#E8AA3D;" cx="142.603" cy="330.658" r="9.156"/>
<g>
</g>
<g>
</g>
<g>
</g>
<g>
</g>
<g>
</g>
<g>
</g>
<g>
</g>
<g>
</g>
<g>
</g>
<g>
</g>
<g>
</g>
<g>
</g>
<g>
</g>
<g>
</g>
<g>
</g>
</svg>
