<?xml version="1.0" encoding="iso-8859-1"?>
<!-- Generator: Adobe Illustrator 19.0.0, SVG Export Plug-In . SVG Version: 6.00 Build 0)  -->
<svg version="1.1" id="Layer_1" xmlns="http://www.w3.org/2000/svg" xmlns:xlink="http://www.w3.org/1999/xlink" x="0px" y="0px"
	 viewBox="0 0 512 512" style="enable-background:new 0 0 512 512;" xml:space="preserve">
<path style="fill:#B27214;" d="M337.229,475.828v28.638c0,4.161-3.374,7.534-7.534,7.534H182.318c-4.161,0-7.534-3.374-7.534-7.534
	v-28.638l-0.006,0.005C98.832,450.038,45.475,389.144,45.475,318.147c0-79.495,66.889-146.313,157.471-165.401l-9.839-143.55
	C192.766,4.222,196.71,0,201.695,0h108.612c4.986,0,8.929,4.222,8.588,9.196l-9.84,143.551
	c90.582,19.087,157.471,85.905,157.471,165.401c0,71.008-53.357,131.891-129.303,157.685v0.012L337.229,475.828z"/>
<g>
	<path style="fill:#995C0D;" d="M466.526,327.049H45.474c-4.917,0-8.903-3.986-8.903-8.903c0-4.917,3.986-8.903,8.903-8.903h421.052
		c4.918,0,8.903,3.986,8.903,8.903C475.429,323.063,471.444,327.049,466.526,327.049z"/>
	<path style="fill:#995C0D;" d="M463.459,295.888H48.98c-4.917,0-8.903-3.986-8.903-8.903c0-4.917,3.986-8.903,8.903-8.903h414.478
		c4.918,0,8.903,3.986,8.903,8.903C472.362,291.902,468.377,295.888,463.459,295.888z"/>
	<path style="fill:#995C0D;" d="M463.024,358.211H48.87c-4.917,0-8.903-3.986-8.903-8.903c0-4.917,3.986-8.903,8.903-8.903h414.154
		c4.918,0,8.903,3.986,8.903,8.903C471.927,354.225,467.942,358.211,463.024,358.211z"/>
	<path style="fill:#995C0D;" d="M317.273,41.762H194.734c-4.917,0-8.903-3.986-8.903-8.903s3.986-8.903,8.903-8.903h122.538
		c4.918,0,8.903,3.986,8.903,8.903S322.19,41.762,317.273,41.762z"/>
	<path style="fill:#995C0D;" d="M309.055,152.747l9.839-143.551C319.235,4.222,315.293,0,310.307,0H279.85l-8.433,152.747
		c72.962,19.087,137.762,85.905,137.762,165.401c0,70.627-42.532,131.257-103.199,157.28c-0.317,0.136-0.953,0.405-0.953,0.405
		h-114.45c-61.174-25.794-104.151-86.689-104.151-157.685c0-79.495,64.799-146.313,137.762-165.401L215.754,0h-14.059
		c-4.986,0-8.929,4.222-8.588,9.196l9.839,143.551c-90.582,19.087-157.471,85.905-157.471,165.401
		c0,70.996,53.357,131.891,129.303,157.685l0.006-0.005v0.005h-0.006l0.006,20.266v8.366c0,4.161,3.374,7.534,7.534,7.534h8.264
		v-15.901h114.443l-0.002,15.901h24.661c4.161,0,7.534-3.374,7.534-7.534v-8.366h0.006v-20.266h-0.006v-0.005l0.006,0.005
		c75.946-25.794,129.303-86.689,129.303-157.685C466.526,238.652,399.637,171.834,309.055,152.747z"/>
</g>
<g>
	<circle style="fill:#BC7D2A;" cx="173.021" cy="241.928" r="26.707"/>
	<circle style="fill:#BC7D2A;" cx="207.469" cy="203.528" r="12.885"/>
</g>
<g>
</g>
<g>
</g>
<g>
</g>
<g>
</g>
<g>
</g>
<g>
</g>
<g>
</g>
<g>
</g>
<g>
</g>
<g>
</g>
<g>
</g>
<g>
</g>
<g>
</g>
<g>
</g>
<g>
</g>
</svg>
