<?xml version="1.0" encoding="iso-8859-1"?>
<!-- Generator: Adobe Illustrator 19.0.0, SVG Export Plug-In . SVG Version: 6.00 Build 0)  -->
<svg version="1.1" id="Layer_1" xmlns="http://www.w3.org/2000/svg" xmlns:xlink="http://www.w3.org/1999/xlink" x="0px" y="0px"
	 viewBox="0 0 512 512" style="enable-background:new 0 0 512 512;" xml:space="preserve">
<path style="fill:#FCC854;" d="M256.001,0.004L256.001,0.004c-93.803,0-169.845,76.043-169.845,169.845v133.696
	c0,32.93,21.079,60.921,50.475,71.259h-0.007v17.814c0,65.932,53.449,119.382,119.382,119.382l0,0
	c65.932,0,119.382-53.448,119.382-119.382v-17.814h-0.016c29.395-10.338,50.475-38.329,50.475-71.259V169.849
	C425.846,76.046,349.803,0.004,256.001,0.004z"/>
<path style="fill:#F9BC43;" d="M351.299,392.618v-17.814h-0.006c23.467-10.338,40.295-38.329,40.295-71.259V169.849
	c0-93.803-60.704-169.845-135.587-169.845c93.803,0,169.845,76.043,169.845,169.845v133.696c0,32.93-21.079,60.921-50.475,71.259
	h0.007v17.814c0,65.931-53.447,119.379-119.377,119.382C308.633,511.998,351.299,458.549,351.299,392.618z"/>
<path style="fill:#F7495B;" d="M187.778,326.917c-1.668,0-3.355-0.106-5.018-0.314c-15.693-1.956-30.539-8.212-42.923-18.089
	c-12.395-9.899-21.792-22.984-27.18-37.844l-13.238-36.469l93.796,12.974c21.595,2.983,36.965,23.015,34.26,44.654
	C224.981,311.831,207.915,326.917,187.778,326.917z"/>
<path style="fill:#4D4D4D;" d="M191.608,258.792c15.363,2.123,26.152,16.196,24.229,31.582
	c-1.935,15.527-16.102,26.539-31.617,24.593c-13.827-1.724-26.586-7.259-37.071-15.621c-10.484-8.373-18.717-19.573-23.467-32.673
	l-6.603-18.189L191.608,258.792z"/>
<path style="fill:#F7495B;" d="M354.914,31.77l23.056,84.99l-23.056,44.881l-98.91,80.263l-98.922-80.263l-21.872-55.436
	l21.872-74.435C184.935,11.774,219.086,0,256.004,0C292.911,0,327.061,11.774,354.914,31.77z"/>
<path style="fill:#22B573;" d="M425.842,169.85v70.049l-37.47-21.063c-20.664-11.622-33.459-33.482-33.459-57.195V31.77
	C397.86,62.59,425.842,112.948,425.842,169.85z"/>
<path style="fill:#F7495B;" d="M324.228,326.917c-20.128,0-37.197-15.083-39.705-35.085c-2.706-21.64,12.663-41.672,34.258-44.659
	l93.819-12.974l-13.266,36.481c-5.41,14.882-14.806,27.966-27.174,37.832c-12.388,9.879-27.229,16.135-42.923,18.091
	C327.584,326.812,325.896,326.917,324.228,326.917z"/>
<path style="fill:#4D4D4D;" d="M394.929,248.483l-6.614,18.189c-4.761,13.1-12.971,24.299-23.467,32.673
	c-10.484,8.362-23.232,13.897-37.059,15.621c-15.527,1.947-29.682-9.065-31.629-24.593c-1.923-15.387,8.878-29.46,24.229-31.582
	L394.929,248.483z"/>
<g>
	<path style="fill:#F7495B;" d="M309.622,400.296c5.641,5.641,9.124,13.416,9.124,22.013c0,17.193-13.944,31.125-31.125,31.125
		h-63.235c-8.596,0-16.372-3.483-22.013-9.112c-5.629-5.641-9.112-13.416-9.112-22.013c0-17.193,13.932-31.125,31.125-31.125h63.235
		C296.206,391.184,303.993,394.667,309.622,400.296z"/>
	<path style="fill:#F7495B;" d="M256.004,282.118c11.657,24.874,25.097,49.737,35.511,61.511c-20.453,17.474-50.569,17.474-71.034,0
		C230.895,331.854,244.347,306.992,256.004,282.118z"/>
</g>
<path style="fill:#22B573;" d="M157.082,31.77v129.871c0,23.713-12.795,45.573-33.459,57.195l-3.213,1.806l-34.256,19.257V169.85
	C86.154,112.948,114.124,62.59,157.082,31.77z"/>
<path style="fill:#189E5E;" d="M354.914,31.77v21.919c22.751,30.374,36.672,71.233,36.672,116.161v50.792l34.256,19.257V169.85
	C425.842,112.948,397.872,62.59,354.914,31.77z"/>
<g>
	<path style="fill:#F9BC43;" d="M331.273,351.687c-4.372,0-8.161-3.256-8.717-7.706c-0.602-4.82,2.818-9.216,7.638-9.818
		c25.751-3.216,49.161-17.058,64.225-37.974c2.838-3.942,8.335-4.836,12.278-1.997c3.942,2.838,4.836,8.335,1.997,12.278
		c-17.913,24.873-45.729,41.33-76.318,45.151C332.003,351.663,331.635,351.687,331.273,351.687z"/>
	<path style="fill:#F9BC43;" d="M180.736,351.687c-0.364,0-0.731-0.023-1.1-0.069c-30.602-3.821-58.42-20.278-76.321-45.152
		c-2.837-3.943-1.942-9.439,2.002-12.276c3.943-2.838,9.439-1.942,12.276,2.002c15.052,20.915,38.46,34.756,64.222,37.971
		c4.82,0.602,8.24,4.997,7.638,9.818C188.897,348.429,185.108,351.687,180.736,351.687z"/>
</g>
<polygon style="fill:#FCC854;" points="256.001,49.912 274.903,88.213 317.171,94.355 286.586,124.169 293.805,166.266 
	256.001,146.39 218.194,166.266 225.415,124.169 194.83,94.355 237.098,88.213 "/>
<path style="fill:#4D4D4D;" d="M289.424,431.103h-66.847c-4.858,0-8.796-3.938-8.796-8.796s3.938-8.796,8.796-8.796h66.847
	c4.858,0,8.796,3.938,8.796,8.796S294.282,431.103,289.424,431.103z"/>
<g>
</g>
<g>
</g>
<g>
</g>
<g>
</g>
<g>
</g>
<g>
</g>
<g>
</g>
<g>
</g>
<g>
</g>
<g>
</g>
<g>
</g>
<g>
</g>
<g>
</g>
<g>
</g>
<g>
</g>
</svg>
