<?xml version="1.0" encoding="iso-8859-1"?>
<!-- Generator: Adobe Illustrator 19.0.0, SVG Export Plug-In . SVG Version: 6.00 Build 0)  -->
<svg version="1.1" id="Layer_1" xmlns="http://www.w3.org/2000/svg" xmlns:xlink="http://www.w3.org/1999/xlink" x="0px" y="0px"
	 viewBox="0 0 511.995 511.995" style="enable-background:new 0 0 511.995 511.995;" xml:space="preserve">
<g>
	<rect x="371.934" y="0" style="fill:#FCC854;" width="113.961" height="301.234"/>
	<rect x="257.973" y="0" style="fill:#FCC854;" width="113.948" height="364.792"/>
	<rect x="144.025" y="0" style="fill:#FCC854;" width="113.961" height="438.868"/>
	<rect x="30.061" style="fill:#FCC854;" width="113.961" height="511.995"/>
</g>
<rect x="30.061" style="fill:#F9BC43;" width="17.026" height="511.995"/>
<rect x="58.178" style="fill:#FCDB75;" width="17.026" height="511.995"/>
<g>
	<rect x="98.485" style="fill:#F9BC43;" width="45.526" height="511.995"/>
	<rect x="257.973" y="0" style="fill:#F9BC43;" width="17.03" height="364.792"/>
</g>
<rect x="286.1" y="0" style="fill:#FCDB75;" width="17.03" height="364.792"/>
<g>
	<rect x="326.42" y="0" style="fill:#F9BC43;" width="45.513" height="364.792"/>
	<rect x="371.934" y="0" style="fill:#F9BC43;" width="17.03" height="301.234"/>
</g>
<rect x="400.035" y="0" style="fill:#FCDB75;" width="17.03" height="301.234"/>
<g>
	<rect x="440.368" y="0" style="fill:#F9BC43;" width="45.513" height="301.234"/>
	<rect x="144.025" y="0" style="fill:#F9BC43;" width="17.03" height="438.868"/>
</g>
<rect x="172.139" y="0" style="fill:#FCDB75;" width="17.016" height="438.868"/>
<rect x="212.459" y="0" style="fill:#F9BC43;" width="45.526" height="438.868"/>
<g>
	<path style="fill:#B27214;" d="M488.863,64.33H23.133c-5.459,0-9.886-4.426-9.886-9.886s4.426-9.886,9.886-9.886h465.729
		c5.459,0,9.886,4.426,9.886,9.886S494.323,64.33,488.863,64.33z"/>
	<path style="fill:#B27214;" d="M488.863,209.312H23.133c-5.459,0-9.886-4.426-9.886-9.886c0-5.459,4.426-9.886,9.886-9.886h465.729
		c5.459,0,9.886,4.426,9.886,9.886C498.747,204.886,494.323,209.312,488.863,209.312z"/>
</g>
<g>
</g>
<g>
</g>
<g>
</g>
<g>
</g>
<g>
</g>
<g>
</g>
<g>
</g>
<g>
</g>
<g>
</g>
<g>
</g>
<g>
</g>
<g>
</g>
<g>
</g>
<g>
</g>
<g>
</g>
</svg>
